<svg version="1.2" xmlns="http://www.w3.org/2000/svg" viewBox="0 0 500 700" width="500" height="700">
	<title>Hand coding-bro-svg-svg</title>
	<defs>
		<clipPath clipPathUnits="userSpaceOnUse" id="cp1">
			<path d="m452.89 559.92c0 0-18.93-9.64-23.4-12.05l-35.1-18.87q-0.75-0.2-1.49-0.43-0.74-0.23-1.47-0.49-0.74-0.26-1.46-0.54-0.72-0.29-1.43-0.6c-2.06-1-5.16-0.69-6.53-7.92-1.37-7.23 2.06-21.68 17.55-36.13 15.49-14.45 25.11-13.76 25.11-13.76 0 0 6.54-0.69 8.26 0.69 1.72 1.38 2.07 5.5 3.79 6.19 1.72 0.69 49.33 15 49.33 15"/>
		</clipPath>
	</defs>
	<style>
		.s0 { fill: #141321 } 
		.s1 { fill: #36363d } 
		.s2 { fill: #f7408a } 
		.s3 { fill: #ffffff } 
		.s4 { fill: #263238 } 
		.s5 { fill: #26e2db } 
	</style>
	<g id="freepik--background-simple--inject-15">
		<path id="Forma 1" class="s0" d="m0 120c0-11 9-20 20-20h460c11 0 20 9 20 20v560c0 11-9 20-20 20h-460c-11 0-20-9-20-20z"/>
		<path id="Forma 2" class="s1" d="m-45 356h590v2h-590z"/>
		<path id="Forma 2 copy" class="s2" d="m66.6 396c-6.4 0-11.6-5.2-11.6-11.6v-83.8c0-6.4 5.2-11.6 11.6-11.6 6.3 0 11.5 5.2 11.5 11.6v83.8c0 6.4-5.2 11.6-11.5 11.6z"/>
		<path id="Forma 2 copy 2" class="s2" d="m102 512c-8.3 0-15-6.7-15-15v-293c0-8.3 6.7-15 15-15 8.3 0 15 6.7 15 15v293c0 8.3-6.7 15-15 15z"/>
		<path id="Forma 2 copy 3" class="s2" d="m100 512c-8.3 0-15-6.7-15-15v-293c0-8.3 6.7-15 15-15 8.3 0 15 6.7 15 15v293c0 8.3-6.7 15-15 15z"/>
		<path id="Forma 2 copy 4" class="s2" d="m182 476c-8.3 0-15-6.7-15-15v-293c0-8.3 6.7-15 15-15 8.3 0 15 6.7 15 15v293c0 8.3-6.7 15-15 15z"/>
		<path id="Forma 2 copy 5" class="s2" d="m219 417c-6.4 0-11.6-5.2-11.6-11.6v-228.8c0-6.4 5.2-11.6 11.6-11.6 6.4 0 11.6 5.2 11.6 11.6v228.8c0 6.4-5.2 11.6-11.6 11.6z"/>
		<path id="Forma 2 copy 6" class="s2" d="m262 442c-8.3 0-15-6.7-15-15v-293c0-8.3 6.7-15 15-15 8.3 0 15 6.7 15 15v293c0 8.3-6.7 15-15 15z"/>
		<path id="Forma 2 copy 7" class="s2" d="m304 480c-8.3 0-15-6.7-15-15v-288c0-8.3 6.7-15 15-15 8.3 0 15 6.7 15 15v288c0 8.3-6.7 15-15 15z"/>
		<path id="Forma 2 copy 8" class="s2" d="m421 509c-8.3 0-15-6.7-15-15v-247c0-8.3 6.7-15 15-15 8.3 0 15 6.7 15 15v247c0 8.3-6.7 15-15 15z"/>
		<path id="Forma 2 copy 9" class="s2" d="m450.5 396c-4.1 0-7.5-3.4-7.5-7.5v-78c0-4.1 3.4-7.5 7.5-7.5 4.1 0 7.5 3.4 7.5 7.5v78c0 4.1-3.4 7.5-7.5 7.5z"/>
		<path id="Node-Nest react-Vue-Angular flut" class="s3" aria-label="Node-Nest
react-Vue-Angular
flutter-discord.js"  d="m178.5 540.9l-2.7-15.7h-1.6v24.8h1.6v-15.7l2.7 15.7h1.6v-24.8h-1.6zm14 6.4c0 0.5-0.1 0.9 0.1 1.2 0.1 0.3 0.3 0.6 0.6 0.8 0.2 0.3 0.5 0.5 0.9 0.6 0.4 0.1 0.8 0.2 1.3 0.2 1 0 1.4-0.3 2-0.8 0.5-0.4 0.9-1.1 0.9-2v-19.5c0-0.8-0.4-1.5-0.9-2-0.6-0.5-1-0.7-2-0.7-0.5 0-0.9 0-1.3 0.2-0.4 0.1-0.7 0.3-0.9 0.5-0.3 0.3-0.5 0.5-0.6 0.9-0.2 0.3-0.1 0.7-0.1 1.1zm4.2 0c0 0.4-0.1 0.7-0.3 1-0.3 0.3-0.6 0.4-1 0.4-0.5 0-0.8-0.1-1-0.4-0.3-0.3-0.3-0.6-0.3-1v-19.5c0-0.4 0-0.8 0.3-1 0.2-0.3 0.5-0.4 1-0.4 0.4 0 0.7 0.1 1 0.4 0.2 0.2 0.3 0.6 0.3 1zm14-22.1v24.8h2.8c1 0 1.6-0.3 2.2-0.8 0.5-0.5 0.8-1.1 0.8-2v-19.3c0-0.9-0.3-1.5-0.8-2-0.6-0.5-1.2-0.7-2.2-0.7zm1.5 23.4v-22.1h1.2c0.5 0 0.9 0.1 1.1 0.4 0.2 0.2 0.4 0.6 0.4 1v19.3c0 0.4-0.2 0.7-0.4 1-0.2 0.3-0.6 0.4-1.1 0.4zm21.7-21.9v-1.6h-5v24.9h5v-1.6h-3.5v-9.7h2.3v-1.5h-2.3v-10.5zm12.4 10.5h6.6v1.5h-6.6zm23.3 3.6l-2.7-15.7h-1.6v24.8h1.6v-15.7l2.7 15.7h1.5v-24.8h-1.5zm18.9-14.1v-1.6h-5v24.8h5v-1.5h-3.4v-9.7h2.2v-1.6h-2.2v-10.4zm19.2 1.3c0-0.9-0.4-1.5-0.9-2-0.5-0.5-1.2-0.8-2.2-0.8-0.5 0-1 0.1-1.4 0.2-0.4 0.2-0.7 0.3-1 0.6-0.2 0.2-0.4 0.5-0.6 0.8-0.1 0.4-0.2 0.8-0.2 1.2 0 1.2 0 2.3 0.1 3.2 0.1 1 0.3 1.9 0.5 2.7 0.2 0.7 0.4 1.5 0.7 2.2 0.3 0.7 0.9 2 0.9 2 0.2 0.6 0.5 1.3 0.7 2 0.4 1 0.7 2 0.9 3.2 0.2 1.2 0.3 2.6 0.3 4.2 0 0.4-0.1 0.7-0.3 1-0.2 0.3-0.7 0.4-1.2 0.4-0.4 0-0.9-0.1-1.2-0.4-0.2-0.3-0.3-0.6-0.3-1v-5h-1.6v5c0 0.8 0.3 1.5 0.8 2 0.6 0.5 1.3 0.7 2.3 0.7 0.5 0 0.9 0 1.3-0.2 0.4-0.1 0.7-0.3 1-0.5 0.3-0.3 0.5-0.5 0.6-0.9 0.2-0.3 0.3-0.7 0.3-1.1 0-1.2 0-2.3-0.1-3.2-0.2-1-0.3-1.9-0.6-2.7-0.1-0.8-0.4-1.5-0.7-2.2-0.2-0.4-0.3-0.9-0.5-1.3-0.4-0.9-0.7-1.8-1.1-2.7-0.3-1-0.6-2.1-0.8-3.3-0.3-1.1-0.4-2.5-0.4-4.1 0-0.4 0.1-0.8 0.4-1 0.2-0.3 0.7-0.4 1.1-0.4 0.5 0 1 0.1 1.2 0.4 0.2 0.2 0.4 0.6 0.4 1v4.9h1.6zm12.4-2.8v1.5h2.1v23.3h1.5v-23.3h2.2v-1.5zm-212.8 39.7c0-0.9-0.4-1.5-0.9-2-0.5-0.5-1.2-0.7-2.2-0.7h-2.8v24.8h1.6v-11.3c0 0 1.3 0 1.3 0 0.4 0 0.8 0.2 1 0.4 0.2 0.3 0.4 0.6 0.4 1v9.9h1.6v-10.1c0-0.9-0.4-1.5-0.9-2 0 0 0-0.1-0.1-0.1 0.1 0 0.1-0.1 0.1-0.1 0.5-0.5 0.9-1.1 0.9-2zm-3.1-1.5c0.4 0.1 0.9 0.2 1.1 0.5 0.2 0.2 0.4 0.6 0.4 1v7.8c0 0.4-0.2 0.8-0.4 1-0.2 0.3-0.7 0.4-1.1 0.4h-1.2v-10.7zm20.4 0.3v-1.6h-4.9v24.8h4.9v-1.5h-3.4v-9.7h2.2v-1.6h-2.2v-10.4zm18.3 23.2l-2.2-24.8h-1.5l-2.2 24.8h1.6l0.3-4.2h2.1l0.3 4.2zm-2.9-15.8l0.9 10h-1.8zm19.6 13.2c0 0.4-0.1 0.7-0.3 1-0.3 0.3-0.6 0.4-1 0.4-0.5 0-0.8-0.1-1-0.4-0.3-0.3-0.3-0.6-0.3-1v-19.5c0-0.5 0-0.8 0.3-1 0.2-0.3 0.5-0.5 1-0.5 0.4 0 0.7 0.2 1 0.5 0.2 0.2 0.3 0.5 0.3 1v7h1.6v-7c0-0.9-0.4-1.6-0.9-2.1-0.6-0.5-1-0.7-2-0.7-0.5 0-0.9 0.1-1.3 0.2-0.4 0.1-0.7 0.3-0.9 0.5-0.3 0.3-0.5 0.6-0.6 0.9-0.2 0.3-0.1 0.7-0.1 1.2v19.5c0 0.4-0.1 0.8 0.1 1.1 0.1 0.3 0.3 0.6 0.6 0.9 0.2 0.2 0.5 0.4 0.9 0.5 0.4 0.1 0.8 0.2 1.3 0.2 1 0 1.4-0.2 2-0.7 0.5-0.5 0.9-1.2 0.9-2v-7.1h-1.6zm14-22v1.5h2.1v23.3h1.6v-23.3h2.1v-1.5zm18.3 12h6.5v1.5h-6.5zm24-12.1l-1.8 17.3-1.7-17.3h-1.6l2.6 24.9h1.5l2.6-24.9zm18.2 22.2c0 0.4-0.1 0.7-0.4 1-0.2 0.3-0.5 0.4-1 0.4-0.5 0-0.7-0.1-1-0.4-0.2-0.3-0.3-0.6-0.3-1v-22.2h-1.6v22.2c0 0.4 0 0.8 0.1 1.1 0.2 0.4 0.3 0.6 0.6 0.9 0.3 0.2 0.6 0.4 0.9 0.5 0.4 0.2 0.8 0.2 1.3 0.2 1 0 1.5-0.2 2-0.7 0.6-0.5 0.9-1.1 0.9-2v-22.2h-1.5zm18.9-20.6v-1.5h-5v24.8h5v-1.6h-3.4v-9.7h2.2v-1.5h-2.2v-10.5zm12.4 10.6h6.6v1.4h-6.6zm24.9 12.8l-2.2-24.8h-1.6l-2.1 24.8h1.5l0.4-4.3h2l0.4 4.3zm-2.9-15.9l0.9 10.1h-1.8zm19.6 6.7l-2.7-15.7h-1.6v24.9h1.6v-15.8l2.7 15.8h1.6v-24.9h-1.6zm19.8-6.1v-7c0-0.9-0.4-1.5-0.9-2-0.6-0.5-1-0.8-2-0.8-0.5 0-0.9 0.1-1.3 0.2-0.4 0.2-0.7 0.4-1 0.6-0.2 0.2-0.4 0.5-0.5 0.8-0.2 0.3-0.1 0.7-0.1 1.2v19.5c0 0.4-0.1 0.8 0.1 1.2 0.1 0.3 0.3 0.5 0.5 0.8 0.3 0.2 0.6 0.4 1 0.6 0.4 0.1 0.8 0.1 1.3 0.1 1 0 1.4-0.2 2-0.7 0.5-0.5 0.9-1.1 0.9-2v-9.1h-2.6v1.6h1v7.5c0 0.4-0.1 0.7-0.3 1-0.3 0.3-0.6 0.4-1.1 0.4-0.4 0-0.7-0.1-0.9-0.4-0.3-0.3-0.3-0.6-0.3-1v-19.5c0-0.4 0-0.8 0.3-1 0.2-0.3 0.5-0.4 0.9-0.4 0.5 0 0.8 0.1 1.1 0.4 0.2 0.2 0.3 0.6 0.3 1v7zm16.7 12.5c0 0.4-0.1 0.8-0.4 1.1-0.2 0.2-0.5 0.4-1 0.4-0.5 0-0.8-0.2-1-0.4-0.2-0.3-0.3-0.7-0.3-1.1v-22.1h-1.6v22.2c0 0.4 0 0.8 0.1 1.1 0.2 0.3 0.3 0.6 0.6 0.9 0.3 0.2 0.5 0.4 0.9 0.5 0.4 0.1 0.8 0.2 1.3 0.2 1 0 1.5-0.2 2-0.7 0.6-0.5 0.9-1.2 0.9-2v-22.2h-1.5zm15.5-22.2h-1.6v24.9h4.9v-1.6h-3.3zm21.6 24.9l-2.1-24.9h-1.6l-2.2 24.9h1.6l0.4-4.3h2l0.4 4.3zm-3-15.9l0.9 10.1h-1.7zm21.1-6.2c0-0.9-0.3-1.6-0.8-2-0.6-0.5-1.2-0.8-2.2-0.8h-2.8v24.8h1.6v-11.2c0 0 1.2 0 1.2 0 0.5 0 0.8 0.1 1.1 0.4 0.2 0.3 0.4 0.6 0.4 1v9.8h1.5v-10c0-0.9-0.3-1.6-0.8-2 0-0.1-0.1-0.1-0.1-0.1 0-0.1 0.1-0.1 0.1-0.1 0.5-0.5 0.8-1.2 0.8-2zm-3-1.5c0.4 0 0.8 0.2 1.1 0.4 0.2 0.3 0.4 0.6 0.4 1.1v7.8c0 0.4-0.2 0.7-0.4 1-0.3 0.3-0.7 0.4-1.1 0.4h-1.2v-10.7zm-294.5 35.7h-5v24.8h1.5v-11.2h2.3v-1.6h-2.3v-10.4h3.5zm13.9 0h-1.5v24.8h4.9v-1.6h-3.4zm20 22.2c0 0.4-0.1 0.7-0.3 1-0.3 0.3-0.6 0.4-1.1 0.4-0.4 0-0.7-0.1-0.9-0.4-0.3-0.3-0.3-0.6-0.3-1v-22.2h-1.6v22.2c0 0.4-0.1 0.8 0.1 1.2 0.1 0.3 0.3 0.5 0.5 0.8 0.3 0.2 0.6 0.4 1 0.6 0.4 0.1 0.8 0.1 1.3 0.1 1 0 1.4-0.2 2-0.7 0.5-0.5 0.9-1.1 0.9-2v-22.2h-1.6zm14-22.1v1.6h2.1v23.2h1.6v-23.2h2.1v-1.6zm18.2 0v1.6h2.2v23.2h1.5v-23.2h2.2v-1.6zm23.2 1.6v-1.6h-5v24.8h5v-1.5h-3.5v-9.7h2.3v-1.6h-2.3v-10.4zm18.3 1.2c0-0.9-0.3-1.6-0.9-2-0.5-0.5-1.2-0.8-2.2-0.8h-2.8v24.8h1.6v-11.2c0 0 1.3 0 1.3 0 0.4 0 0.8 0.1 1 0.4 0.2 0.2 0.4 0.6 0.4 1v9.8h1.6v-10c0-0.9-0.3-1.6-0.9-2 0-0.1 0-0.1-0.1-0.1 0.1-0.1 0.1-0.1 0.1-0.1 0.6-0.5 0.9-1.2 0.9-2zm-3.1-1.5c0.4 0 0.9 0.1 1.1 0.4 0.2 0.3 0.4 0.6 0.4 1.1v7.7c0 0.5-0.2 0.8-0.4 1.1-0.2 0.2-0.7 0.4-1.1 0.4h-1.2v-10.7zm15.5 10.8h6.5v1.4h-6.5zm18.9-12v24.8h2.8c1 0 1.7-0.3 2.2-0.8 0.6-0.5 0.9-1.1 0.9-2v-19.3c0-0.8-0.3-1.5-0.9-2-0.5-0.5-1.2-0.7-2.2-0.7zm1.5 23.4v-22.1h1.3c0.4 0 0.8 0.1 1.1 0.4 0.2 0.3 0.3 0.6 0.3 1v19.3c0 0.4-0.1 0.8-0.3 1-0.3 0.3-0.7 0.4-1.1 0.4zm16.6 1.4v-24.9h1.6v24.9zm20.7-21.9c0-0.9-0.3-1.6-0.8-2.1-0.6-0.5-1.3-0.7-2.3-0.7-0.4 0-0.9 0.1-1.3 0.2-0.4 0.1-0.8 0.3-1 0.5-0.3 0.3-0.5 0.6-0.7 0.9-0.1 0.3-0.2 0.7-0.2 1.2 0 1.1 0 2.2 0.1 3.2 0.1 0.9 0.3 1.8 0.5 2.6 0.2 0.8 0.5 1.5 0.8 2.2 0.2 0.7 0.8 2 0.8 2 0.3 0.7 0.5 1.3 0.8 2.1 0.3 0.9 0.6 2 0.8 3.2 0.3 1.2 0.4 2.5 0.4 4.1 0 0.4-0.1 0.8-0.4 1.1-0.2 0.2-0.7 0.4-1.1 0.4-0.5 0-1-0.2-1.2-0.4-0.2-0.3-0.4-0.7-0.4-1.1v-4.9h-1.6v4.9c0 0.9 0.3 1.5 0.9 2 0.5 0.5 1.2 0.8 2.2 0.8 0.5 0 1-0.1 1.4-0.2 0.3-0.2 0.7-0.3 1-0.6 0.2-0.2 0.4-0.5 0.6-0.8 0.1-0.4 0.2-0.7 0.2-1.2 0-1.2 0-2.3-0.1-3.2-0.1-1-0.3-1.8-0.5-2.6-0.2-0.8-0.5-1.6-0.7-2.3-0.2-0.4-0.4-0.8-0.5-1.3-0.4-0.8-0.8-1.7-1.2-2.7-0.3-1-0.6-2-0.8-3.2-0.2-1.2-0.3-2.6-0.3-4.1 0-0.5 0.1-0.8 0.3-1.1 0.2-0.2 0.7-0.4 1.2-0.4 0.4 0 0.9 0.2 1.1 0.4 0.3 0.3 0.4 0.6 0.4 1.1v4.9h1.6zm16.6 19.1c0 0.5-0.1 0.8-0.3 1.1-0.3 0.3-0.6 0.4-1 0.4-0.5 0-0.8-0.1-1-0.4-0.2-0.3-0.3-0.6-0.3-1.1v-19.4c0-0.5 0.1-0.8 0.3-1 0.2-0.3 0.5-0.5 1-0.5 0.4 0 0.7 0.2 1 0.5 0.2 0.2 0.3 0.5 0.3 1v7h1.6v-7c0-0.9-0.4-1.6-0.9-2.1-0.5-0.5-1-0.7-2-0.7-0.5 0-0.9 0.1-1.3 0.2-0.4 0.1-0.6 0.3-0.9 0.5-0.3 0.3-0.5 0.6-0.6 0.9-0.1 0.3-0.1 0.7-0.1 1.2v19.5c0 0.4 0 0.8 0.1 1.1 0.1 0.3 0.3 0.6 0.6 0.9 0.3 0.2 0.5 0.4 0.9 0.5 0.4 0.1 0.8 0.2 1.3 0.2 1 0 1.5-0.2 2-0.7 0.5-0.5 0.9-1.2 0.9-2v-7.1h-1.6zm14 0.1c0 0.5 0 0.8 0.1 1.2 0.2 0.3 0.3 0.6 0.6 0.8 0.3 0.3 0.6 0.5 0.9 0.6 0.4 0.1 0.8 0.2 1.3 0.2 1 0 1.5-0.3 2-0.8 0.6-0.4 0.9-1.1 0.9-2v-19.5c0-0.9-0.3-1.5-0.9-2-0.5-0.5-1-0.8-2-0.8-0.5 0-0.9 0.1-1.3 0.3-0.3 0.1-0.6 0.3-0.9 0.5-0.3 0.2-0.4 0.5-0.6 0.9-0.1 0.3-0.1 0.7-0.1 1.1zm4.3 0c0 0.4-0.1 0.7-0.4 1-0.2 0.3-0.5 0.4-1 0.4-0.5 0-0.7-0.1-1-0.4-0.2-0.3-0.3-0.6-0.3-1v-19.5c0-0.4 0.1-0.8 0.3-1 0.3-0.3 0.5-0.4 1-0.4 0.5 0 0.8 0.1 1 0.4 0.3 0.2 0.4 0.6 0.4 1zm19.8-19.4c0-0.9-0.3-1.5-0.9-2-0.5-0.5-1.2-0.8-2.2-0.8h-2.8v24.8h1.6v-11.2c0 0 1.3 0 1.3 0 0.4 0 0.8 0.1 1 0.4 0.2 0.3 0.4 0.6 0.4 1v9.8h1.6v-10c0-0.9-0.3-1.6-0.9-2 0 0 0-0.1-0.1-0.1 0.1 0 0.1-0.1 0.1-0.1 0.6-0.5 0.9-1.1 0.9-2zm-3.1-1.5c0.4 0.1 0.9 0.2 1.1 0.5 0.2 0.2 0.4 0.5 0.4 1v7.8c0 0.4-0.2 0.7-0.4 1-0.2 0.3-0.7 0.4-1.1 0.4h-1.2v-10.7zm15.5-1.3v24.8h2.7c1 0 1.7-0.2 2.3-0.7 0.5-0.5 0.8-1.2 0.8-2v-19.3c0-0.9-0.3-1.6-0.8-2-0.6-0.5-1.3-0.8-2.3-0.8zm1.6 23.5v-22.2h1.2c0.4 0.1 0.9 0.2 1.1 0.5 0.2 0.2 0.4 0.5 0.4 1v19.3c0 0.4-0.2 0.7-0.4 1-0.2 0.3-0.7 0.4-1.1 0.4zm18.9 0.2c0 0.6-0.5 1.1-1.1 1.1-0.6 0-1.1-0.5-1.1-1.1 0-0.6 0.5-1.1 1.1-1.1 0.6 0 1.1 0.5 1.1 1.1zm18.2-1.5c0 0.5 0.1 0.8-0.1 1.2-0.1 0.3-0.3 0.6-0.6 0.8-0.2 0.3-0.5 0.4-0.9 0.6-0.4 0.1-0.8 0.1-1.3 0.1-1 0-1.4-0.2-2-0.7-0.5-0.5-0.9-1.1-0.9-2v-8.6h1.6v8.6c0 0.4 0.1 0.7 0.3 1 0.3 0.3 0.6 0.4 1 0.4 0.5 0 0.8-0.1 1-0.4 0.2-0.3 0.3-0.6 0.3-1v-22.2h1.6zm19.2-19.3c0-0.9-0.3-1.5-0.9-2-0.5-0.5-1.2-0.8-2.2-0.8-0.5 0-1 0.1-1.4 0.2-0.3 0.2-0.7 0.3-0.9 0.6-0.3 0.2-0.5 0.5-0.7 0.8-0.1 0.4-0.2 0.8-0.2 1.2 0 1.2 0 2.3 0.1 3.2 0.1 1 0.3 1.9 0.5 2.7 0.2 0.7 0.5 1.5 0.8 2.2 0.2 0.7 0.8 2 0.8 2 0.3 0.6 0.5 1.3 0.8 2 0.3 1 0.6 2 0.8 3.2 0.2 1.2 0.3 2.6 0.3 4.2 0 0.4-0.1 0.7-0.3 1-0.2 0.3-0.7 0.4-1.1 0.4-0.5 0-1-0.1-1.2-0.4-0.2-0.3-0.4-0.6-0.4-1v-5h-1.6v5c0 0.8 0.3 1.5 0.9 2 0.5 0.5 1.2 0.7 2.2 0.7 0.5 0 1 0 1.4-0.1 0.3-0.2 0.7-0.4 0.9-0.6 0.3-0.3 0.5-0.5 0.7-0.9 0.1-0.3 0.2-0.7 0.2-1.1 0-1.2 0-2.3-0.1-3.2-0.1-1-0.3-1.9-0.5-2.7-0.2-0.8-0.5-1.5-0.7-2.2-0.2-0.4-0.4-0.8-0.5-1.3-0.4-0.9-0.8-1.8-1.2-2.7-0.3-1-0.6-2.1-0.8-3.3-0.2-1.1-0.3-2.5-0.3-4.1 0-0.4 0.1-0.8 0.3-1 0.2-0.3 0.7-0.4 1.1-0.4 0.5 0 1 0.1 1.2 0.4 0.2 0.2 0.4 0.6 0.4 1v4.9h1.6z"/>
		<path id="Nyantise dev" class="s3" aria-label="Nyantise
dev"  d="m26 141.9l-2.7-15.7h-1.5v24.8h1.5v-15.7l2.7 15.7h1.6v-24.8h-1.6zm19.1-15.7l-1.8 8.6-1.8-8.6h-1.5l2.5 12.4v12.4h1.6v-12.4l2.5-12.4zm19.9 24.8l-2.2-24.8h-1.6l-2.1 24.8h1.5l0.4-4.3h2l0.4 4.3zm-2.9-15.9l0.9 10.1h-1.8zm19.6 6.7l-2.7-15.7h-1.6v24.9h1.6v-15.8l2.7 15.8h1.6v-24.9h-1.6zm14-15.7v1.6h2.1v23.2h1.6v-23.2h2.1v-1.6zm18.2 24.8v-24.8h1.6v24.8zm20.7-21.9c0-0.8-0.3-1.5-0.9-2-0.5-0.5-1.2-0.8-2.2-0.8-0.5 0-1 0.1-1.4 0.3-0.3 0.1-0.7 0.3-0.9 0.5-0.3 0.2-0.5 0.5-0.7 0.8-0.1 0.4-0.2 0.8-0.2 1.2 0 1.2 0 2.3 0.1 3.2 0.1 1 0.3 1.9 0.5 2.7 0.2 0.8 0.5 1.5 0.7 2.2 0.3 0.7 0.9 2 0.9 2 0.3 0.7 0.5 1.3 0.8 2 0.3 1 0.6 2.1 0.8 3.2 0.2 1.2 0.3 2.6 0.3 4.2 0 0.4-0.1 0.7-0.3 1-0.2 0.3-0.7 0.4-1.1 0.4-0.5 0-1-0.1-1.2-0.4-0.2-0.3-0.4-0.6-0.4-1v-5h-1.6v5c0 0.9 0.3 1.5 0.9 2 0.5 0.5 1.2 0.8 2.2 0.8 0.5 0 0.9-0.1 1.4-0.2 0.3-0.2 0.7-0.4 0.9-0.6 0.3-0.2 0.5-0.5 0.7-0.9 0.1-0.3 0.2-0.7 0.2-1.1 0-1.2 0-2.3-0.1-3.2-0.1-1-0.3-1.9-0.5-2.7-0.2-0.8-0.5-1.5-0.8-2.2-0.1-0.4-0.3-0.8-0.4-1.3-0.5-0.8-0.8-1.8-1.2-2.7-0.3-1-0.6-2.1-0.8-3.3-0.2-1.1-0.3-2.5-0.3-4.1 0-0.4 0.1-0.8 0.3-1 0.2-0.3 0.7-0.4 1.1-0.4 0.5 0 1 0.1 1.2 0.4 0.2 0.2 0.4 0.6 0.4 1v5h1.6zm17.3-1.4v-1.6h-4.9v24.9h4.9v-1.6h-3.4v-9.7h2.3v-1.5h-2.3v-10.5zm-130.6 35.5v24.8h2.8c1 0 1.6-0.3 2.2-0.8 0.5-0.5 0.8-1.1 0.8-2v-19.3c0-0.8-0.3-1.5-0.8-2-0.6-0.5-1.2-0.7-2.2-0.7zm1.5 23.4v-22.1h1.2c0.5 0 0.9 0.1 1.1 0.4 0.3 0.3 0.4 0.6 0.4 1v19.3c0 0.4-0.1 0.8-0.4 1-0.2 0.3-0.6 0.4-1.1 0.4zm21.7-21.9v-1.6h-5v24.9h5v-1.6h-3.5v-9.7h2.3v-1.5h-2.3v-10.5zm17.5-1.6l-1.7 17.3-1.8-17.3h-1.6l2.6 24.9h1.5l2.6-24.9z"/>
	</g>
	<g id="freepik--Device--inject-15">
		<path id="Layer" class="s4" d="m114.9 190h275.1q1.6 0 3.1 0.6 1.4 0.6 2.6 1.7 1.1 1.2 1.7 2.6 0.6 1.5 0.6 3.1v191.4h-291v-191.4q0-1.6 0.6-3 0.6-1.5 1.7-2.6 1.1-1.1 2.6-1.8 1.4-0.6 3-0.6z"/>
		<path id="Layer" fill-rule="evenodd" class="s4" d="m398 389.9c-0.1 0-291.1 0-291.2 0q-0.1-0.1-0.2-0.1 0-0.1-0.1-0.2 0-0.1 0-0.2v-191.4c0-1.1 0.2-2.2 0.6-3.2 0.5-1.1 1.1-2 1.9-2.8q1.2-1.2 2.7-1.8c1.1-0.5 2.2-0.7 3.3-0.7h275c1.1 0 2.2 0.2 3.2 0.7 1.1 0.4 2 1 2.8 1.8 0.8 0.8 1.4 1.7 1.8 2.8 0.5 1 0.7 2.1 0.7 3.2v191.4q0 0.1-0.1 0.2 0 0.1-0.1 0.2 0 0-0.1 0.1-0.1 0-0.2 0zm-290.5-1h290v-190.9q0-1.5-0.6-2.9-0.6-1.3-1.6-2.4-1.1-1-2.4-1.6-1.4-0.6-2.9-0.6h-275.1q-1.5 0-2.9 0.6-1.3 0.5-2.4 1.6-1 1.1-1.6 2.4-0.6 1.4-0.6 2.9z"/>
		<path id="Layer" class="s3" d="m441.6 477.6h-378.3l43.6-88.2h291.1z"/>
		<path id="Layer" fill-rule="evenodd" class="s4" d="m441.6 478.1c-0.1 0-378.4 0-378.4 0q-0.1-0.1-0.2-0.1 0 0-0.1-0.1 0 0-0.1-0.1 0 0 0-0.1 0 0 0-0.1 0-0.1 0-0.1 0-0.1 0-0.2l43.7-88.1q0-0.1 0.1-0.1 0-0.1 0.1-0.1 0.1-0.1 0.1-0.1 0.1 0 0.2 0c0.1 0 291.1 0 291.1 0q0.1 0 0.2 0.1 0 0 0.1 0.1 0 0 0 0.1l43.7 88.1q0 0.1 0 0.2 0.1 0 0.1 0.1 0 0.1-0.1 0.1 0 0.1 0 0.1 0 0.1-0.1 0.1 0 0.1-0.1 0.1-0.1 0-0.1 0.1-0.1 0-0.2 0zm-377.5-1h376.7l-43.1-87.2h-290.5z"/>
		<path id="Layer" class="s0" d="m124.6 205.8h255.7v167.8h-255.7z"/>
		<path id="Layer" fill-rule="evenodd" class="s4" d="m380.4 374.1c-0.1 0-255.9 0-256 0q-0.1-0.1-0.2-0.1-0.1-0.1-0.1-0.2 0-0.1 0-0.2c0-0.1 0-167.9 0-168q0-0.1 0.1-0.2 0.1 0 0.2-0.1 0.1 0 0.2 0c0 0 255.8 0 255.9 0q0.1 0.1 0.2 0.1 0.1 0.1 0.1 0.2 0 0.1 0.1 0.2v167.8q-0.1 0.1-0.1 0.2 0 0.1-0.1 0.2-0.1 0-0.2 0.1-0.1 0-0.1 0zm-255.3-1h254.8v-166.8h-254.8z"/>
		<path id="Layer" class="s4" d="m240.3 417.3l0.5-10.7h-15.4l-1 10.7z"/>
		<path id="Layer" fill-rule="evenodd" class="s3" d="m240.3 417.8c0 0-15.9 0-16 0q0 0-0.1 0 0 0-0.1-0.1 0 0-0.1 0 0-0.1 0-0.1 0-0.1-0.1-0.1 0-0.1 0-0.1 0-0.1 0-0.1l1-10.8q0-0.1 0.1-0.1 0-0.1 0.1-0.2 0.1-0.1 0.1-0.1 0.1 0 0.2 0c0.1 0 15.5 0 15.5 0q0.1 0 0.1 0 0.1 0 0.1 0.1 0 0 0.1 0 0 0.1 0 0.1 0.1 0.1 0.1 0.1 0 0 0 0.1 0 0 0 0.1l-0.5 10.7q0 0.1 0 0.2-0.1 0.1-0.1 0.2-0.1 0-0.2 0.1-0.1 0-0.2 0zm-15.3-1h14.8l0.5-9.7h-14.4z"/>
		<path id="Layer" class="s4" d="m272.1 417.3l-0.5-10.7h-15.4v10.7z"/>
		<path id="Layer" fill-rule="evenodd" class="s3" d="m272.1 417.8c-0.1 0-16 0-16.1 0q-0.1-0.1-0.1-0.1-0.1-0.1-0.2-0.2 0-0.1 0-0.2c0-0.1 0-10.8 0-10.9q0.1-0.1 0.2-0.2 0-0.1 0.1-0.1 0.1 0 0.2 0c0.1 0 15.5 0 15.6 0q0.1 0.1 0.1 0.1 0.1 0.1 0.1 0.2 0.1 0.1 0.1 0.1l0.5 10.8q0 0 0 0.1 0 0 0 0.1 0 0-0.1 0.1 0 0 0 0.1-0.1 0-0.1 0 0 0.1-0.1 0.1 0 0-0.1 0 0 0-0.1 0zm-15.4-1h14.9l-0.5-9.7h-14.4z"/>
		<path id="Layer" class="s4" d="m354.9 428.8h16.4l-3.8-11.5h-15.9z"/>
		<path id="Layer" fill-rule="evenodd" class="s3" d="m371.3 429.3c-0.1 0-16.5 0-16.6 0q-0.1 0-0.1-0.1-0.1 0-0.1-0.1-0.1-0.1-0.1-0.2l-3.3-11.4q0-0.1 0-0.2 0 0 0-0.1 0 0 0-0.1 0 0 0.1-0.1 0 0 0-0.1 0.1 0 0.1 0 0.1-0.1 0.1-0.1 0.1 0 0.2 0c0.1 0 15.9 0 16 0q0.1 0.1 0.1 0.1 0.1 0.1 0.2 0.1 0 0.1 0 0.2l3.9 11.4q0 0.1 0 0.2 0 0 0 0.1 0 0 0 0.1 0 0.1-0.1 0.1 0 0-0.1 0.1 0 0-0.1 0 0 0.1-0.1 0.1 0 0-0.1 0zm-16.1-1h15.4l-3.5-10.5h-14.9z"/>
		<path id="Layer" class="s4" d="m224.4 417.3l1-10.7h-15.3l-1.6 10.7z"/>
		<path id="Layer" fill-rule="evenodd" class="s3" d="m224.4 417.8c0 0-15.9 0-16 0q0 0-0.1 0 0 0-0.1-0.1 0 0 0-0.1-0.1 0-0.1 0 0-0.1 0-0.1-0.1-0.1-0.1-0.1 0-0.1 0-0.2l1.6-10.7q0-0.1 0-0.2 0.1 0 0.1-0.1 0.1-0.1 0.2-0.1 0.1 0 0.2 0c0.1 0 15.4 0 15.4 0q0.1 0 0.1 0 0.1 0 0.1 0.1 0.1 0 0.1 0 0 0.1 0.1 0.1 0 0.1 0 0.1 0 0.1 0 0.1 0 0.1 0 0.1l-1 10.8q0 0.1 0 0.2-0.1 0-0.1 0.1-0.1 0.1-0.2 0.1-0.1 0-0.2 0zm-15.3-1h14.9l0.9-9.7h-14.4z"/>
		<path id="Layer" class="s4" d="m192.6 417.3l2.1-10.7h-15.4l-2.5 10.7z"/>
		<path id="Layer" fill-rule="evenodd" class="s3" d="m192.6 417.8c-0.1 0-15.9 0-16 0q0 0-0.1 0 0-0.1-0.1-0.1 0 0 0-0.1-0.1 0-0.1-0.1 0 0 0-0.1-0.1 0-0.1-0.1 0 0 0.1-0.1l2.5-10.7q0-0.1 0.1-0.2 0-0.1 0.1-0.1 0.1-0.1 0.1-0.1 0.1 0 0.2 0c0 0 15.4 0 15.5 0q0.1 0 0.1 0 0.1 0 0.1 0.1 0 0 0.1 0.1 0 0 0 0.1 0.1 0 0.1 0.1 0 0 0 0.1 0 0 0 0.1l-2.1 10.7q0 0.1 0 0.2-0.1 0-0.1 0.1-0.1 0.1-0.2 0.1-0.1 0-0.2 0zm-15.2-1h14.8l1.9-9.7h-14.4z"/>
		<path id="Layer" class="s4" d="m335.7 417.3l-2.6-10.7h-15.4l2.1 10.7z"/>
		<path id="Layer" fill-rule="evenodd" class="s3" d="m335.7 417.8c-0.1 0-16 0-16.1 0q-0.1 0-0.1-0.1-0.1-0.1-0.2-0.1 0-0.1 0-0.2l-2.1-10.7q0-0.1 0-0.2 0.1-0.2 0.1-0.2 0.1-0.1 0.2-0.2 0.1 0 0.2 0c0.1 0 15.5 0 15.6 0q0 0 0.1 0.1 0.1 0 0.1 0.1 0.1 0.1 0.1 0.2l2.6 10.7q0 0.1 0 0.1 0 0.1 0 0.1-0.1 0.1-0.1 0.1 0 0.1 0 0.1-0.1 0.1-0.1 0.1-0.1 0-0.1 0.1-0.1 0-0.1 0-0.1 0-0.1 0zm-15.5-1h14.8l-2.3-9.7h-14.4z"/>
		<path id="Layer" class="s4" d="m351.6 417.3l-3.1-10.7h-15.4l2.6 10.7z"/>
		<path id="Layer" fill-rule="evenodd" class="s3" d="m351.6 417.8c-0.1 0-16 0-16.1 0q-0.1 0-0.1-0.1-0.1 0-0.2-0.1 0-0.1 0-0.2l-2.6-10.7q0-0.1 0-0.1 0-0.1 0-0.1 0-0.1 0-0.1 0.1-0.1 0.1-0.1 0-0.1 0.1-0.1 0 0 0.1-0.1 0 0 0.1 0 0 0 0.1 0c0 0 15.4 0 15.5 0q0.1 0 0.2 0.1 0 0 0.1 0.1 0 0.1 0 0.1l3.1 10.8q0 0 0 0.1 0 0.1 0 0.1 0 0.1 0 0.1 0 0.1-0.1 0.1 0 0.1-0.1 0.1 0 0 0 0.1-0.1 0-0.1 0-0.1 0-0.1 0zm-15.5-1h14.8l-2.8-9.7h-14.4z"/>
		<path id="Layer" class="s4" d="m176.8 417.3l2.5-10.7h-15.4l-3.1 10.7h15.9z"/>
		<path id="Layer" fill-rule="evenodd" class="s3" d="m160.7 417.8q0 0-0.1 0 0-0.1-0.1-0.1 0 0-0.1-0.1 0 0 0-0.1 0 0 0-0.1 0 0 0-0.1 0-0.1 0-0.1l3-10.8q0.1 0 0.1-0.1 0.1-0.1 0.1-0.1 0.1-0.1 0.2-0.1 0 0 0.1 0c0.1 0 15.5 0 15.5 0q0.1 0 0.1 0 0.1 0.1 0.1 0.1 0.1 0 0.1 0.1 0 0 0.1 0.1 0 0 0 0.1 0 0 0 0.1 0 0 0 0.1l-2.6 10.7q0 0.1 0 0.2-0.1 0.1-0.1 0.1-0.1 0.1-0.2 0.1-0.1 0-0.2 0c0 0-15.9 0-16 0zm0.9-1h14.9l2.3-9.7h-14.4z"/>
		<path id="Layer" class="s4" d="m288 417.3l-1.1-10.7h-15.3l0.5 10.7z"/>
		<path id="Layer" fill-rule="evenodd" class="s3" d="m288 417.8c-0.1 0-16 0-16.1 0q-0.1-0.1-0.1-0.1-0.1-0.1-0.2-0.2 0-0.1 0-0.2l-0.5-10.7q0-0.1 0-0.1 0-0.1 0-0.1 0 0 0-0.1 0.1 0 0.1-0.1 0 0 0.1 0 0-0.1 0.1-0.1 0 0 0.1 0 0 0 0.1 0c0.1 0 15.5 0 15.6 0q0.1 0 0.1 0.1 0.1 0.1 0.2 0.2 0 0 0 0.1l1 10.8q0 0.1 0 0.2-0.1 0.1-0.1 0.2-0.1 0-0.2 0.1-0.1 0-0.2 0zm-15.4-1h14.8l-0.9-9.7h-14.4z"/>
		<path id="Layer" class="s4" d="m367.4 417.3l-3.6-10.7h-15.3l3.1 10.7h15.9z"/>
		<path id="Layer" fill-rule="evenodd" class="s3" d="m351.4 417.8q-0.1 0-0.1-0.1-0.1 0-0.2-0.1 0-0.1 0-0.1l-3.1-10.8q0-0.1 0-0.2 0-0.1 0.1-0.2 0.1-0.1 0.2-0.2 0.1 0 0.2 0c0 0 15.4 0 15.5 0q0.1 0 0.2 0.1 0 0 0.1 0.1 0 0 0 0.1l3.7 10.8q0 0 0 0.1 0 0 0 0.1 0 0.1-0.1 0.1 0 0.1 0 0.1-0.1 0.1-0.1 0.1-0.1 0-0.1 0.1-0.1 0-0.1 0-0.1 0-0.1 0c-0.1 0-16 0-16.1 0zm0.4-1h14.9l-3.3-9.7h-14.4z"/>
		<path id="Layer" class="s4" d="m319.8 417.3l-2.1-10.7h-15.4l1.6 10.7z"/>
		<path id="Layer" fill-rule="evenodd" class="s3" d="m319.8 417.8c-0.1 0-16 0-16.1 0q-0.1 0-0.1-0.1-0.1-0.1-0.2-0.1 0-0.1 0-0.2l-1.6-10.8q0-0.1 0.1-0.2 0-0.1 0.1-0.1 0-0.1 0.1-0.2 0.1 0 0.2 0c0.1 0 15.5 0 15.6 0q0.1 0 0.1 0.1 0.1 0 0.1 0.1 0.1 0.1 0.1 0.2l2.1 10.7q0 0.1 0 0.2-0.1 0.1-0.1 0.2-0.1 0.1-0.2 0.2-0.1 0-0.2 0zm-15.5-1h14.9l-1.9-9.7h-14.4z"/>
		<path id="Layer" class="s4" d="m303.9 417.3l-1.6-10.7h-15.3l1 10.7z"/>
		<path id="Layer" fill-rule="evenodd" class="s3" d="m303.9 417.8c-0.1 0-16 0-16.1 0q-0.1 0-0.1-0.1-0.1-0.1-0.1-0.2-0.1 0-0.1-0.1l-1-10.8q0 0 0-0.1 0 0 0-0.1 0 0 0.1-0.1 0 0 0-0.1 0.1 0 0.1 0 0-0.1 0.1-0.1 0 0 0.1 0 0 0 0.1 0c0.1 0 15.5 0 15.5 0q0.1 0 0.2 0.1 0.1 0.1 0.1 0.1 0.1 0.1 0.1 0.2l1.5 10.7q0 0.1 0 0.2 0 0 0 0.1 0 0 0 0.1-0.1 0-0.1 0 0 0.1-0.1 0.1 0 0.1-0.1 0.1 0 0-0.1 0-0.1 0-0.1 0zm-15.4-1h14.8l-1.4-9.7h-14.4z"/>
		<path id="Layer" class="s4" d="m256.2 417.3v-10.7h-15.4l-0.5 10.7z"/>
		<path id="Layer" fill-rule="evenodd" class="s3" d="m256.2 417.8c0 0-15.9 0-16 0q0 0-0.1 0 0 0-0.1-0.1-0.1-0.1-0.1-0.1 0-0.1-0.1-0.1 0-0.1 0-0.1 0-0.1 0-0.1l0.5-10.8q0 0 0.1-0.1 0-0.1 0.1-0.2 0 0 0.1-0.1 0.1 0 0.2 0c0.1 0 15.5 0 15.6 0q0.1 0.1 0.2 0.1 0 0.1 0.1 0.2 0 0.1 0 0.2c0 0.1 0 10.8 0 10.8q0 0.1 0 0.1-0.1 0.1-0.1 0.1 0 0 0 0.1-0.1 0-0.1 0-0.1 0.1-0.1 0.1 0 0-0.1 0 0 0-0.1 0zm-15.4-1h14.9v-9.7h-14.4z"/>
		<path id="Layer" class="s4" d="m145 417.3h-15.9l-4.4 11.5h16.4z"/>
		<path id="Layer" fill-rule="evenodd" class="s3" d="m141.1 429.3c-0.1 0-16.5 0-16.5 0q-0.1 0-0.2-0.1-0.1-0.1-0.1-0.1-0.1-0.1-0.1-0.1 0-0.1 0-0.1 0-0.1 0-0.2 0 0 0-0.1l4.4-11.5q0 0 0.1-0.1 0 0 0.1-0.1 0 0 0.1-0.1 0.1 0 0.2 0c0.1 0 16 0 16 0q0.1 0 0.1 0.1 0.1 0 0.1 0 0.1 0.1 0.1 0.1 0 0.1 0.1 0.1 0 0.1 0 0.1 0 0.1 0 0.2 0 0 0 0.1l-3.9 11.5q0 0.1-0.1 0.1 0 0.1-0.1 0.1-0.1 0.1-0.1 0.1-0.1 0-0.2 0zm-15.7-1h15.4l3.5-10.5h-14.9z"/>
		<path id="Layer" class="s4" d="m148.6 406.6h-15.4l-4.1 10.7h15.9z"/>
		<path id="Layer" fill-rule="evenodd" class="s3" d="m145 417.8c-0.1 0-16 0-16.1 0q0 0-0.1 0 0-0.1-0.1-0.1 0 0 0-0.1-0.1 0-0.1-0.1 0-0.1 0-0.1 0-0.1 0-0.1 0-0.1 0-0.2l4.1-10.7q0-0.1 0.1-0.1 0-0.1 0.1-0.1 0.1-0.1 0.1-0.1 0.1 0 0.2 0c0.1 0 15.5 0 15.6 0q0.1 0.1 0.2 0.2 0 0.1 0.1 0.2 0 0.1-0.1 0.2l-3.6 10.8q0 0 0 0.1-0.1 0.1-0.1 0.1-0.1 0.1-0.2 0.1 0 0-0.1 0zm-15.2-1h14.8l3.3-9.7h-14.4z"/>
		<path id="Layer" class="s4" d="m160.8 417.3l3.1-10.7h-15.3l-3.6 10.7z"/>
		<path id="Layer" fill-rule="evenodd" class="s3" d="m160.8 417.8c-0.1 0-15.9 0-16 0q-0.1-0.1-0.2-0.2-0.1-0.1-0.1-0.2 0-0.1 0-0.2l3.6-10.8q0-0.1 0.1-0.1 0-0.1 0.1-0.1 0.1-0.1 0.1-0.1 0.1 0 0.2 0c0 0 15.4 0 15.5 0q0 0 0.1 0 0 0.1 0.1 0.1 0 0 0.1 0.1 0 0 0 0.1 0 0 0.1 0.1 0 0 0 0.1 0 0.1 0 0.1l-3.1 10.8q-0.1 0-0.1 0.1-0.1 0.1-0.1 0.1-0.1 0.1-0.2 0.1-0.1 0-0.2 0zm-15.1-1h14.8l2.8-9.7h-14.4z"/>
		<path id="Layer" class="s4" d="m120 441.1l-5.1 13.2h17.7l4.4-13.2z"/>
		<path id="Layer" fill-rule="evenodd" class="s3" d="m132.6 454.8c0 0-17.7 0-17.8 0q-0.1 0-0.1 0-0.1-0.1-0.1-0.1-0.1 0-0.1-0.1 0 0 0-0.1-0.1 0-0.1-0.1 0-0.1 0-0.1 0-0.1 0.1-0.1l5-13.3q0 0 0.1-0.1 0-0.1 0.1-0.1 0.1 0 0.1-0.1 0.1 0 0.2 0c0 0 17 0 17.1 0q0.1 0 0.1 0.1 0.1 0 0.1 0 0.1 0.1 0.1 0.1 0 0.1 0 0.1 0.1 0.1 0.1 0.1 0 0.1 0 0.2 0 0 0 0.1l-4.5 13.2q0 0.1 0 0.1-0.1 0.1-0.1 0.1-0.1 0.1-0.2 0.1 0 0-0.1 0zm-16.9-1h16.5l4.1-12.2h-16z"/>
		<path id="Layer" class="s4" d="m141.1 428.8h-16.4l-4.7 12.3h17z"/>
		<path id="Layer" fill-rule="evenodd" class="s3" d="m137 441.6c-0.1 0-17.1 0-17.2 0q-0.1-0.1-0.2-0.2-0.1-0.1-0.1-0.2 0-0.2 0-0.3l4.7-12.3q0.1-0.1 0.1-0.1 0.1-0.1 0.1-0.1 0.1-0.1 0.2-0.1 0 0 0.1 0c0.1 0 16.5 0 16.6 0q0 0 0.1 0.1 0 0 0.1 0 0 0.1 0.1 0.1 0 0.1 0 0.1 0 0.1 0 0.1 0 0.1 0 0.1 0 0.1 0 0.2l-4.1 12.3q0 0-0.1 0.1 0 0.1-0.1 0.1-0.1 0.1-0.1 0.1-0.1 0-0.2 0zm-16.3-1h16l3.8-11.3h-15.5z"/>
		<path id="Layer" class="s4" d="m137 441.1l-4.4 13.2h17.6l3.8-13.2z"/>
		<path id="Layer" fill-rule="evenodd" class="s3" d="m150.3 454.8c-0.1 0-17.8 0-17.9 0q-0.1-0.1-0.2-0.2-0.1-0.1-0.1-0.2 0-0.1 0-0.2l4.4-13.2q0.1-0.1 0.1-0.1 0.1-0.1 0.1-0.1 0.1-0.1 0.2-0.1 0 0 0.1 0c0.1 0 17.1 0 17.1 0q0.1 0 0.1 0 0.1 0 0.1 0.1 0.1 0 0.1 0.1 0 0 0.1 0.1 0 0 0 0.1 0 0 0 0.1 0 0 0 0.1l-3.8 13.2q0 0.1-0.1 0.1 0 0.1-0.1 0.1 0 0.1-0.1 0.1-0.1 0-0.1 0zm-17-1h16.5l3.5-12.2h-16z"/>
		<path id="Layer" class="s4" d="m208.5 417.3l1.6-10.7h-15.4l-2.1 10.7z"/>
		<path id="Layer" fill-rule="evenodd" class="s3" d="m208.5 417.8c0 0-15.9 0-16 0q0 0-0.1 0 0-0.1-0.1-0.1 0 0 0-0.1-0.1 0-0.1-0.1 0 0 0-0.1-0.1 0-0.1-0.1 0 0 0-0.1l2.1-10.7q0-0.1 0-0.2 0.1-0.1 0.1-0.1 0.1-0.1 0.2-0.1 0.1 0 0.2 0c0.1 0 15.4 0 15.5 0q0.1 0.1 0.2 0.2 0.1 0 0.1 0.1 0 0.1 0 0.2l-1.5 10.8q0 0.1-0.1 0.2 0 0-0.1 0.1 0 0-0.1 0.1-0.1 0-0.2 0zm-15.3-1h14.9l1.4-9.7h-14.4z"/>
		<path id="Layer" class="s4" d="m206.9 428.8l1.6-11.5h-15.9l-2.2 11.5z"/>
		<path id="Layer" fill-rule="evenodd" class="s3" d="m206.9 429.3c-0.1 0-16.6 0-16.7 0q-0.1-0.1-0.1-0.2-0.1-0.1-0.1-0.2-0.1-0.1 0-0.2l2.1-11.5q0.1-0.1 0.1-0.1 0.1-0.1 0.1-0.2 0.1 0 0.2-0.1 0.1 0 0.1 0c0.1 0 16 0 16 0q0.1 0 0.1 0.1 0.1 0 0.1 0 0.1 0 0.1 0.1 0 0 0.1 0.1 0 0 0 0.1 0 0 0 0.1 0 0 0 0.1l-1.6 11.5q0 0.1-0.1 0.1 0 0.1-0.1 0.2 0 0-0.1 0.1-0.1 0-0.2 0zm-15.9-1h15.5l1.5-10.5h-14.9z"/>
		<path id="Layer" class="s4" d="m190.4 428.8l2.2-11.5h-15.9l-2.7 11.5z"/>
		<path id="Layer" fill-rule="evenodd" class="s3" d="m190.4 429.3c-0.1 0-16.5 0-16.5 0q-0.1 0-0.1 0-0.1-0.1-0.1-0.1-0.1 0-0.1-0.1 0 0-0.1-0.1 0 0 0-0.1 0 0 0-0.1 0-0.1 0-0.1l2.7-11.5q0.1-0.1 0.1-0.2 0.1 0 0.1-0.1 0.1 0 0.2-0.1 0.1 0 0.1 0c0.1 0 16 0 16 0q0.1 0 0.1 0.1 0.1 0 0.1 0 0.1 0.1 0.1 0.1 0 0 0.1 0.1 0 0 0 0.1 0 0 0 0.1 0 0.1 0 0.1l-2.2 11.5q0 0.1 0 0.2-0.1 0-0.1 0.1-0.1 0-0.2 0.1-0.1 0-0.2 0zm-15.8-1h15.4l2-10.5h-14.9z"/>
		<path id="Layer" class="s4" d="m223.3 428.8l1.1-11.5h-15.9l-1.6 11.5z"/>
		<path id="Layer" fill-rule="evenodd" class="s3" d="m223.3 429.3c-0.1 0-16.5 0-16.6 0q-0.1-0.1-0.2-0.2-0.1-0.1-0.1-0.2 0-0.1 0-0.2l1.6-11.5q0 0 0.1-0.1 0-0.1 0.1-0.2 0 0 0.1 0 0.1-0.1 0.2-0.1c0 0 15.9 0 16 0q0 0 0.1 0.1 0 0 0.1 0 0 0 0 0.1 0.1 0 0.1 0.1 0 0 0.1 0.1 0 0 0 0.1 0 0 0 0.1l-1.1 11.5q0 0-0.1 0.1 0 0.1-0.1 0.2 0 0-0.1 0.1-0.1 0-0.2 0zm-15.8-1h15.4l1-10.5h-14.9z"/>
		<path id="Layer" class="s4" d="m160.8 417.3h-15.8l-3.9 11.5h16.5z"/>
		<path id="Layer" fill-rule="evenodd" class="s3" d="m157.6 429.3c0 0-16.5 0-16.6 0q-0.1 0-0.1-0.1-0.1 0-0.1 0 0-0.1-0.1-0.1 0 0 0-0.1-0.1-0.1-0.1-0.1 0-0.1 0-0.1 0-0.1 0.1-0.2l3.8-11.4q0-0.1 0.1-0.2 0 0 0.1-0.1 0 0 0.1-0.1 0.1 0 0.2 0c0 0 15.9 0 16 0q0 0 0.1 0.1 0 0 0.1 0 0 0.1 0.1 0.1 0 0.1 0 0.1 0 0.1 0 0.1 0.1 0.1 0.1 0.1-0.1 0.1-0.1 0.2l-3.2 11.4q-0.1 0.1-0.1 0.2-0.1 0.1-0.1 0.1-0.1 0-0.2 0.1 0 0-0.1 0zm-15.8-1h15.4l3-10.5h-14.9z"/>
		<path id="Layer" class="s4" d="m358.4 441.1h17.1l-4.2-12.3h-16.4z"/>
		<path id="Layer" fill-rule="evenodd" class="s3" d="m358.3 441.6q-0.1 0-0.2-0.1 0 0-0.1-0.1 0-0.1 0-0.2l-3.6-12.3q0 0 0-0.1 0 0 0-0.1 0 0 0-0.1 0.1-0.1 0.1-0.1 0 0 0.1-0.1 0 0 0.1 0 0-0.1 0.1-0.1 0 0 0.1 0c0.1 0 16.5 0 16.6 0q0.1 0 0.1 0.1 0.1 0 0.1 0.1 0.1 0.1 0.1 0.1l4.1 12.4q0 0.1 0 0.1 0.1 0.1 0 0.1 0 0.1 0 0.1 0 0.1-0.1 0.1 0 0.1 0 0.1-0.1 0.1-0.1 0.1-0.1 0-0.1 0-0.1 0-0.1 0c-0.1 0-17.1 0-17.2 0zm0.4-1h16l-3.8-11.3h-15.5z"/>
		<path id="Layer" class="s4" d="m174 428.8l2.8-11.5h-16l-3.2 11.5z"/>
		<path id="Layer" fill-rule="evenodd" class="s3" d="m174 429.3c-0.1 0-16.5 0-16.5 0q-0.1 0-0.2-0.1 0 0-0.1 0 0-0.1 0-0.1-0.1 0-0.1-0.1 0 0 0-0.1 0-0.1 0-0.1 0-0.1 0-0.1l3.3-11.5q0-0.1 0-0.2 0.1 0 0.1-0.1 0.1 0 0.2-0.1 0.1 0 0.1 0c0.1 0 16 0 16.1 0q0 0 0.1 0.1 0 0 0.1 0 0 0.1 0 0.1 0.1 0.1 0.1 0.1 0 0.1 0 0.1 0 0.1 0 0.1 0 0.1 0 0.1l-2.7 11.5q0 0.1-0.1 0.2 0 0-0.1 0.1-0.1 0-0.1 0.1-0.1 0-0.2 0zm-15.8-1h15.4l2.5-10.5h-14.9z"/>
		<path id="Layer" class="s4" d="m141.1 428.8l-4.1 12.3h17l3.6-12.3z"/>
		<path id="Layer" fill-rule="evenodd" class="s3" d="m154 441.6c-0.1 0-17.1 0-17.1 0q-0.1 0-0.1 0-0.1-0.1-0.1-0.1-0.1-0.1-0.1-0.1 0 0-0.1-0.1 0-0.1 0-0.1 0-0.1 0-0.1 0-0.1 0-0.1l4.1-12.3q0.1-0.1 0.1-0.2 0.1-0.1 0.1-0.1 0.1 0 0.2-0.1 0 0 0.1 0h16.5q0.1 0 0.2 0.1 0.1 0 0.2 0.1 0 0.1 0 0.2 0.1 0.1 0 0.2l-3.5 12.3q0 0.1-0.1 0.2 0 0.1-0.1 0.1-0.1 0.1-0.1 0.1-0.1 0-0.2 0zm-16.3-1h16l3.2-11.3h-15.4z"/>
		<path id="Layer" class="s4" d="m322 428.8l-2.2-11.5h-15.9l1.6 11.5z"/>
		<path id="Layer" fill-rule="evenodd" class="s3" d="m305.4 429.3q-0.1-0.1-0.2-0.1 0-0.1-0.1-0.2 0 0 0-0.1l-1.7-11.5q0-0.1 0-0.1 0-0.1 0-0.1 0-0.1 0-0.1 0.1-0.1 0.1-0.1 0-0.1 0.1-0.1 0 0 0.1 0 0-0.1 0.1-0.1 0 0 0.1 0c0.1 0 16 0 16 0q0.1 0.1 0.2 0.1 0.1 0.1 0.1 0.2 0.1 0 0.1 0.1l2.2 11.5q0 0.1 0 0.2-0.1 0.1-0.1 0.2-0.1 0.1-0.2 0.2-0.1 0-0.2 0c0 0-16.5 0-16.6 0zm0.5-1h15.4l-2-10.5h-14.9z"/>
		<path id="Layer" class="s4" d="m305.5 428.8l-1.6-11.5h-15.9l1.1 11.5z"/>
		<path id="Layer" fill-rule="evenodd" class="s3" d="m288.9 429.3q-0.1-0.1-0.1-0.1-0.1-0.1-0.1-0.2-0.1-0.1-0.1-0.1l-1.1-11.5q0-0.1 0-0.1 0-0.1 0-0.1 0-0.1 0.1-0.1 0-0.1 0-0.1 0.1-0.1 0.1-0.1 0 0 0.1 0 0-0.1 0.1-0.1 0 0 0.1 0h15.9q0.1 0 0.2 0.1 0 0 0.1 0 0.1 0.1 0.1 0.2 0.1 0.1 0.1 0.1l1.6 11.5q0 0.1 0 0.2 0 0.1-0.1 0.2-0.1 0.1-0.2 0.2-0.1 0-0.2 0c-0.1 0-16.5 0-16.6 0zm0.6-1h15.5l-1.5-10.5h-15z"/>
		<path id="Layer" class="s4" d="m354.9 428.8l-3.3-11.5h-15.9l2.7 11.5z"/>
		<path id="Layer" fill-rule="evenodd" class="s3" d="m354.9 429.3c-0.1 0-16.6 0-16.6 0q-0.1-0.1-0.2-0.1 0-0.1-0.1-0.1 0-0.1-0.1-0.2l-2.7-11.5q0 0 0-0.1 0 0 0-0.1 0 0 0-0.1 0 0 0.1-0.1 0 0 0.1-0.1 0 0 0.1 0 0-0.1 0.1-0.1 0 0 0.1 0c0 0 15.9 0 16 0q0.1 0.1 0.2 0.1 0 0.1 0.1 0.1 0 0.1 0 0.2l3.4 11.5q0 0 0 0.1 0 0 0 0.1-0.1 0.1-0.1 0.1 0 0.1 0 0.1-0.1 0-0.1 0.1-0.1 0-0.1 0-0.1 0.1-0.1 0.1-0.1 0-0.1 0zm-16.1-1h15.4l-3-10.5h-14.9z"/>
		<path id="Layer" class="s4" d="m256.2 428.8v-11.5h-15.9l-0.5 11.5z"/>
		<path id="Layer" fill-rule="evenodd" class="s3" d="m256.2 429.3c-0.1 0-16.5 0-16.5 0q-0.1 0-0.1 0-0.1-0.1-0.1-0.1-0.1 0-0.1 0 0-0.1-0.1-0.1 0-0.1 0-0.1 0-0.1 0-0.1 0-0.1 0-0.1l0.5-11.5q0-0.1 0.1-0.2 0-0.1 0.1-0.1 0-0.1 0.1-0.1 0.1-0.1 0.2-0.1h15.9q0.1 0 0.2 0.1 0.1 0 0.2 0.1 0 0 0.1 0.1 0 0.1 0 0.2c0 0.1 0 11.6 0 11.6q0 0 0 0.1 0 0-0.1 0.1 0 0 0 0.1-0.1 0-0.1 0-0.1 0-0.1 0.1 0 0-0.1 0 0 0-0.1 0zm-15.9-1h15.4v-10.5h-14.9z"/>
		<path id="Layer" class="s4" d="m289.1 428.8l-1.1-11.5h-15.9l0.6 11.5z"/>
		<path id="Layer" fill-rule="evenodd" class="s3" d="m289.1 429.3c-0.1 0-16.5 0-16.6 0q-0.1-0.1-0.2-0.1-0.1-0.1-0.1-0.2 0-0.1 0-0.2l-0.6-11.5q0 0 0-0.1 0 0 0-0.1 0 0 0.1-0.1 0.1-0.1 0.1-0.1 0.1 0 0.1 0 0.1-0.1 0.1-0.1 0 0 0.1 0h15.9q0.1 0 0.2 0.1 0.1 0 0.1 0 0.1 0.1 0.1 0.2 0.1 0.1 0.1 0.2l1.1 11.5q0 0 0 0.1 0 0 0 0.1 0 0-0.1 0.1-0.1 0.1-0.1 0.1 0 0-0.1 0.1 0 0-0.1 0 0 0-0.1 0zm-16-1h15.4l-1-10.5h-14.9z"/>
		<path id="Layer" class="s4" d="m272.7 428.8l-0.6-11.5h-15.9v11.5z"/>
		<path id="Layer" fill-rule="evenodd" class="s3" d="m272.7 429.3c-0.1 0-16.6 0-16.7 0q-0.1-0.1-0.1-0.1-0.1-0.1-0.1-0.2-0.1-0.1-0.1-0.2c0 0 0-11.5 0-11.6q0 0 0.1-0.1 0 0 0-0.1 0 0 0.1 0 0-0.1 0-0.1 0.1 0 0.1 0 0.1-0.1 0.1-0.1 0.1 0 0.1 0h15.9q0.1 0 0.2 0.1 0.1 0 0.1 0.1 0.1 0 0.2 0.1 0 0.1 0 0.2l0.6 11.5q0 0 0 0.1-0.1 0-0.1 0.1 0 0 0 0.1 0 0-0.1 0.1 0 0-0.1 0 0 0 0 0.1-0.1 0-0.1 0-0.1 0-0.1 0zm-16-1h15.4l-0.5-10.5h-14.9z"/>
		<path id="Layer" class="s4" d="m239.8 428.8l0.5-11.5h-15.9l-1.1 11.5z"/>
		<path id="Layer" fill-rule="evenodd" class="s3" d="m239.8 429.3c0 0-16.5 0-16.6 0q0 0-0.1 0 0-0.1-0.1-0.1 0 0 0-0.1-0.1 0-0.1 0 0-0.1 0-0.1-0.1-0.1-0.1-0.1 0-0.1 0-0.1l1.1-11.5q0-0.1 0.1-0.2 0-0.1 0.1-0.2 0.1 0 0.1 0 0.1-0.1 0.2-0.1h15.9q0.1 0 0.2 0.1 0.1 0 0.2 0.1 0.1 0 0.1 0.1 0 0.1 0 0.2l-0.5 11.5q0 0.1-0.1 0.2 0 0.1-0.1 0.2 0 0-0.1 0.1-0.1 0-0.2 0zm-15.9-1h15.4l0.5-10.5h-14.9z"/>
		<path id="Layer" class="s4" d="m289.1 428.8l1.2 12.3h17l-1.8-12.3z"/>
		<path id="Layer" fill-rule="evenodd" class="s3" d="m307.3 441.6c-0.1 0-17.1 0-17.2 0q0-0.1-0.1-0.1-0.1-0.1-0.1-0.2-0.1 0-0.1-0.1l-1.2-12.3q0-0.1 0-0.2 0 0 0.1-0.1 0-0.1 0.1-0.1 0-0.1 0-0.1 0.1 0 0.1-0.1 0.1 0 0.1 0 0.1 0 0.1 0c0.1 0 16.6 0 16.6 0q0.1 0.1 0.2 0.1 0.1 0.1 0.1 0.2 0.1 0 0.1 0.1l1.7 12.3q0 0.1 0 0.1 0 0.1 0 0.1 0 0.1 0 0.1-0.1 0.1-0.1 0.1 0 0-0.1 0.1 0 0-0.1 0 0 0.1-0.1 0.1 0 0-0.1 0zm-16.6-1h16l-1.6-11.3h-15.5z"/>
		<path id="Layer" class="s4" d="m305.5 428.8l1.8 12.3h17.1l-2.4-12.3z"/>
		<path id="Layer" fill-rule="evenodd" class="s3" d="m324.4 441.6c-0.1 0-17.1 0-17.2 0q-0.1-0.1-0.2-0.1 0-0.1-0.1-0.2 0 0 0-0.1l-1.8-12.3q0-0.1 0-0.1 0-0.1 0-0.1 0-0.1 0-0.1 0.1-0.1 0.1-0.1 0-0.1 0.1-0.1 0 0 0.1-0.1 0 0 0.1 0 0 0 0.1 0c0.1 0 16.5 0 16.6 0q0.1 0.1 0.1 0.1 0.1 0.1 0.1 0.1 0.1 0.1 0.1 0.2l2.4 12.3q0 0.1 0 0.1 0 0.1-0.1 0.1 0 0.1 0 0.1 0 0.1-0.1 0.1 0 0.1 0 0.1-0.1 0-0.1 0.1-0.1 0-0.1 0-0.1 0-0.1 0zm-16.6-1h16l-2.2-11.3h-15.5z"/>
		<path id="Layer" class="s4" d="m157.6 428.8l-3.6 12.3h17.1l2.9-12.3z"/>
		<path id="Layer" fill-rule="evenodd" class="s3" d="m171.1 441.6c-0.1 0-17.2 0-17.2 0q-0.1 0-0.1 0-0.1-0.1-0.1-0.1-0.1 0-0.1-0.1 0 0-0.1-0.1 0 0 0-0.1 0-0.1 0-0.1 0-0.1 0-0.1l3.5-12.3q0.1-0.1 0.1-0.2 0.1 0 0.1-0.1 0.1 0 0.2-0.1 0 0 0.1 0h16.5q0.1 0 0.2 0.1 0.1 0 0.2 0.1 0.1 0.1 0.1 0.2 0 0.1 0 0.2l-3 12.3q0 0.1 0 0.2-0.1 0.1-0.1 0.1-0.1 0.1-0.2 0.1 0 0-0.1 0zm-16.4-1h16l2.7-11.3h-15.5z"/>
		<path id="Layer" class="s4" d="m322 428.8l2.4 12.3h17l-3-12.3z"/>
		<path id="Layer" fill-rule="evenodd" class="s3" d="m341.4 441.6c-0.1 0-17.1 0-17.2 0q-0.1-0.1-0.1-0.1-0.1-0.1-0.1-0.1-0.1-0.1-0.1-0.2l-2.4-12.3q0-0.1 0-0.1 0-0.1 0-0.1 0-0.1 0-0.1 0.1-0.1 0.1-0.1 0-0.1 0.1-0.1 0 0 0.1 0 0-0.1 0.1-0.1 0 0 0.1 0c0.1 0 16.5 0 16.6 0q0.1 0.1 0.1 0.1 0.1 0.1 0.1 0.1 0.1 0.1 0.1 0.2l3 12.3q0 0.1 0 0.1 0 0.1 0 0.1 0 0.1 0 0.1 0 0.1-0.1 0.1 0 0.1-0.1 0.1 0 0-0.1 0.1 0 0-0.1 0 0 0-0.1 0zm-16.6-1h16l-2.8-11.3h-15.4z"/>
		<path id="Layer" class="s4" d="m256.2 428.8v12.3h17.1l-0.6-12.3z"/>
		<path id="Layer" fill-rule="evenodd" class="s3" d="m273.3 441.6c-0.1 0-17.1 0-17.2 0q-0.1-0.1-0.2-0.1-0.1-0.1-0.1-0.2 0-0.1 0-0.2c0 0 0-12.3 0-12.4q0 0 0-0.1 0 0 0-0.1 0.1 0 0.1-0.1 0 0 0.1 0 0 0 0.1-0.1 0 0 0.1 0 0 0 0.1 0c0.1 0 16.5 0 16.6 0q0.1 0.1 0.1 0.1 0.1 0.1 0.2 0.2 0 0.1 0 0.2l0.6 12.3q0 0 0 0.1 0 0 0 0.1 0 0-0.1 0.1 0 0 0 0.1-0.1 0-0.1 0-0.1 0.1-0.1 0.1-0.1 0-0.1 0-0.1 0-0.1 0zm-16.6-1h16l-0.5-11.3h-15.5z"/>
		<path id="Layer" class="s4" d="m338.4 428.8l3 12.3h17l-3.5-12.3z"/>
		<path id="Layer" fill-rule="evenodd" class="s3" d="m358.4 441.6c-0.1 0-17.1 0-17.1 0q-0.1 0-0.2-0.1-0.1 0-0.1-0.1 0-0.1-0.1-0.2l-3-12.3q0 0 0-0.1 0-0.1 0-0.1 0-0.1 0.1-0.1 0-0.1 0-0.1 0.1-0.1 0.1-0.1 0.1 0 0.1-0.1 0.1 0 0.1 0 0.1 0 0.1 0c0 0 16.5 0 16.6 0q0.1 0.1 0.2 0.1 0 0.1 0.1 0.1 0 0.1 0 0.2l3.6 12.3q0 0.1 0 0.1 0 0.1 0 0.1 0 0.1 0 0.1 0 0.1-0.1 0.1 0 0.1-0.1 0.1 0 0-0.1 0.1 0 0-0.1 0 0 0-0.1 0zm-16.6-1h16l-3.3-11.3h-15.4z"/>
		<path id="Layer" class="s4" d="m272.7 428.8l0.6 12.3h17l-1.2-12.3z"/>
		<path id="Layer" fill-rule="evenodd" class="s3" d="m290.3 441.6c-0.1 0-17.1 0-17.2 0q-0.1-0.1-0.2-0.1 0-0.1-0.1-0.2 0-0.1 0-0.2l-0.6-12.3q0 0 0-0.1 0 0 0-0.1 0 0 0.1-0.1 0.1-0.1 0.1-0.1 0 0 0.1-0.1 0 0 0.1 0 0 0 0.1 0c0.1 0 16.5 0 16.6 0q0.1 0.1 0.1 0.1 0.1 0.1 0.2 0.2 0 0.1 0 0.2l1.2 12.3q0 0 0 0.1 0 0 0 0.1-0.1 0-0.1 0.1-0.1 0.1-0.1 0.1-0.1 0-0.1 0.1-0.1 0-0.1 0-0.1 0-0.1 0zm-16.6-1h16l-1-11.3h-15.5z"/>
		<path id="Layer" class="s4" d="m190.4 428.8l-2.3 12.3h17l1.8-12.3z"/>
		<path id="Layer" fill-rule="evenodd" class="s3" d="m205.1 441.6c0 0-17 0-17.1 0q0 0-0.1 0 0-0.1-0.1-0.1 0 0 0-0.1-0.1 0-0.1-0.1 0 0 0-0.1-0.1 0-0.1-0.1 0 0 0-0.1l2.4-12.3q0-0.1 0.1-0.2 0 0 0.1-0.1 0 0 0.1-0.1 0.1 0 0.2 0c0.1 0 16.5 0 16.6 0q0.1 0.1 0.2 0.2 0.1 0.1 0.1 0.2 0 0.1 0 0.2l-1.7 12.3q0 0.1-0.1 0.2 0 0-0.1 0.1-0.1 0.1-0.2 0.1-0.1 0-0.2 0zm-16.4-1h16l1.6-11.3h-15.4z"/>
		<path id="Layer" class="s4" d="m174 428.8l-2.9 12.3h17l2.3-12.3z"/>
		<path id="Layer" fill-rule="evenodd" class="s3" d="m188.1 441.6c-0.1 0-17.1 0-17.1 0q-0.1 0-0.1 0-0.1-0.1-0.1-0.1-0.1 0-0.1-0.1 0 0 0-0.1-0.1 0-0.1-0.1 0 0 0-0.1 0 0 0-0.1l3-12.3q0-0.1 0-0.2 0.1 0 0.1-0.1 0.1 0 0.2-0.1 0.1 0 0.1 0c0 0 16.5 0 16.6 0q0 0 0.1 0 0 0.1 0.1 0.1 0 0 0.1 0.1 0 0 0 0.1 0 0 0.1 0.1 0 0 0 0.1 0 0 0 0.1l-2.4 12.3q0 0.1 0 0.2-0.1 0.1-0.2 0.1 0 0.1-0.1 0.1-0.1 0-0.2 0zm-16.4-1h16l2.2-11.3h-15.5z"/>
		<path id="Layer" class="s4" d="m239.8 428.8l-0.6 12.3h17v-12.3z"/>
		<path id="Layer" fill-rule="evenodd" class="s3" d="m256.2 441.6c0 0-17 0-17.1 0q0 0-0.1 0 0 0-0.1-0.1-0.1-0.1-0.1-0.1 0-0.1 0-0.1-0.1-0.1-0.1-0.1 0-0.1 0-0.1l0.6-12.3q0-0.1 0.1-0.2 0-0.1 0.1-0.2 0 0 0.1-0.1 0.1 0 0.2 0c0 0 16.5 0 16.6 0q0.1 0.1 0.2 0.1 0.1 0.1 0.1 0.2 0 0.1 0.1 0.2v12.3q-0.1 0.1-0.1 0.1 0 0.1 0 0.1 0 0.1 0 0.1-0.1 0-0.1 0.1 0 0-0.1 0 0 0.1-0.1 0.1 0 0-0.1 0 0 0-0.1 0zm-16.5-1h16v-11.3h-15.4z"/>
		<path id="Layer" class="s4" d="m223.3 428.8l-1.1 12.3h17l0.6-12.3z"/>
		<path id="Layer" fill-rule="evenodd" class="s3" d="m239.2 441.6c-0.1 0-17.1 0-17.1 0q-0.1 0-0.1 0 0-0.1-0.1-0.1 0 0-0.1-0.1-0.1-0.1-0.1-0.1 0-0.1 0-0.1 0-0.1 0-0.1l1.2-12.3q0-0.1 0-0.2 0.1-0.1 0.1-0.2 0.1 0 0.2-0.1 0.1 0 0.2 0c0.1 0 16.5 0 16.5 0q0.1 0 0.1 0 0.1 0.1 0.1 0.1 0 0 0.1 0.1 0.1 0.1 0.1 0.1 0 0.1 0 0.1 0 0.1 0 0.1l-0.6 12.3q0 0.1 0 0.2-0.1 0.1-0.1 0.2-0.1 0-0.2 0.1-0.1 0-0.2 0zm-16.5-1h16l0.6-11.3h-15.5z"/>
		<path id="Layer" class="s4" d="m206.9 428.8l-1.8 12.3h17.1l1.1-12.3z"/>
		<path id="Layer" fill-rule="evenodd" class="s3" d="m222.2 441.6c-0.1 0-17.1 0-17.2 0q-0.1-0.1-0.2-0.2-0.1 0-0.1-0.1 0-0.2 0-0.3l1.7-12.3q0-0.1 0.1-0.1 0-0.1 0.1-0.2 0.1 0 0.1-0.1 0.1 0 0.2 0c0 0 16.5 0 16.6 0q0 0 0.1 0 0 0.1 0.1 0.1 0 0 0 0.1 0.1 0 0.1 0.1 0.1 0.1 0.1 0.1 0 0.1 0 0.2l-1.2 12.3q0 0.1-0.1 0.1 0 0.1-0.1 0.2-0.1 0.1-0.1 0.1-0.1 0-0.2 0zm-16.5-1h16l1.1-11.3h-15.5z"/>
		<path id="Layer" class="s4" d="m338.4 428.8l-2.7-11.5h-15.9l2.2 11.5z"/>
		<path id="Layer" fill-rule="evenodd" class="s3" d="m338.4 429.3c-0.1 0-16.5 0-16.6 0q-0.1-0.1-0.1-0.1-0.1-0.1-0.1-0.1-0.1-0.1-0.1-0.2l-2.2-11.5q0 0 0-0.1 0-0.1 0-0.1 0-0.1 0-0.1 0.1-0.1 0.1-0.1 0 0 0.1-0.1 0 0 0.1 0 0-0.1 0.1-0.1 0 0 0.1 0c0.1 0 16 0 16 0q0.1 0.1 0.2 0.1 0.1 0.1 0.1 0.1 0 0.1 0.1 0.2l2.7 11.5q0 0 0 0.1 0 0.1 0 0.1 0 0.1 0 0.1 0 0.1-0.1 0.1 0 0.1-0.1 0.1 0 0 0 0.1-0.1 0-0.2 0 0 0-0.1 0zm-16-1h15.4l-2.5-10.5h-14.9z"/>
		<path id="Layer" class="s4" d="m148.6 406.6l3.6-11h-14.8l-4.2 11z"/>
		<path id="Layer" fill-rule="evenodd" class="s3" d="m148.6 407.1h-15.4q-0.2 0-0.3-0.1-0.1 0-0.1-0.1-0.1-0.1-0.1-0.3 0-0.1 0-0.2l4.2-11q0-0.1 0.1-0.1 0-0.1 0.1-0.1 0.1-0.1 0.1-0.1 0.1 0 0.2 0c0.1 0 15 0 15.1 0q0.1 0.1 0.1 0.2 0.1 0.1 0.1 0.2 0 0.1 0 0.2l-3.7 11q0 0.1 0 0.2-0.1 0-0.2 0.1 0 0-0.1 0.1-0.1 0-0.1 0zm-14.7-1h14.3l3.3-10h-13.8z"/>
		<path id="Layer" class="s4" d="m133.2 406.6h-14.2l-4.6 10.7h14.7z"/>
		<path id="Layer" fill-rule="evenodd" class="s3" d="m129.1 417.8c-0.1 0-14.8 0-14.8 0q-0.1 0-0.1 0-0.1-0.1-0.1-0.1-0.1-0.1-0.1-0.1 0-0.1-0.1-0.1 0-0.1 0-0.1 0-0.1 0-0.2 0.1 0 0.1-0.1l4.6-10.7q0-0.1 0-0.1 0.1-0.1 0.1-0.1 0.1-0.1 0.2-0.1 0 0 0.1 0c0.1 0 14.3 0 14.3 0q0.1 0 0.1 0 0.1 0.1 0.1 0.1 0.1 0 0.1 0.1 0.1 0 0.1 0.1 0 0.1 0 0.1 0 0.1 0 0.1 0 0.1-0.1 0.1l-4.1 10.8q0 0.1 0 0.1-0.1 0.1-0.2 0.1 0 0.1-0.1 0.1-0.1 0-0.1 0zm-13.9-1h13.5l3.7-9.7h-13.1z"/>
		<path id="Layer" class="s4" d="m137.4 395.6h-13.7l-4.7 11h14.2z"/>
		<path id="Layer" fill-rule="evenodd" class="s3" d="m133.2 407.1c-0.1 0-14.3 0-14.3 0q-0.1-0.1-0.1-0.1-0.1 0-0.1-0.1-0.1 0-0.1-0.1 0 0-0.1-0.1 0 0 0-0.1 0 0 0-0.1 0.1-0.1 0.1-0.1l4.7-11q0-0.1 0-0.1 0.1-0.1 0.2-0.1 0-0.1 0.1-0.1 0.1 0 0.1 0c0.1 0 13.8 0 13.9 0q0 0 0.1 0 0 0.1 0.1 0.1 0 0 0 0.1 0.1 0.1 0.1 0.1 0 0.1 0 0.1 0 0.1 0 0.1 0 0.1 0 0.2l-4.2 11q0 0-0.1 0.1 0 0.1-0.1 0.1-0.1 0.1-0.2 0.1 0 0-0.1 0zm-13.5-1h13.1l3.8-10h-12.6z"/>
		<path id="Layer" class="s4" d="m129.1 417.3h-14.7l-4.9 11.5h15.2z"/>
		<path id="Layer" fill-rule="evenodd" class="s3" d="m124.7 429.3h-15.2q-0.1 0-0.2-0.1-0.1 0-0.2-0.1-0.1-0.1-0.1-0.3 0-0.1 0-0.2l4.9-11.5q0.1 0 0.1-0.1 0.1-0.1 0.1-0.1 0.1 0 0.2-0.1 0 0 0.1 0c0 0 14.7 0 14.8 0q0 0 0.1 0.1 0.1 0 0.1 0 0 0.1 0.1 0.1 0 0.1 0 0.1 0.1 0.1 0.1 0.2 0 0 0 0.1 0 0-0.1 0.1l-4.3 11.5q-0.1 0.1-0.1 0.1-0.1 0.1-0.1 0.1-0.1 0.1-0.2 0.1 0 0-0.1 0zm-14.4-1h14l4-10.5h-13.6z"/>
		<path id="Layer" class="s4" d="m124.7 428.8h-15.2l-5.2 12.3h15.7z"/>
		<path id="Layer" fill-rule="evenodd" class="s3" d="m120 441.6c-0.1 0-15.9 0-16 0q-0.1-0.1-0.2-0.2 0-0.1 0-0.2-0.1-0.2 0-0.3l5.2-12.3q0-0.1 0.1-0.1 0-0.1 0.1-0.1 0-0.1 0.1-0.1 0.1 0 0.2 0h15.1q0.2 0 0.3 0.1 0.1 0 0.1 0.1 0.1 0.1 0.1 0.2 0.1 0.2 0 0.3l-4.7 12.3q0 0.1-0.1 0.1 0 0.1-0.1 0.1 0 0-0.1 0.1 0 0-0.1 0zm-15-1h14.6l4.4-11.3h-14.2z"/>
		<path id="Layer" class="s4" d="m120 441.1h-15.7l-5.7 13.2h16.3z"/>
		<path id="Layer" fill-rule="evenodd" class="s3" d="m114.9 454.8c0 0-16.3 0-16.4 0q-0.1 0-0.1 0-0.1-0.1-0.1-0.1-0.1 0-0.1-0.1 0 0 0-0.1-0.1-0.1-0.1-0.1 0-0.1 0.1-0.1 0-0.1 0-0.2l5.6-13.2q0.1 0 0.1-0.1 0.1-0.1 0.1-0.1 0.1 0 0.2-0.1 0 0 0.1 0c0.1 0 15.8 0 15.8 0q0.1 0 0.1 0.1 0.1 0 0.1 0 0.1 0.1 0.1 0.1 0 0.1 0.1 0.1 0 0.1 0 0.2 0 0 0 0.1 0 0 0 0.1l-5.1 13.2q0 0.1-0.1 0.1 0 0.1-0.1 0.2 0 0-0.1 0-0.1 0-0.2 0zm-15.5-1h15.2l4.7-12.2h-14.7z"/>
		<path id="Layer" class="s4" d="m383.4 417.3l4.4 11.5h14.5l-4.9-11.5z"/>
		<path id="Layer" fill-rule="evenodd" class="s3" d="m402.3 429.3c-0.1 0-14.6 0-14.7 0q-0.1 0-0.1-0.1-0.1 0-0.1-0.1-0.1 0-0.1-0.1l-4.4-11.5q0-0.1 0-0.1-0.1-0.1-0.1-0.1 0.1-0.1 0.1-0.2 0 0 0-0.1 0.1 0 0.1-0.1 0.1 0 0.1 0 0.1 0 0.1-0.1 0.1 0 0.1 0c0.1 0 14.2 0 14.2 0q0.1 0.1 0.2 0.1 0 0 0.1 0.1 0 0.1 0.1 0.1l4.9 11.5q0 0.1 0 0.1 0 0.1 0 0.1 0 0.1 0 0.2 0 0 0 0.1-0.1 0-0.1 0.1-0.1 0-0.1 0.1-0.1 0-0.2 0 0 0-0.1 0zm-14.2-1h13.4l-4.4-10.5h-13z"/>
		<path id="Layer" class="s4" d="m392.5 441.1h15.1l-5.3-12.3h-14.6z"/>
		<path id="Layer" fill-rule="evenodd" class="s3" d="m392.3 441.6q0 0-0.1-0.1-0.1 0-0.1-0.1-0.1 0-0.1-0.1l-4.7-12.3q-0.1-0.1 0-0.2 0-0.2 0-0.3 0.1-0.1 0.2-0.1 0.1-0.1 0.3-0.1c0.1 0 14.6 0 14.6 0q0.1 0.1 0.2 0.1 0 0 0.1 0.1 0 0.1 0.1 0.1l5.2 12.3q0 0.1 0 0.3 0 0.1 0 0.2-0.1 0.1-0.2 0.2-0.1 0-0.3 0c-0.1 0-15.1 0-15.2 0zm0.6-1h14l-4.8-11.3h-13.5z"/>
		<path id="Layer" class="s4" d="m397.6 454.3h15.6l-5.7-13.2h-15z"/>
		<path id="Layer" fill-rule="evenodd" class="s3" d="m413.2 454.8c-0.1 0-15.7 0-15.8 0q-0.1 0-0.1 0-0.1-0.1-0.1-0.1-0.1-0.1-0.1-0.2l-5.1-13.2q0-0.1 0-0.2 0-0.2 0.1-0.3 0-0.1 0.1-0.1 0.1-0.1 0.3-0.1c0.1 0 15.1 0 15.2 0q0.1 0.1 0.1 0.1 0.1 0 0.1 0.1 0.1 0.1 0.1 0.1l5.6 13.2q0.1 0.1 0.1 0.2 0 0 0 0.1 0 0 0 0.1 0 0.1-0.1 0.1 0 0.1-0.1 0.1 0 0.1-0.1 0.1 0 0-0.1 0-0.1 0-0.1 0zm-15.3-1h14.5l-5.2-12.2h-14z"/>
		<path id="Layer" class="s4" d="m271.6 406.6l-0.6-11h-14.8v11z"/>
		<path id="Layer" fill-rule="evenodd" class="s3" d="m271.6 407.1h-15.4q-0.1 0-0.2-0.1-0.1 0-0.2-0.1 0 0-0.1-0.1 0-0.1 0-0.2c0-0.1 0-11.1 0-11.1q0-0.1 0-0.1 0.1-0.1 0.1-0.1 0 0 0-0.1 0.1 0 0.1 0 0.1-0.1 0.1-0.1 0.1 0 0.1 0 0 0 0.1 0c0.1 0 14.9 0 15 0q0.1 0.1 0.1 0.1 0.1 0.1 0.2 0.2 0 0.1 0 0.2l0.5 11q0 0 0 0.1 0 0 0 0.1-0.1 0.1-0.1 0.1 0 0.1-0.1 0.1-0.1 0.1-0.1 0.1-0.1 0-0.1 0zm-14.9-1h14.3l-0.4-10h-13.9z"/>
		<path id="Layer" class="s4" d="m383.4 417.3h14l-4.6-10.7h-13.6z"/>
		<path id="Layer" fill-rule="evenodd" class="s3" d="m397.4 417.8c0 0-14.1 0-14.2 0q-0.1 0-0.1-0.1-0.1 0-0.1-0.1-0.1 0-0.1-0.1l-4.1-10.8q-0.1-0.1-0.1-0.2 0-0.1 0.1-0.2 0.1-0.1 0.2-0.2 0.1 0 0.2 0c0.1 0 13.7 0 13.8 0q0 0 0.1 0.1 0.1 0 0.1 0.1 0.1 0 0.1 0.1l4.6 10.7q0 0.1 0 0.1 0 0.1 0 0.2 0 0 0 0.1 0 0 0 0.1-0.1 0-0.1 0.1-0.1 0-0.1 0.1-0.1 0-0.2 0 0 0-0.1 0zm-13.7-1h13l-4.2-9.7h-12.5z"/>
		<path id="Layer" class="s4" d="m375.4 441.1h17.1l-4.7-12.3h-16.5l4.2 12.3z"/>
		<path id="Layer" fill-rule="evenodd" class="s3" d="m392.5 441.6c-0.1 0-17.1 0-17.2 0q-0.1 0-0.1-0.1-0.1 0-0.1-0.1-0.1-0.1-0.1-0.1l-4.2-12.3q0-0.1 0-0.2 0-0.2 0.1-0.3 0.1 0 0.2-0.1 0.1-0.1 0.2-0.1h16.5q0 0 0.1 0.1 0.1 0 0.1 0 0.1 0.1 0.1 0.1 0.1 0.1 0.1 0.2l4.8 12.2q0 0.1 0 0.1 0 0.1 0 0.2 0 0 0 0.1 0 0-0.1 0.1 0 0.1-0.1 0.1 0 0-0.1 0.1 0 0-0.1 0-0.1 0-0.1 0zm-16.7-1h15.9l-4.3-11.3h-15.4z"/>
		<path id="Layer" class="s4" d="m163.9 406.6l3.2-11h-14.9l-3.6 11z"/>
		<path id="Layer" fill-rule="evenodd" class="s3" d="m163.9 407.1h-15.3q-0.2 0-0.3-0.1-0.1 0-0.2-0.1 0-0.1 0-0.2-0.1-0.2 0-0.3l3.6-11q0.1-0.1 0.1-0.1 0.1-0.1 0.1-0.1 0.1-0.1 0.2-0.1 0.1 0 0.1 0c0 0 14.9 0 15 0q0.1 0 0.1 0 0.1 0.1 0.1 0.1 0 0 0.1 0.1 0 0 0 0.1 0.1 0 0.1 0.1 0 0 0 0.1 0 0.1 0 0.1l-3.2 11q0 0.1-0.1 0.2 0 0-0.1 0.1 0 0-0.1 0.1-0.1 0-0.2 0zm-14.7-1h14.4l2.8-10h-13.8z"/>
		<path id="Layer" class="s4" d="m363.8 406.6l3.6 10.7h16l-4.2-10.7z"/>
		<path id="Layer" fill-rule="evenodd" class="s3" d="m383.3 417.8c0 0-15.9 0-16 0q-0.1 0-0.1-0.1-0.1 0-0.1-0.1-0.1 0-0.1-0.1l-3.6-10.8q0 0-0.1-0.1 0 0 0-0.1 0.1-0.1 0.1-0.1 0-0.1 0-0.1 0.1-0.1 0.1-0.1 0.1 0 0.1-0.1 0.1 0 0.1 0 0.1 0 0.1 0c0.1 0 15.5 0 15.6 0q0 0 0.1 0.1 0.1 0 0.1 0.1 0.1 0 0.1 0.1l4.1 10.7q0 0.1 0 0.2 0 0 0 0.1 0 0 0 0.1 0 0 0 0.1-0.1 0.1-0.1 0.1-0.1 0-0.1 0.1-0.1 0-0.1 0-0.1 0-0.2 0zm-15.5-1h14.8l-3.7-9.7h-14.4z"/>
		<path id="Layer" class="s4" d="m392.8 406.6l-4.7-11h-13.1l4.2 11z"/>
		<path id="Layer" fill-rule="evenodd" class="s3" d="m392.8 407.1c-0.1 0-13.7 0-13.7 0q-0.1-0.1-0.2-0.1 0-0.1-0.1-0.1 0-0.1 0-0.1l-4.3-11q0-0.1 0-0.2 0 0 0-0.1 0 0 0-0.1 0.1-0.1 0.1-0.1 0-0.1 0.1-0.1 0 0 0.1-0.1 0 0 0.1 0 0 0 0.1 0c0.1 0 13.2 0 13.3 0q0.1 0 0.1 0.1 0.1 0 0.1 0.1 0.1 0 0.1 0.1l4.7 11q0 0 0 0.1 0 0.1 0 0.1 0 0.1 0 0.1 0 0.1-0.1 0.2-0.1 0.1-0.1 0.1-0.1 0-0.1 0.1-0.1 0-0.2 0zm-13.2-1h12.5l-4.3-10h-12.1z"/>
		<path id="Layer" class="s4" d="m379.2 406.6l-4.2-11h-14.9l3.7 11z"/>
		<path id="Layer" fill-rule="evenodd" class="s3" d="m379.2 407.1c0 0-15.4 0-15.5 0q-0.1-0.1-0.1-0.1-0.1-0.1-0.2-0.1 0-0.1 0-0.2l-3.7-11q0 0-0.1-0.1 0 0 0.1-0.1 0-0.1 0-0.1 0-0.1 0-0.1 0.1-0.1 0.1-0.1 0.1 0 0.1-0.1 0.1 0 0.1 0 0.1 0 0.1 0c0.1 0 15 0 15 0q0.1 0 0.2 0.1 0 0 0.1 0.1 0 0 0.1 0.1l4.2 11q0 0.1 0 0.2 0 0.2-0.1 0.3 0 0.1-0.1 0.1-0.2 0.1-0.3 0.1zm-15-1h14.3l-3.8-10h-13.9z"/>
		<path id="Layer" class="s4" d="m324.4 441.1l2.5 13.2h17.7l-3.2-13.2z"/>
		<path id="Layer" fill-rule="evenodd" class="s3" d="m344.6 454.8c-0.1 0-17.8 0-17.9 0q-0.1 0-0.1-0.1-0.1 0-0.1-0.1-0.1-0.1-0.1-0.2l-2.5-13.2q0 0 0-0.1 0-0.1 0-0.1 0-0.1 0-0.1 0-0.1 0.1-0.1 0-0.1 0-0.1 0.1 0 0.1 0 0.1-0.1 0.1-0.1 0.1 0 0.1 0c0.1 0 17.1 0 17.2 0q0.1 0.1 0.2 0.1 0 0.1 0.1 0.1 0 0.1 0 0.2l3.2 13.2q0 0.1 0 0.1 0 0.1 0 0.1 0 0.1 0 0.2 0 0-0.1 0 0 0.1-0.1 0.1 0 0.1 0 0.1-0.1 0-0.1 0-0.1 0-0.1 0zm-17.3-1h16.6l-2.9-12.2h-16z"/>
		<path id="Layer" class="s4" d="m379.9 454.3h17.7l-5.1-13.2h-17z"/>
		<path id="Layer" fill-rule="evenodd" class="s3" d="m397.6 454.8c-0.1 0-17.8 0-17.9 0q0 0-0.1-0.1-0.1 0-0.1-0.1-0.1 0-0.1-0.1l-4.4-13.2q0-0.1 0-0.1 0-0.1 0-0.2 0 0 0-0.1 0 0 0.1-0.1 0 0 0.1-0.1 0 0 0.1 0 0-0.1 0.1-0.1 0 0 0.1 0c0.1 0 17.1 0 17.1 0q0.1 0.1 0.2 0.1 0 0 0.1 0.1 0 0.1 0.1 0.1l5 13.3q0 0 0 0.1 0.1 0 0.1 0.1 0 0.1-0.1 0.1 0 0.1 0 0.1 0 0.1-0.1 0.1 0 0.1-0.1 0.1 0 0-0.1 0-0.1 0-0.1 0zm-17.4-1h16.6l-4.7-12.2h-16z"/>
		<path id="Layer" class="s4" d="m363.8 406.6l-3.7-11h-14.8l3.2 11z"/>
		<path id="Layer" fill-rule="evenodd" class="s3" d="m363.8 407.1c-0.1 0-15.4 0-15.5 0q-0.1-0.1-0.1-0.1-0.1-0.1-0.2-0.1 0-0.1 0-0.2l-3.2-11q0 0 0-0.1 0-0.1 0-0.1 0-0.1 0-0.1 0.1-0.1 0.1-0.1 0-0.1 0.1-0.1 0-0.1 0.1-0.1 0 0 0.1 0 0 0 0.1 0c0.1 0 14.9 0 15 0q0.1 0 0.1 0.1 0.1 0 0.1 0.1 0.1 0 0.1 0.1l3.7 11q0 0.1 0 0.1 0 0.1 0 0.1 0 0.1 0 0.2 0 0-0.1 0.1 0 0 0 0.1-0.1 0-0.1 0-0.1 0-0.1 0.1-0.1 0-0.2 0zm-15-1h14.3l-3.3-10h-13.8z"/>
		<path id="Layer" class="s4" d="m358.4 441.1l3.8 13.2h17.7l-4.4-13.2z"/>
		<path id="Layer" fill-rule="evenodd" class="s3" d="m379.9 454.8c-0.1 0-17.8 0-17.8 0q-0.1 0-0.2-0.1 0 0-0.1-0.1 0-0.1 0-0.1l-3.9-13.3q0 0 0-0.1 0 0 0-0.1 0 0 0.1-0.1 0 0 0-0.1 0.1 0 0.1-0.1 0 0 0.1 0 0-0.1 0.1-0.1 0.1 0 0.1 0c0.1 0 17.1 0 17.2 0q0 0.1 0.1 0.1 0.1 0.1 0.1 0.1 0.1 0.1 0.1 0.1l4.4 13.3q0.1 0 0.1 0.1 0 0.1 0 0.1-0.1 0.1-0.1 0.1 0 0.1 0 0.1-0.1 0.1-0.1 0.1 0 0-0.1 0.1 0 0-0.1 0-0.1 0-0.1 0zm-17.3-1h16.6l-4.1-12.2h-16z"/>
		<path id="Layer" class="s4" d="m341.4 441.1l3.2 13.2h17.6l-3.8-13.2z"/>
		<path id="Layer" fill-rule="evenodd" class="s3" d="m362.2 454.8c-0.1 0-17.7 0-17.8 0q-0.1 0-0.1-0.1-0.1 0-0.2-0.1 0-0.1 0-0.2l-3.2-13.2q0 0 0-0.1 0 0 0-0.1 0-0.1 0-0.1 0.1-0.1 0.1-0.1 0 0 0.1-0.1 0 0 0.1 0 0-0.1 0.1-0.1 0 0 0.1 0c0.1 0 17.1 0 17.1 0q0.1 0.1 0.2 0.1 0.1 0.1 0.1 0.1 0 0.1 0.1 0.2l3.8 13.2q0 0.1 0 0.1 0 0.1 0 0.1 0 0.1 0 0.1-0.1 0.1-0.1 0.1 0 0.1-0.1 0.1 0 0.1-0.1 0.1 0 0-0.1 0 0 0-0.1 0zm-17.2-1h16.6l-3.6-12.2h-16z"/>
		<path id="Layer" class="s4" d="m371.3 428.8h16.4l-4.3-11.5h-16z"/>
		<path id="Layer" fill-rule="evenodd" class="s3" d="m371.2 429.3q-0.1 0-0.2-0.1 0 0-0.1-0.1 0-0.1-0.1-0.1l-3.8-11.5q0-0.1 0-0.3 0-0.1 0.1-0.2 0-0.1 0.1-0.1 0.1-0.1 0.3-0.1c0 0 15.9 0 16 0q0.1 0.1 0.1 0.1 0.1 0 0.2 0.1 0 0.1 0 0.1l4.4 11.5q0.1 0.1 0.1 0.3 0 0.1-0.1 0.2-0.1 0.1-0.2 0.1-0.1 0.1-0.2 0.1c-0.1 0-16.6 0-16.6 0zm0.4-1h15.4l-4-10.5h-14.9z"/>
		<path id="Layer" class="s4" d="m225.4 406.6l1.1-11h-14.9l-1.5 11z"/>
		<path id="Layer" fill-rule="evenodd" class="s3" d="m225.4 407.1c-0.1 0-15.4 0-15.4 0q-0.1 0-0.1-0.1-0.1 0-0.1 0-0.1-0.1-0.1-0.1 0 0-0.1-0.1 0 0 0-0.1 0 0 0-0.1 0 0 0-0.1l1.5-11q0.1-0.1 0.1-0.2 0 0 0.1-0.1 0.1-0.1 0.2-0.1 0 0 0.1 0c0 0 14.9 0 15 0q0 0 0.1 0 0 0 0.1 0.1 0.1 0.1 0.1 0.1 0 0.1 0.1 0.1 0 0.1 0 0.1 0 0.1 0 0.1l-1 11q0 0.1-0.1 0.2 0 0.1-0.1 0.2-0.1 0-0.2 0.1-0.1 0-0.2 0zm-14.8-1h14.4l0.9-10h-13.8z"/>
		<path id="Layer" class="s4" d="m348.5 406.6l-3.2-11h-14.9l2.7 11z"/>
		<path id="Layer" fill-rule="evenodd" class="s3" d="m348.5 407.1c-0.1 0-15.5 0-15.6 0q-0.1-0.1-0.1-0.1-0.1-0.1-0.1-0.2-0.1 0-0.1-0.1l-2.6-11q-0.1-0.1-0.1-0.1 0-0.1 0.1-0.1 0-0.1 0-0.1 0-0.1 0.1-0.1 0-0.1 0-0.1 0.1-0.1 0.1-0.1 0.1 0 0.1 0 0.1 0 0.1 0c0.1 0 15 0 15.1 0q0 0 0.1 0.1 0.1 0 0.1 0.1 0.1 0.1 0.1 0.1l3.2 11q0 0.1 0 0.3-0.1 0.1-0.1 0.2-0.1 0.1-0.2 0.1-0.1 0.1-0.2 0.1zm-15-1h14.3l-2.9-10h-13.8z"/>
		<path id="Layer" class="s4" d="m210.1 406.6l1.5-11h-14.8l-2.1 11z"/>
		<path id="Layer" fill-rule="evenodd" class="s3" d="m210.1 407.1c-0.1 0-15.5 0-15.5 0q-0.1 0-0.1-0.1-0.1 0-0.1 0-0.1-0.1-0.1-0.1 0-0.1-0.1-0.1 0-0.1 0-0.1 0-0.1 0-0.1 0-0.1 0-0.1l2.1-11q0-0.1 0-0.2 0.1-0.1 0.2-0.1 0-0.1 0.1-0.1 0.1 0 0.2 0c0.1 0 14.9 0 14.9 0q0.1 0 0.1 0 0.1 0 0.1 0.1 0.1 0 0.1 0 0 0.1 0.1 0.1 0 0.1 0 0.1 0 0.1 0 0.1 0 0.1 0 0.1l-1.5 11q-0.1 0.1-0.1 0.2 0 0.1-0.1 0.2-0.1 0-0.2 0 0 0.1-0.1 0.1zm-14.8-1h14.3l1.5-10h-13.9z"/>
		<path id="Layer" class="s4" d="m256.2 406.6v-11h-14.9l-0.5 11z"/>
		<path id="Layer" fill-rule="evenodd" class="s3" d="m256.2 407.1c0 0-15.4 0-15.5 0q0 0-0.1-0.1 0 0-0.1 0 0 0 0-0.1-0.1 0-0.1-0.1 0 0-0.1 0 0-0.1 0-0.1 0-0.1 0-0.2l0.5-11q0 0 0.1-0.1 0-0.1 0.1-0.2 0.1-0.1 0.2-0.1 0 0 0.1 0c0.1 0 15 0 15.1 0q0.1 0 0.1 0.1 0.1 0.1 0.2 0.2 0 0.1 0 0.2v11q0 0.1-0.1 0.2 0 0.1-0.1 0.1 0 0.1-0.1 0.1-0.1 0.1-0.2 0.1zm-14.9-1h14.4v-10h-13.9z"/>
		<path id="Layer" class="s4" d="m194.7 406.6l2.1-11h-14.9l-2.6 11z"/>
		<path id="Layer" fill-rule="evenodd" class="s3" d="m194.7 407.1c0 0-15.4 0-15.5 0q-0.1 0-0.1-0.1-0.1 0-0.1 0-0.1-0.1-0.1-0.1 0-0.1 0-0.1-0.1-0.1-0.1-0.1 0-0.1 0-0.1 0-0.1 0-0.1l2.6-11q0.1-0.1 0.1-0.2 0.1-0.1 0.1-0.1 0.1-0.1 0.2-0.1 0 0 0.1 0c0 0 14.9 0 15 0q0 0 0.1 0 0 0.1 0.1 0.1 0 0 0.1 0.1 0 0 0 0.1 0.1 0 0.1 0.1 0 0 0 0.1 0 0 0 0.1l-2.1 11q0 0.1-0.1 0.1 0 0.1-0.1 0.2-0.1 0-0.1 0-0.1 0.1-0.2 0.1zm-14.8-1h14.4l1.9-10h-13.9z"/>
		<path id="Layer" class="s4" d="m179.3 406.6l2.6-11h-14.8l-3.2 11z"/>
		<path id="Layer" fill-rule="evenodd" class="s3" d="m179.3 407.1c0 0-15.4 0-15.5 0q0 0-0.1-0.1 0 0-0.1 0 0-0.1-0.1-0.1 0-0.1 0-0.1 0-0.1-0.1-0.1 0-0.1 0-0.1 0-0.1 0.1-0.2l3.1-11q0 0 0.1-0.1 0-0.1 0.1-0.1 0-0.1 0.1-0.1 0.1 0 0.2 0c0.1 0 14.9 0 14.9 0q0.1 0 0.1 0 0.1 0.1 0.1 0.1 0.1 0 0.1 0.1 0.1 0 0.1 0.1 0 0 0 0.1 0 0 0 0.1 0 0 0 0.1l-2.6 11q0 0.1-0.1 0.2 0 0-0.1 0.1 0 0-0.1 0.1-0.1 0-0.2 0zm-14.7-1h14.3l2.4-10h-13.9z"/>
		<path id="Layer" class="s4" d="m240.8 406.6l0.5-11h-14.8l-1.1 11z"/>
		<path id="Layer" fill-rule="evenodd" class="s3" d="m240.8 407.1c0 0-15.4 0-15.5 0q0 0-0.1-0.1 0 0-0.1 0 0-0.1 0-0.1-0.1 0-0.1-0.1 0 0 0-0.1 0 0-0.1-0.1 0 0 0-0.1l1.1-11q0-0.1 0-0.1 0.1-0.1 0.1-0.2 0.1-0.1 0.2-0.1 0.1 0 0.2 0c0.1 0 14.9 0 14.9 0q0.1 0 0.1 0 0.1 0 0.1 0.1 0.1 0 0.1 0 0 0.1 0.1 0.1 0 0.1 0 0.1 0 0.1 0 0.1 0 0.1 0 0.1l-0.5 11q0 0.1 0 0.2-0.1 0.1-0.1 0.1-0.1 0.1-0.2 0.1-0.1 0.1-0.2 0.1zm-14.8-1h14.3l0.5-10h-13.9z"/>
		<path id="Layer" class="s4" d="m333.1 406.6l-2.7-11h-14.8l2.1 11z"/>
		<path id="Layer" fill-rule="evenodd" class="s3" d="m333.1 407.1c-0.1 0-15.5 0-15.6 0q0-0.1-0.1-0.1-0.1-0.1-0.1-0.2-0.1 0-0.1-0.1l-2.1-11q0-0.1 0-0.2 0-0.2 0.1-0.2 0.1-0.1 0.2-0.2 0.1 0 0.2 0c0.1 0 14.9 0 15 0q0.1 0 0.2 0.1 0 0 0.1 0.1 0 0.1 0 0.1l2.7 11q0 0.2 0 0.3-0.1 0.1-0.1 0.2-0.1 0.1-0.2 0.1-0.1 0.1-0.2 0.1zm-15-1h14.3l-2.4-10h-13.8z"/>
		<path id="Layer" class="s4" d="m317.7 406.6l-2.1-11h-14.9l1.6 11z"/>
		<path id="Layer" fill-rule="evenodd" class="s3" d="m317.7 407.1h-15.4q-0.1 0-0.1-0.1-0.1 0-0.2 0-0.1-0.1-0.1-0.2 0-0.1-0.1-0.1l-1.5-11.1q-0.1 0-0.1-0.1 0 0 0.1-0.1 0 0 0-0.1 0 0 0.1-0.1 0.1-0.1 0.1-0.1 0.1 0 0.1 0 0.1 0 0.1 0c0.1 0 15 0 15.1 0q0 0 0.1 0.1 0.1 0.1 0.1 0.1 0.1 0.1 0.1 0.2l2.1 11q0 0 0 0.1 0 0.1 0 0.1 0 0.1 0 0.1-0.1 0.1-0.1 0.1 0 0-0.1 0.1 0 0-0.1 0 0 0.1-0.1 0.1 0 0-0.1 0zm-14.9-1h14.3l-1.9-10h-13.9z"/>
		<path id="Layer" class="s4" d="m286.9 406.6l-1-11h-14.9l0.6 11h15.4z"/>
		<path id="Layer" fill-rule="evenodd" class="s3" d="m271.6 407.1q-0.1 0-0.2-0.1-0.1 0-0.2-0.1 0 0-0.1-0.1 0-0.1 0-0.2l-0.6-11q0-0.1 0-0.1 0.1-0.1 0.1-0.1 0 0 0-0.1 0 0 0.1-0.1 0 0 0.1 0 0-0.1 0-0.1 0.1 0 0.1 0 0.1 0 0.1 0c0.1 0 15 0 15.1 0q0.1 0 0.1 0.1 0.1 0.1 0.1 0.1 0.1 0.1 0.1 0.2l1 11q0.1 0.1 0 0.2 0 0.1-0.1 0.2-0.1 0.1-0.1 0.1-0.1 0.1-0.3 0.1zm0.6-1h14.2l-1-10h-13.8z"/>
		<path id="Layer" class="s4" d="m324.4 441.1h-17.1-17-17-17.1-17-17-17.1-17-17-17.1l-3.7 13.2h17.6 17.7 17.7 17.6 17.7 17.6 17.7 17.7 17.6 17.7z"/>
		<path id="Layer" fill-rule="evenodd" class="s3" d="m326.9 454.8c-0.1 0-176.7 0-176.8 0q0 0-0.1 0 0 0-0.1-0.1 0 0 0-0.1-0.1 0-0.1-0.1 0 0 0-0.1 0 0 0-0.1 0 0 0-0.1l3.8-13.2q0-0.1 0-0.1 0.1-0.1 0.1-0.2 0.1 0 0.2 0 0.1-0.1 0.1-0.1h170.4q0 0 0.1 0.1 0.1 0 0.2 0.1 0 0 0.1 0.1 0 0.1 0.1 0.2l2.5 13.2q0 0 0 0.1 0 0 0 0.1 0 0-0.1 0.1 0 0 0 0.1 0 0-0.1 0.1 0 0-0.1 0 0 0-0.1 0 0 0-0.1 0zm-176-1h175.4l-2.4-12.2h-169.5z"/>
		<path id="Layer" class="s4" d="m302.3 406.6l-1.6-11h-14.8l1 11z"/>
		<path id="Layer" fill-rule="evenodd" class="s3" d="m302.3 407.1h-15.3q-0.1 0-0.2-0.1-0.1 0-0.1-0.1-0.1 0-0.1-0.1-0.1-0.1-0.1-0.2l-1.1-11q0 0 0-0.1 0.1 0 0.1-0.1 0 0 0-0.1 0 0 0.1-0.1 0.1-0.1 0.1-0.1 0.1 0 0.1 0 0.1 0 0.1 0c0.1 0 15 0 15.1 0q0.1 0 0.1 0.1 0.1 0.1 0.1 0.1 0.1 0.1 0.1 0.2l1.6 11q0 0.1 0 0.1 0 0.1 0 0.1-0.1 0.1-0.1 0.1 0 0.1 0 0.1-0.1 0-0.1 0.1-0.1 0-0.1 0-0.1 0.1-0.1 0.1-0.1 0-0.2 0zm-14.9-1h14.3l-1.4-10h-13.9z"/>
		<path id="Layer" class="s4" d="m63.3 477.6h378.5v5.3h-378.5z"/>
		<path id="Layer" fill-rule="evenodd" class="s4" d="m441.8 483.4c-0.1 0-378.6 0-378.7 0q-0.1 0-0.2-0.1 0-0.1-0.1-0.2 0-0.1 0-0.2c0-0.1 0-5.4 0-5.5q0.1-0.1 0.1-0.2 0.1-0.1 0.2-0.1 0.1 0 0.2 0c0.1 0 378.6 0 378.7 0q0.1 0 0.2 0.1 0 0.1 0.1 0.2 0 0.1 0 0.2c0 0.1 0 5.4 0 5.5q-0.1 0.1-0.1 0.2-0.1 0.1-0.2 0.1-0.1 0-0.2 0zm-378-1h377.5v-4.3h-377.5z"/>
		<path id="Layer" class="s4" d="m157.6 220.5h-16.5c-0.4 0-0.8-0.1-1.1-0.4-0.3-0.3-0.4-0.7-0.4-1.1 0-0.4 0.1-0.8 0.4-1 0.3-0.3 0.7-0.5 1.1-0.5h16.5c0.3 0 0.7 0.2 1 0.5 0.3 0.2 0.5 0.6 0.5 1 0 0.4-0.2 0.8-0.5 1.1-0.3 0.3-0.7 0.4-1 0.4z"/>
		<path id="Layer" class="s2" d="m203 229h-62c-0.4 0-0.8-0.2-1.1-0.4-0.2-0.3-0.4-0.7-0.4-1.1 0-0.4 0.2-0.8 0.4-1.1 0.3-0.2 0.7-0.4 1.1-0.4h62c0.4 0 0.8 0.2 1.1 0.4 0.2 0.3 0.4 0.7 0.4 1.1 0 0.4-0.2 0.8-0.4 1.1-0.3 0.2-0.7 0.4-1.1 0.4z"/>
		<path id="Layer" class="s2" d="m298.8 229h-61.9c-0.4 0-0.8-0.2-1.1-0.4-0.3-0.3-0.4-0.7-0.4-1.1 0-0.4 0.1-0.8 0.4-1.1 0.3-0.2 0.7-0.4 1.1-0.4h61.9c0.4 0 0.8 0.2 1.1 0.4 0.3 0.3 0.4 0.7 0.4 1.1 0 0.4-0.1 0.8-0.4 1.1-0.3 0.2-0.7 0.4-1.1 0.4z"/>
		<path id="Layer" class="s4" d="m231.5 229h-24.5c-0.4 0-0.8-0.2-1.1-0.4-0.2-0.3-0.4-0.7-0.4-1.1 0-0.4 0.2-0.8 0.4-1.1 0.3-0.2 0.7-0.4 1.1-0.4h24.5c0.4 0 0.8 0.2 1.1 0.4 0.3 0.3 0.4 0.7 0.4 1.1 0 0.4-0.1 0.8-0.4 1.1-0.3 0.2-0.7 0.4-1.1 0.4z"/>
		<path id="Layer" class="s4" d="m176.7 237.5h-35.6c-0.4 0-0.8-0.2-1.1-0.5-0.3-0.3-0.4-0.6-0.4-1 0-0.4 0.1-0.8 0.4-1.1 0.3-0.3 0.7-0.4 1.1-0.4h35.6c0.4 0 0.8 0.1 1.1 0.4 0.3 0.3 0.4 0.7 0.4 1.1 0 0.4-0.1 0.7-0.4 1-0.3 0.3-0.7 0.5-1.1 0.5z"/>
		<path id="Layer" class="s4" d="m216.8 237.5h-35.6c-0.4 0-0.8-0.2-1.1-0.5-0.3-0.3-0.4-0.6-0.4-1 0-0.4 0.1-0.8 0.4-1.1 0.3-0.3 0.7-0.4 1.1-0.4h35.6c0.4 0 0.8 0.1 1.1 0.4 0.3 0.3 0.4 0.7 0.4 1.1 0 0.4-0.1 0.7-0.4 1-0.3 0.3-0.7 0.5-1.1 0.5z"/>
		<path id="Layer" class="s4" d="m256.9 237.5h-35.6c-0.4 0-0.8-0.2-1.1-0.5-0.3-0.3-0.4-0.6-0.4-1 0-0.4 0.1-0.8 0.4-1.1 0.3-0.3 0.7-0.4 1.1-0.4h35.6c0.4 0 0.8 0.1 1.1 0.4 0.3 0.3 0.4 0.7 0.4 1.1 0 0.4-0.1 0.7-0.4 1-0.3 0.3-0.7 0.5-1.1 0.5z"/>
		<path id="Layer" class="s4" d="m276.5 237.5h-15.1c-0.4 0-0.8-0.2-1.1-0.5-0.3-0.3-0.4-0.6-0.4-1 0-0.4 0.1-0.8 0.4-1.1 0.3-0.3 0.7-0.4 1.1-0.4h15.1c0.4 0 0.8 0.1 1.1 0.4 0.3 0.3 0.4 0.7 0.4 1.1 0 0.4-0.1 0.7-0.4 1-0.3 0.3-0.7 0.5-1.1 0.5z"/>
		<path id="Layer" class="s4" d="m178.5 220.5h-16.5c-0.4 0-0.8-0.1-1.1-0.4-0.2-0.3-0.4-0.7-0.4-1.1 0-0.4 0.2-0.8 0.4-1 0.3-0.3 0.7-0.5 1.1-0.5h16.5c0.4 0 0.8 0.2 1.1 0.5 0.2 0.2 0.4 0.6 0.4 1 0 0.4-0.2 0.8-0.4 1.1-0.3 0.3-0.7 0.4-1.1 0.4z"/>
		<path id="Layer" class="s4" d="m276.5 220.5h-16.4c-0.4 0-0.8-0.1-1.1-0.4-0.3-0.3-0.4-0.7-0.4-1.1 0-0.4 0.1-0.8 0.4-1 0.3-0.3 0.7-0.5 1.1-0.5h16.4c0.4 0 0.8 0.2 1.1 0.5 0.3 0.2 0.4 0.6 0.4 1 0 0.4-0.1 0.8-0.4 1.1-0.3 0.3-0.7 0.4-1.1 0.4z"/>
		<path id="Layer" class="s2" d="m254.7 220.5h-16.5c-0.4 0-0.8-0.1-1.1-0.4-0.2-0.3-0.4-0.7-0.4-1.1 0-0.4 0.2-0.8 0.4-1 0.3-0.3 0.7-0.5 1.1-0.5h16.5c0.4 0 0.8 0.2 1.1 0.5 0.2 0.2 0.4 0.6 0.4 1 0 0.4-0.2 0.8-0.4 1.1-0.3 0.3-0.7 0.4-1.1 0.4z"/>
		<path id="Layer" class="s4" d="m231.1 220.5h-48.1c-0.4 0-0.8-0.1-1.1-0.4-0.2-0.3-0.4-0.7-0.4-1.1 0-0.4 0.2-0.8 0.4-1 0.3-0.3 0.7-0.5 1.1-0.5h48.1c0.4 0 0.8 0.2 1.1 0.5 0.3 0.2 0.4 0.6 0.4 1 0 0.4-0.1 0.8-0.4 1.1-0.3 0.3-0.7 0.4-1.1 0.4z"/>
		<path id="Layer" class="s4" d="m157.6 272.2h-16.5c-0.4 0-0.8-0.1-1.1-0.4-0.3-0.3-0.4-0.7-0.4-1.1 0-0.4 0.1-0.8 0.4-1 0.3-0.3 0.7-0.5 1.1-0.5h16.5c0.3 0 0.7 0.2 1 0.5 0.3 0.2 0.5 0.6 0.5 1 0 0.4-0.2 0.8-0.5 1.1-0.3 0.3-0.7 0.4-1 0.4z"/>
		<path id="Layer" class="s2" d="m203 280.7h-62c-0.4 0-0.8-0.2-1.1-0.4-0.2-0.3-0.4-0.7-0.4-1.1 0-0.4 0.2-0.8 0.4-1.1 0.3-0.3 0.7-0.4 1.1-0.4h62c0.4 0 0.8 0.1 1.1 0.4 0.2 0.3 0.4 0.7 0.4 1.1 0 0.4-0.2 0.8-0.4 1.1-0.3 0.2-0.7 0.4-1.1 0.4z"/>
		<path id="Layer" class="s4" d="m298.8 280.7h-61.9c-0.4 0-0.8-0.2-1.1-0.4-0.3-0.3-0.4-0.7-0.4-1.1 0-0.4 0.1-0.8 0.4-1.1 0.3-0.3 0.7-0.4 1.1-0.4h61.9c0.4 0 0.8 0.1 1.1 0.4 0.3 0.3 0.4 0.7 0.4 1.1 0 0.4-0.1 0.8-0.4 1.1-0.3 0.2-0.7 0.4-1.1 0.4z"/>
		<path id="Layer" class="s4" d="m231.5 280.7h-24.5c-0.4 0-0.8-0.2-1.1-0.4-0.2-0.3-0.4-0.7-0.4-1.1 0-0.4 0.2-0.8 0.4-1.1 0.3-0.3 0.7-0.4 1.1-0.4h24.5c0.4 0 0.8 0.1 1.1 0.4 0.3 0.3 0.4 0.7 0.4 1.1 0 0.4-0.1 0.8-0.4 1.1-0.3 0.2-0.7 0.4-1.1 0.4z"/>
		<path id="Layer" class="s4" d="m176.7 289.2h-35.6c-0.4 0-0.8-0.2-1.1-0.5-0.3-0.3-0.4-0.6-0.4-1 0-0.4 0.1-0.8 0.4-1.1 0.3-0.3 0.7-0.4 1.1-0.4h35.6c0.4 0 0.8 0.1 1.1 0.4 0.3 0.3 0.4 0.7 0.4 1.1 0 0.4-0.1 0.7-0.4 1-0.3 0.3-0.7 0.5-1.1 0.5z"/>
		<path id="Layer" class="s4" d="m216.8 289.2h-35.6c-0.4 0-0.8-0.2-1.1-0.5-0.3-0.3-0.4-0.6-0.4-1 0-0.4 0.1-0.8 0.4-1.1 0.3-0.3 0.7-0.4 1.1-0.4h35.6c0.4 0 0.8 0.1 1.1 0.4 0.3 0.3 0.4 0.7 0.4 1.1 0 0.4-0.1 0.7-0.4 1-0.3 0.3-0.7 0.5-1.1 0.5z"/>
		<path id="Layer" class="s2" d="m256.9 289.2h-35.6c-0.4 0-0.8-0.2-1.1-0.5-0.3-0.3-0.4-0.6-0.4-1 0-0.4 0.1-0.8 0.4-1.1 0.3-0.3 0.7-0.4 1.1-0.4h35.6c0.4 0 0.8 0.1 1.1 0.4 0.3 0.3 0.4 0.7 0.4 1.1 0 0.4-0.1 0.7-0.4 1-0.3 0.3-0.7 0.5-1.1 0.5z"/>
		<path id="Layer" class="s4" d="m276.5 289.2h-15.1c-0.4 0-0.8-0.2-1.1-0.5-0.3-0.3-0.4-0.6-0.4-1 0-0.4 0.1-0.8 0.4-1.1 0.3-0.3 0.7-0.4 1.1-0.4h15.1c0.4 0 0.8 0.1 1.1 0.4 0.3 0.3 0.4 0.7 0.4 1.1 0 0.4-0.1 0.7-0.4 1-0.3 0.3-0.7 0.5-1.1 0.5z"/>
		<path id="Layer" class="s4" d="m178.5 272.2h-16.5c-0.4 0-0.8-0.1-1.1-0.4-0.2-0.3-0.4-0.7-0.4-1.1 0-0.4 0.2-0.8 0.4-1 0.3-0.3 0.7-0.5 1.1-0.5h16.5c0.4 0 0.8 0.2 1.1 0.5 0.2 0.2 0.4 0.6 0.4 1 0 0.4-0.2 0.8-0.4 1.1-0.3 0.3-0.7 0.4-1.1 0.4z"/>
		<path id="Layer" class="s4" d="m276.5 272.2h-16.4c-0.4 0-0.8-0.1-1.1-0.4-0.3-0.3-0.4-0.7-0.4-1.1 0-0.4 0.1-0.8 0.4-1 0.3-0.3 0.7-0.5 1.1-0.5h16.4c0.4 0 0.8 0.2 1.1 0.5 0.3 0.2 0.4 0.6 0.4 1 0 0.4-0.1 0.8-0.4 1.1-0.3 0.3-0.7 0.4-1.1 0.4z"/>
		<path id="Layer" class="s2" d="m254.7 272.2h-16.5c-0.4 0-0.8-0.1-1.1-0.4-0.2-0.3-0.4-0.7-0.4-1.1 0-0.4 0.2-0.8 0.4-1 0.3-0.3 0.7-0.5 1.1-0.5h16.5c0.4 0 0.8 0.2 1.1 0.5 0.2 0.2 0.4 0.6 0.4 1 0 0.4-0.2 0.8-0.4 1.1-0.3 0.3-0.7 0.4-1.1 0.4z"/>
		<path id="Layer" class="s4" d="m231.1 272.2h-48.1c-0.4 0-0.8-0.1-1.1-0.4-0.2-0.3-0.4-0.7-0.4-1.1 0-0.4 0.2-0.8 0.4-1 0.3-0.3 0.7-0.5 1.1-0.5h48.1c0.4 0 0.8 0.2 1.1 0.5 0.3 0.2 0.4 0.6 0.4 1 0 0.4-0.1 0.8-0.4 1.1-0.3 0.3-0.7 0.4-1.1 0.4z"/>
		<path id="Layer" class="s4" d="m157.6 348.4h-16.5c-0.4 0-0.8-0.1-1.1-0.4-0.3-0.3-0.4-0.7-0.4-1.1 0-0.4 0.1-0.7 0.4-1 0.3-0.3 0.7-0.5 1.1-0.5h16.5c0.3 0 0.7 0.2 1 0.5 0.3 0.3 0.5 0.6 0.5 1 0 0.4-0.2 0.8-0.5 1.1-0.3 0.3-0.7 0.4-1 0.4z"/>
		<path id="Layer" class="s2" d="m203 356.9h-62c-0.4 0-0.8-0.2-1.1-0.4-0.2-0.3-0.4-0.7-0.4-1.1 0-0.4 0.2-0.8 0.4-1.1 0.3-0.2 0.7-0.4 1.1-0.4h62c0.4 0 0.8 0.2 1.1 0.4 0.2 0.3 0.4 0.7 0.4 1.1 0 0.4-0.2 0.8-0.4 1.1-0.3 0.2-0.7 0.4-1.1 0.4z"/>
		<path id="Layer" class="s5" d="m298.8 356.9h-61.9c-0.4 0-0.8-0.2-1.1-0.4-0.3-0.3-0.4-0.7-0.4-1.1 0-0.4 0.1-0.8 0.4-1.1 0.3-0.2 0.7-0.4 1.1-0.4h61.9c0.4 0 0.8 0.2 1.1 0.4 0.3 0.3 0.4 0.7 0.4 1.1 0 0.4-0.1 0.8-0.4 1.1-0.3 0.2-0.7 0.4-1.1 0.4z"/>
		<path id="Layer" class="s4" d="m231.5 356.9h-24.5c-0.4 0-0.8-0.2-1.1-0.4-0.2-0.3-0.4-0.7-0.4-1.1 0-0.4 0.2-0.8 0.4-1.1 0.3-0.2 0.7-0.4 1.1-0.4h24.5c0.4 0 0.8 0.2 1.1 0.4 0.3 0.3 0.4 0.7 0.4 1.1 0 0.4-0.1 0.8-0.4 1.1-0.3 0.2-0.7 0.4-1.1 0.4z"/>
		<path id="Layer" class="s4" d="m176.7 365.4h-35.6c-0.4 0-0.8-0.2-1.1-0.5-0.3-0.3-0.4-0.6-0.4-1 0-0.4 0.1-0.8 0.4-1.1 0.3-0.3 0.7-0.4 1.1-0.4h35.6c0.4 0 0.8 0.1 1.1 0.4 0.3 0.3 0.4 0.7 0.4 1.1 0 0.4-0.1 0.7-0.4 1-0.3 0.3-0.7 0.5-1.1 0.5z"/>
		<path id="Layer" class="s4" d="m216.8 365.4h-35.6c-0.4 0-0.8-0.2-1.1-0.5-0.3-0.3-0.4-0.6-0.4-1 0-0.4 0.1-0.8 0.4-1.1 0.3-0.3 0.7-0.4 1.1-0.4h35.6c0.4 0 0.8 0.1 1.1 0.4 0.3 0.3 0.4 0.7 0.4 1.1 0 0.4-0.1 0.7-0.4 1-0.3 0.3-0.7 0.5-1.1 0.5z"/>
		<path id="Layer" class="s2" d="m256.9 365.4h-35.6c-0.4 0-0.8-0.2-1.1-0.5-0.3-0.3-0.4-0.6-0.4-1 0-0.4 0.1-0.8 0.4-1.1 0.3-0.3 0.7-0.4 1.1-0.4h35.6c0.4 0 0.8 0.1 1.1 0.4 0.3 0.3 0.4 0.7 0.4 1.1 0 0.4-0.1 0.7-0.4 1-0.3 0.3-0.7 0.5-1.1 0.5z"/>
		<path id="Layer" class="s4" d="m276.5 365.4h-15.1c-0.4 0-0.8-0.2-1.1-0.5-0.3-0.3-0.4-0.6-0.4-1 0-0.4 0.1-0.8 0.4-1.1 0.3-0.3 0.7-0.4 1.1-0.4h15.1c0.4 0 0.8 0.1 1.1 0.4 0.3 0.3 0.4 0.7 0.4 1.1 0 0.4-0.1 0.7-0.4 1-0.3 0.3-0.7 0.5-1.1 0.5z"/>
		<path id="Layer" class="s4" d="m178.5 348.4h-16.5c-0.4 0-0.8-0.1-1.1-0.4-0.2-0.3-0.4-0.7-0.4-1.1 0-0.4 0.2-0.7 0.4-1 0.3-0.3 0.7-0.5 1.1-0.5h16.5c0.4 0 0.8 0.2 1.1 0.5 0.2 0.3 0.4 0.6 0.4 1 0 0.4-0.2 0.8-0.4 1.1-0.3 0.3-0.7 0.4-1.1 0.4z"/>
		<path id="Layer" class="s4" d="m276.5 348.4h-16.4c-0.4 0-0.8-0.1-1.1-0.4-0.3-0.3-0.4-0.7-0.4-1.1 0-0.4 0.1-0.7 0.4-1 0.3-0.3 0.7-0.5 1.1-0.5h16.4c0.4 0 0.8 0.2 1.1 0.5 0.3 0.3 0.4 0.6 0.4 1 0 0.4-0.1 0.8-0.4 1.1-0.3 0.3-0.7 0.4-1.1 0.4z"/>
		<path id="Layer" class="s2" d="m254.7 348.4h-16.5c-0.4 0-0.8-0.1-1.1-0.4-0.2-0.3-0.4-0.7-0.4-1.1 0-0.4 0.2-0.7 0.4-1 0.3-0.3 0.7-0.5 1.1-0.5h16.5c0.4 0 0.8 0.2 1.1 0.5 0.2 0.3 0.4 0.6 0.4 1 0 0.4-0.2 0.8-0.4 1.1-0.3 0.3-0.7 0.4-1.1 0.4z"/>
		<path id="Layer" class="s4" d="m231.1 348.4h-48.1c-0.4 0-0.8-0.1-1.1-0.4-0.2-0.3-0.4-0.7-0.4-1.1 0-0.4 0.2-0.7 0.4-1 0.3-0.3 0.7-0.5 1.1-0.5h48.1c0.4 0 0.8 0.2 1.1 0.5 0.3 0.3 0.4 0.6 0.4 1 0 0.4-0.1 0.8-0.4 1.1-0.3 0.3-0.7 0.4-1.1 0.4z"/>
		<path id="Layer" class="s4" d="m250.3 246.4h-16.5c-0.4 0-0.8-0.2-1.1-0.5-0.3-0.3-0.4-0.6-0.4-1 0-0.4 0.1-0.8 0.4-1.1 0.3-0.3 0.7-0.4 1.1-0.4h16.4c0.4 0 0.8 0.1 1.1 0.4 0.3 0.3 0.4 0.7 0.4 1.1 0 0.4-0.1 0.7-0.4 1-0.3 0.3-0.7 0.5-1.1 0.5z"/>
		<path id="Layer" class="s4" d="m228.4 246.4h-16.5c-0.4 0-0.8-0.2-1-0.5-0.3-0.3-0.5-0.6-0.5-1 0-0.4 0.2-0.8 0.5-1.1 0.2-0.3 0.6-0.4 1-0.4h16.5c0.4 0 0.8 0.1 1.1 0.4 0.3 0.3 0.4 0.7 0.4 1.1 0 0.4-0.1 0.7-0.4 1-0.3 0.3-0.7 0.5-1.1 0.5z"/>
		<path id="Layer" class="s5" d="m204.8 246.4h-48.2c-0.3 0-0.7-0.2-1-0.5-0.3-0.3-0.5-0.6-0.5-1 0-0.4 0.2-0.8 0.5-1.1 0.3-0.3 0.7-0.4 1-0.4h48.2c0.4 0 0.8 0.1 1.1 0.4 0.2 0.3 0.4 0.7 0.4 1.1 0 0.4-0.2 0.7-0.4 1-0.3 0.3-0.7 0.5-1.1 0.5z"/>
		<path id="Layer" class="s4" d="m250.3 261.5h-16.5c-0.4 0-0.8-0.1-1.1-0.4-0.3-0.3-0.4-0.7-0.4-1.1 0-0.4 0.1-0.8 0.4-1 0.3-0.3 0.7-0.5 1.1-0.5h16.4c0.4 0 0.8 0.2 1.1 0.5 0.3 0.2 0.4 0.6 0.4 1 0 0.4-0.1 0.8-0.4 1.1-0.3 0.3-0.7 0.4-1.1 0.4z"/>
		<path id="Layer" class="s5" d="m228.4 261.5h-16.5c-0.4 0-0.8-0.1-1-0.4-0.3-0.3-0.5-0.7-0.5-1.1 0-0.4 0.2-0.8 0.5-1 0.2-0.3 0.6-0.5 1-0.5h16.5c0.4 0 0.8 0.2 1.1 0.5 0.3 0.2 0.4 0.6 0.4 1 0 0.4-0.1 0.8-0.4 1.1-0.3 0.3-0.7 0.4-1.1 0.4z"/>
		<path id="Layer" class="s2" d="m204.8 261.5h-48.2c-0.3 0-0.7-0.1-1-0.4-0.3-0.3-0.5-0.7-0.5-1.1 0-0.4 0.2-0.8 0.5-1 0.3-0.3 0.7-0.5 1-0.5h48.2c0.4 0 0.8 0.2 1.1 0.5 0.2 0.2 0.4 0.6 0.4 1 0 0.4-0.2 0.8-0.4 1.1-0.3 0.3-0.7 0.4-1.1 0.4z"/>
		<path id="Layer" class="s4" d="m173.1 254h-16.4c-0.4 0-0.8-0.2-1.1-0.4-0.3-0.3-0.4-0.7-0.4-1.1 0-0.4 0.1-0.8 0.4-1.1 0.3-0.2 0.7-0.4 1.1-0.4h16.4c0.4 0 0.8 0.2 1.1 0.4 0.3 0.3 0.4 0.7 0.4 1.1 0 0.4-0.1 0.8-0.4 1.1-0.3 0.2-0.7 0.4-1.1 0.4z"/>
		<path id="Layer" class="s4" d="m195 254h-16.5c-0.4 0-0.8-0.2-1.1-0.4-0.3-0.3-0.4-0.7-0.4-1.1 0-0.4 0.1-0.8 0.4-1.1 0.3-0.2 0.7-0.4 1.1-0.4h16.5c0.4 0 0.8 0.2 1.1 0.4 0.2 0.3 0.4 0.7 0.4 1.1 0 0.4-0.2 0.8-0.4 1.1-0.3 0.2-0.7 0.4-1.1 0.4z"/>
		<path id="Layer" class="s2" d="m250.3 254h-48.2c-0.4 0-0.8-0.2-1.1-0.4-0.2-0.3-0.4-0.7-0.4-1.1 0-0.4 0.2-0.8 0.4-1.1 0.3-0.2 0.7-0.4 1.1-0.4h48.1c0.4 0 0.8 0.2 1.1 0.4 0.3 0.3 0.4 0.7 0.4 1.1 0 0.4-0.1 0.8-0.4 1.1-0.3 0.2-0.7 0.4-1.1 0.4z"/>
		<path id="Layer" class="s4" d="m250.3 299.4h-16.5c-0.4 0-0.8-0.1-1.1-0.4-0.3-0.3-0.4-0.7-0.4-1.1 0-0.4 0.1-0.8 0.4-1.1 0.3-0.2 0.7-0.4 1.1-0.4h16.4c0.4 0 0.8 0.2 1.1 0.4 0.3 0.3 0.4 0.7 0.4 1.1 0 0.4-0.1 0.8-0.4 1.1-0.3 0.3-0.7 0.4-1.1 0.4z"/>
		<path id="Layer" class="s4" d="m228.4 299.4h-16.5c-0.4 0-0.8-0.1-1-0.4-0.3-0.3-0.5-0.7-0.5-1.1 0-0.4 0.2-0.8 0.5-1.1 0.2-0.2 0.6-0.4 1-0.4h16.5c0.4 0 0.8 0.2 1.1 0.4 0.3 0.3 0.4 0.7 0.4 1.1 0 0.4-0.1 0.8-0.4 1.1-0.3 0.3-0.7 0.4-1.1 0.4z"/>
		<path id="Layer" class="s4" d="m204.8 299.4h-48.2c-0.3 0-0.7-0.1-1-0.4-0.3-0.3-0.5-0.7-0.5-1.1 0-0.4 0.2-0.8 0.5-1.1 0.3-0.2 0.7-0.4 1-0.4h48.2c0.4 0 0.8 0.2 1.1 0.4 0.2 0.3 0.4 0.7 0.4 1.1 0 0.4-0.2 0.8-0.4 1.1-0.3 0.3-0.7 0.4-1.1 0.4z"/>
		<path id="Layer" class="s4" d="m250.3 314.6h-16.5c-0.4 0-0.8-0.2-1.1-0.5-0.3-0.3-0.4-0.6-0.4-1 0-0.4 0.1-0.8 0.4-1.1 0.3-0.3 0.7-0.4 1.1-0.4h16.4c0.4 0 0.8 0.1 1.1 0.4 0.3 0.3 0.4 0.7 0.4 1.1 0 0.4-0.1 0.7-0.4 1-0.3 0.3-0.7 0.5-1.1 0.5z"/>
		<path id="Layer" class="s4" d="m228.4 314.6h-16.5c-0.4 0-0.8-0.2-1-0.5-0.3-0.3-0.5-0.6-0.5-1 0-0.4 0.2-0.8 0.5-1.1 0.2-0.3 0.6-0.4 1-0.4h16.5c0.4 0 0.8 0.1 1.1 0.4 0.3 0.3 0.4 0.7 0.4 1.1 0 0.4-0.1 0.7-0.4 1-0.3 0.3-0.7 0.5-1.1 0.5z"/>
		<path id="Layer" class="s2" d="m204.8 314.6h-48.2c-0.3 0-0.7-0.2-1-0.5-0.3-0.3-0.5-0.6-0.5-1 0-0.4 0.2-0.8 0.5-1.1 0.3-0.3 0.7-0.4 1-0.4h48.2c0.4 0 0.8 0.1 1.1 0.4 0.2 0.3 0.4 0.7 0.4 1.1 0 0.4-0.2 0.7-0.4 1-0.3 0.3-0.7 0.5-1.1 0.5z"/>
		<path id="Layer" class="s4" d="m173.1 307h-16.4c-0.4 0-0.8-0.2-1.1-0.4-0.3-0.3-0.4-0.7-0.4-1.1 0-0.4 0.1-0.8 0.4-1.1 0.3-0.2 0.7-0.4 1.1-0.4h16.4c0.4 0 0.8 0.2 1.1 0.4 0.3 0.3 0.4 0.7 0.4 1.1 0 0.4-0.1 0.8-0.4 1.1-0.3 0.2-0.7 0.4-1.1 0.4z"/>
		<path id="Layer" class="s5" d="m195 307h-16.5c-0.4 0-0.8-0.2-1.1-0.4-0.3-0.3-0.4-0.7-0.4-1.1 0-0.4 0.1-0.8 0.4-1.1 0.3-0.2 0.7-0.4 1.1-0.4h16.5c0.4 0 0.8 0.2 1.1 0.4 0.2 0.3 0.4 0.7 0.4 1.1 0 0.4-0.2 0.8-0.4 1.1-0.3 0.2-0.7 0.4-1.1 0.4z"/>
		<path id="Layer" class="s2" d="m250.3 307h-48.2c-0.4 0-0.8-0.2-1.1-0.4-0.2-0.3-0.4-0.7-0.4-1.1 0-0.4 0.2-0.8 0.4-1.1 0.3-0.2 0.7-0.4 1.1-0.4h48.1c0.4 0 0.8 0.2 1.1 0.4 0.3 0.3 0.4 0.7 0.4 1.1 0 0.4-0.1 0.8-0.4 1.1-0.3 0.2-0.7 0.4-1.1 0.4z"/>
		<path id="Layer" class="s4" d="m173.1 323.5h-16.4c-0.4 0-0.8-0.2-1.1-0.5-0.3-0.2-0.4-0.6-0.4-1 0-0.4 0.1-0.8 0.4-1.1 0.3-0.3 0.7-0.4 1.1-0.4h16.4c0.4 0 0.8 0.1 1.1 0.4 0.3 0.3 0.4 0.7 0.4 1.1 0 0.4-0.1 0.8-0.4 1-0.3 0.3-0.7 0.5-1.1 0.5z"/>
		<path id="Layer" class="s4" d="m195 323.5h-16.5c-0.4 0-0.8-0.2-1.1-0.5-0.3-0.2-0.4-0.6-0.4-1 0-0.4 0.1-0.8 0.4-1.1 0.3-0.3 0.7-0.4 1.1-0.4h16.5c0.4 0 0.8 0.1 1.1 0.4 0.2 0.3 0.4 0.7 0.4 1.1 0 0.4-0.2 0.8-0.4 1-0.3 0.3-0.7 0.5-1.1 0.5z"/>
		<path id="Layer" class="s2" d="m250.3 323.5h-48.2c-0.4 0-0.8-0.2-1.1-0.5-0.2-0.2-0.4-0.6-0.4-1 0-0.4 0.2-0.8 0.4-1.1 0.3-0.3 0.7-0.4 1.1-0.4h48.1c0.4 0 0.8 0.1 1.1 0.4 0.3 0.3 0.4 0.7 0.4 1.1 0 0.4-0.1 0.8-0.4 1-0.3 0.3-0.7 0.5-1.1 0.5z"/>
		<path id="Layer" class="s4" d="m173.1 338.6h-16.4c-0.4 0-0.8-0.1-1.1-0.4-0.3-0.3-0.4-0.7-0.4-1.1 0-0.4 0.1-0.7 0.4-1 0.3-0.3 0.7-0.5 1.1-0.5h16.4c0.4 0 0.8 0.2 1.1 0.5 0.3 0.3 0.4 0.6 0.4 1 0 0.4-0.1 0.8-0.4 1.1-0.3 0.3-0.7 0.4-1.1 0.4z"/>
		<path id="Layer" class="s4" d="m195 338.6h-16.5c-0.4 0-0.8-0.1-1.1-0.4-0.3-0.3-0.4-0.7-0.4-1.1 0-0.4 0.1-0.7 0.4-1 0.3-0.3 0.7-0.5 1.1-0.5h16.5c0.4 0 0.8 0.2 1.1 0.5 0.2 0.3 0.4 0.6 0.4 1 0 0.4-0.2 0.8-0.4 1.1-0.3 0.3-0.7 0.4-1.1 0.4z"/>
		<path id="Layer" class="s2" d="m250.3 338.6h-48.2c-0.4 0-0.8-0.1-1.1-0.4-0.2-0.3-0.4-0.7-0.4-1.1 0-0.4 0.2-0.7 0.4-1 0.3-0.3 0.7-0.5 1.1-0.5h48.1c0.4 0 0.8 0.2 1.1 0.5 0.3 0.3 0.4 0.6 0.4 1 0 0.4-0.1 0.8-0.4 1.1-0.3 0.3-0.7 0.4-1.1 0.4z"/>
		<path id="Layer" class="s4" d="m250.3 331.1h-16.5c-0.4 0-0.8-0.2-1.1-0.5-0.3-0.3-0.4-0.7-0.4-1 0-0.4 0.1-0.8 0.4-1.1 0.3-0.3 0.7-0.4 1.1-0.4h16.4c0.4 0 0.8 0.1 1.1 0.4 0.3 0.3 0.4 0.7 0.4 1.1 0 0.3-0.1 0.7-0.4 1-0.3 0.3-0.7 0.5-1.1 0.5z"/>
		<path id="Layer" class="s4" d="m228.4 331.1h-16.5c-0.4 0-0.8-0.2-1-0.5-0.3-0.3-0.5-0.7-0.5-1 0-0.4 0.2-0.8 0.5-1.1 0.2-0.3 0.6-0.4 1-0.4h16.5c0.4 0 0.8 0.1 1.1 0.4 0.3 0.3 0.4 0.7 0.4 1.1 0 0.3-0.1 0.7-0.4 1-0.3 0.3-0.7 0.5-1.1 0.5z"/>
		<path id="Layer" class="s2" d="m204.8 331.1h-48.2c-0.3 0-0.7-0.2-1-0.5-0.3-0.3-0.5-0.7-0.5-1 0-0.4 0.2-0.8 0.5-1.1 0.3-0.3 0.7-0.4 1-0.4h48.2c0.4 0 0.8 0.1 1.1 0.4 0.2 0.3 0.4 0.7 0.4 1.1 0 0.3-0.2 0.7-0.4 1-0.3 0.3-0.7 0.5-1.1 0.5z"/>
		<path id="Layer" class="s4" d="m129.7 216.1h5.2v5.2h-5.2z"/>
		<path id="Layer" class="s4" d="m129.7 224.6h5.2v5.2h-5.2z"/>
		<path id="Layer" class="s4" d="m129.7 233.2h5.2v5.2h-5.2z"/>
		<path id="Layer" class="s4" d="m129.7 241.7h5.2v5.2h-5.2z"/>
		<path id="Layer" class="s4" d="m129.7 250.3l5.2-0.1v5.2h-5.2z"/>
		<path id="Layer" class="s4" d="m129.7 258.8h5.2v5.2h-5.2z"/>
		<path id="Layer" class="s4" d="m129.7 267.3h5.2v5.2h-5.2z"/>
		<path id="Layer" class="s4" d="m129.7 275.9h5.2v5.2h-5.2z"/>
		<path id="Layer" class="s4" d="m129.7 284.4h5.2v5.2h-5.2z"/>
		<path id="Layer" class="s4" d="m129.7 293h5.2v5.2h-5.2z"/>
		<path id="Layer" class="s4" d="m129.7 301.5h5.2v5.2h-5.2z"/>
		<path id="Layer" class="s4" d="m129.7 310.1h5.2v5.2h-5.2z"/>
		<path id="Layer" class="s4" d="m129.7 318.6h5.2v5.2h-5.2z"/>
		<path id="Layer" class="s4" d="m129.7 327.1h5.2v5.2h-5.2z"/>
		<path id="Layer" class="s4" d="m129.7 335.7h5.2v5.2h-5.2z"/>
		<path id="Layer" class="s4" d="m129.7 344.2h5.2v5.2h-5.2z"/>
		<path id="Layer" class="s4" d="m129.7 352.8h5.2v5.2h-5.2z"/>
		<path id="Layer" class="s4" d="m129.7 361.3h5.2v5.2h-5.2z"/>
	</g>
	<g id="freepik--speech-bubble--inject-15">
		<path id="Layer" class="s5" d="m380 122.7c-11.4 0-22.6 3.4-32 9.8-9.5 6.4-16.8 15.5-21.1 26.1-4.2 10.5-5.2 22.2-2.8 33.3 2.4 11.2 8.1 21.4 16.4 29.3l-8.2 15.2 20-6.5c15.5 8.6 34.1 9.5 50.3 2.5 16.3-7 28.4-21.1 32.8-38.3 4.4-17.1 0.7-35.3-10.2-49.3-10.8-14-27.5-22.1-45.2-22.1z"/>
		<path id="Layer" fill-rule="evenodd" class="s4" d="m380 237.6q-3.6-0.1-7.2-0.5-3.6-0.5-7.1-1.4-3.5-0.9-6.9-2.2-3.4-1.3-6.5-3.1l-19.8 6.4q-0.1 0.1-0.2 0.1 0 0-0.1-0.1-0.1 0-0.1 0-0.1-0.1-0.2-0.1 0-0.1 0-0.1-0.1-0.1-0.1-0.2 0-0.1 0-0.1 0.1-0.1 0.1-0.2l8-14.8c-13.9-13.5-20.1-33-16.6-52 3.6-19.1 16.4-35 34.2-42.6 17.9-7.5 38.3-5.6 54.4 5 16.1 10.7 25.8 28.8 25.8 48.1 0 7.6-1.5 15.1-4.4 22.1-2.9 7-7.1 13.4-12.5 18.7-5.4 5.4-11.7 9.6-18.7 12.6-7 2.9-14.5 4.3-22.1 4.4zm-27.7-8.2q0 0 0.1 0 0.1 0 0.1 0 0 0 0 0.1c22.4 12.3 50.3 8.2 68.1-10.1 17.9-18.3 21.2-46.3 8.3-68.3-13-22.1-39.1-32.7-63.8-25.9-24.7 6.7-41.8 29.1-41.8 54.7q0 5.7 1.1 11.3 1.2 5.7 3.4 11 2.3 5.2 5.6 10 3.3 4.7 7.4 8.7 0.1 0 0.1 0.1 0.1 0.1 0.1 0.1 0 0.1 0 0.2 0 0.1-0.1 0.2l-7.5 14.1 18.7-6.1z"/>
		<path id="Layer" class="s3" d="m377.3 118.6c-11.4 0-22.6 3.4-32 9.8-9.5 6.4-16.8 15.5-21.1 26.1-4.2 10.6-5.2 22.2-2.8 33.4 2.4 11.1 8.1 21.3 16.4 29.2l-8.1 15.2 20-6.5c15.4 8.6 34 9.5 50.3 2.5 16.2-7 28.3-21.1 32.7-38.2 4.4-17.2 0.7-35.4-10.2-49.4-10.8-14-27.5-22.1-45.2-22.1z"/>
		<path id="Layer" fill-rule="evenodd" class="s4" d="m377.3 233.5q-3.6 0-7.2-0.5-3.6-0.4-7.1-1.3-3.5-0.9-6.9-2.3-3.4-1.3-6.5-3l-19.8 6.4q-0.1 0-0.1 0-0.1 0-0.2 0-0.1-0.1-0.1-0.1-0.1 0-0.1-0.1-0.1-0.1-0.1-0.1 0-0.1 0-0.2-0.1 0 0-0.1 0-0.1 0-0.2l8-14.8c-19.8-19.2-23.2-49.8-8.2-72.9 15.1-23.2 44.5-32.4 70-22 25.6 10.4 40.3 37.4 35 64.5-5.3 27.1-29 46.7-56.7 46.7zm-27.5-8.2q0.1 0.1 0.1 0.1c26.2 14.5 59.2 6.2 75.4-19 16.2-25.2 10-58.7-14.1-76.4-24.1-17.8-57.9-13.8-77.2 9.1-19.3 22.9-17.5 56.9 4.2 77.6q0 0.1 0.1 0.2 0 0 0 0.1 0 0.1 0 0.2 0 0 0 0.1l-7.6 14.1 18.8-6.1c0.1 0 0.3 0 0.3 0z"/>
		<g id="freepik--Code--inject-15">
			<path id="Layer" class="s0" d="m358.2 199.3l-22-15.5v-8.2l22-15.7v8.3l-15.8 11.5 15.8 11.4z"/>
			<path id="Layer" class="s0" d="m364.9 209.1l16.7-62.2h7.2l-16.9 62.2z"/>
			<path id="Layer" class="s0" d="m395.4 199.3v-8.2l15.9-11.5-15.9-11.4v-8.3l22.1 15.6v8.2z"/>
			<path id="Layer" class="s4" d="m360.9 195.9l-22-15.5v-8.2l22-15.7v8.3l-15.8 11.5 15.8 11.4z"/>
			<path id="Layer" class="s4" d="m367.6 205.7l16.7-62.2h7.2l-16.9 62.2z"/>
			<path id="Layer" class="s4" d="m398.1 195.9v-8.2l15.9-11.5-15.9-11.4v-8.3l22.1 15.6v8.2z"/>
		</g>
	</g>
	<g id="freepik--hand-2--inject-15">
		<path id="Layer" class="s4" d="m333.8 483.5l34.7 28.6q0.6 1.6 1.4 3.1 0.7 1.5 1.6 2.9 0.8 1.5 1.8 2.9 0.9 1.4 2 2.7c4.7 6.1 60.6 29.3 60.6 29.3l9.5 2.7-104.2-78.3z"/>
		<path id="Layer copy 2" class="s4" d="m333.8 483.5l34.7 28.6q0.6 1.6 1.4 3.1 0.7 1.5 1.6 2.9 0.8 1.5 1.8 2.9 0.9 1.4 2 2.7c4.7 6.1 60.6 29.3 60.6 29.3l9.5 2.7-104.2-78.3z"/>
		<path id="Layer" fill-rule="evenodd" class="s4" d="m445.4 556.2q-0.1 0-0.1 0l-9.6-2.7c-2.3-1-56-23.3-60.8-29.5q-1.1-1.3-2-2.7-1-1.4-1.8-2.8-0.9-1.5-1.6-3-0.8-1.5-1.4-3.1l-34.6-28.5q0 0-0.1 0 0-0.1 0-0.1 0-0.1-0.1-0.1 0-0.1 0-0.1 0-0.1 0-0.2 0.1 0 0.1-0.1 0 0 0-0.1 0.1 0 0.1 0l7.4-6.2q0.1 0 0.2-0.1 0 0 0.1 0 0.1 0 0.2 0 0.1 0.1 0.1 0.1l104.2 78.3q0.1 0.1 0.1 0.2 0.1 0 0.1 0.1 0 0.1 0 0.2 0 0.1-0.1 0.2 0 0 0 0.1-0.1 0-0.1 0-0.1 0.1-0.2 0.1 0 0-0.1 0zm-110.8-72.7l34.2 28.2q0 0.1 0 0.1 0 0 0.1 0 0 0.1 0 0.1 0.7 1.6 1.4 3.1 0.8 1.5 1.6 2.9 0.9 1.4 1.8 2.8 0.9 1.4 2 2.7c4.6 5.9 59.8 28.9 60.4 29.1l6.8 2-101.7-76.5z"/>
		<path id="Layer" class="s3" d="m401.3 460.8c0 0-9.3-11.3-13.4-18.6-4.2-7.2-10-24-14.5-34-4.5-10-11-13.1-18.9-16.2-7.9-3.1-11-2.4-11-0.3 0 2 3.1 5.8 3.1 5.8l-13.4 2.4c0 0-5.6-3.1-9-2-3.4 1-10 7.5-10 7.5 0 0-6.9-2.4-11-1.4-4.1 1.1-15.5 6.6-20.3 9-4.8 2.4-10 2.7-9.6 4.8 0.3 2.1 5.1 5.5 9.6 4.8 4.5-0.6 12-3.4 16.9-3.4 4.8 0 7.2 1 9.6 2.7 2.4 1.8 12.4 15.9 13.8 17.6 1.3 1.7 2.7 8.6 2.7 8.6 0 0-6.1-2.6-9.8-6-3.8-3.4-9.2-11.5-15.4-12.2-6.2-0.7-13 4.8-9.5 7.6 3.4 2.7 6.8 4.4 9.3 7.5 2.4 3.1 6.1 12.4 12.7 22.4 6.5 10 20.6 16.2 20.6 16.2l29.3 12c0 0 7.5-17.9 21.7-22.7 14.1-4.9 18.2-6.9 18.2-6.9z"/>
		<path id="Layer" fill-rule="evenodd" class="s4" d="m363.1 496.1q0 0-0.1 0 0 0-0.1 0l-29.3-12.1c-0.1-0.1-14.3-6.4-20.8-16.4q-1.2-1.8-2.4-3.7-1.1-1.9-2.2-3.8-1.1-1.9-2.1-3.9-1.1-1.9-2.1-3.9-0.4-0.9-0.9-1.8-0.4-0.9-0.9-1.8-0.5-0.8-1.1-1.7-0.5-0.8-1.1-1.7-0.6-0.7-1.3-1.4-0.6-0.7-1.4-1.3-0.7-0.6-1.5-1.2-0.8-0.6-1.6-1.1c-1.1-0.8-2.2-1.6-3.4-2.5q-0.3-0.3-0.6-0.6-0.3-0.4-0.4-0.9-0.1-0.5-0.1-1 0.1-0.4 0.3-0.9c1.1-2.7 6.1-5.5 10.7-5 4.7 0.5 9.1 5.2 12.5 9 1.2 1.2 2.2 2.4 3.2 3.3q1 0.8 2.1 1.6 1 0.8 2.1 1.5 1.1 0.7 2.3 1.3 1.1 0.6 2.3 1.1c-0.5-2.3-1.5-6.2-2.4-7.4-0.4-0.4-1.2-1.5-2.3-3.1-3.4-4.5-9.6-13.1-11.4-14.4-2.4-1.6-4.6-2.6-9.3-2.6-3 0-7 1.1-10.6 2-2.3 0.6-4.5 1.1-6.2 1.4-4.6 0.7-9.8-2.8-10.2-5.2-0.3-1.7 1.8-2.4 4.6-3.3q0.7-0.2 1.3-0.4 0.7-0.3 1.4-0.5 0.6-0.3 1.3-0.5 0.6-0.3 1.3-0.6c2.6-1.3 15.7-7.8 20.4-9 3.8-1 9.6 0.8 11 1.3 1.2-1.2 6.8-6.6 10-7.5 3.2-1 8.2 1.5 9.2 2l12.4-2.2c-0.9-1.3-2.7-3.8-2.7-5.5q0-0.3 0-0.5 0.1-0.3 0.2-0.5 0.1-0.2 0.3-0.4 0.2-0.2 0.4-0.4c1.6-1.1 5.3-0.5 10.8 1.6 8.1 3.2 14.7 6.4 19.2 16.5 1.7 3.9 3.7 8.7 5.7 13.9 3.1 7.7 6.2 15.7 8.7 20.1 4.1 7.1 13.3 18.4 13.4 18.5q0 0.1 0 0.1 0 0 0.1 0 0 0 0 0.1l1.7 5.1q0 0.1 0 0.2 0 0.1 0 0.2-0.1 0.1-0.1 0.1-0.1 0.1-0.2 0.1c-0.1 0.1-4.3 2.2-18.3 6.9-13.7 4.7-21.3 22.3-21.3 22.5q-0.1 0-0.1 0.1-0.1 0.1-0.1 0.1-0.1 0-0.2 0.1 0 0-0.1 0zm-63.5-65.8c-3.9 0-7.8 2.3-8.7 4.5q-0.1 0.3-0.2 0.6 0 0.3 0.1 0.6 0.1 0.3 0.2 0.6 0.2 0.2 0.5 0.4c1.1 0.9 2.2 1.7 3.3 2.5q0.9 0.5 1.7 1.1 0.8 0.6 1.5 1.3 0.8 0.6 1.5 1.3 0.7 0.7 1.3 1.5 0.6 0.8 1.1 1.7 0.6 0.9 1.1 1.8 0.5 0.9 1 1.8 0.5 0.9 0.9 1.8 1 2 2 3.9 1.1 2 2.1 3.9 1.1 1.9 2.3 3.8 1.1 1.8 2.3 3.7c6.4 9.7 20.3 15.9 20.4 16l28.8 11.8c1.3-2.8 8.9-18.1 21.8-22.5 11.5-4 16.4-6.1 17.7-6.7l-1.5-4.6c-0.8-1-9.5-11.7-13.4-18.6-2.5-4.4-5.7-12.5-8.8-20.2-2-5.2-3.9-10-5.7-13.9-4.3-9.7-10.5-12.7-18.6-15.9-7.1-2.8-9.3-2.1-9.9-1.7q-0.1 0.1-0.2 0.2-0.1 0.1-0.2 0.2 0 0.1 0 0.2-0.1 0.1-0.1 0.3c0 1.5 2.2 4.5 3 5.5q0.1 0.1 0.1 0.2 0.1 0.2 0 0.3 0 0.1-0.1 0.2-0.1 0.1-0.3 0.1l-13.4 2.4q0 0-0.1 0 0 0-0.1 0-0.1 0-0.1 0c0-0.1-5.4-3-8.6-2-3.2 1-9.7 7.3-9.7 7.4q-0.1 0.1-0.1 0.1-0.1 0-0.2 0 0 0.1-0.1 0.1-0.1-0.1-0.2-0.1c0 0-6.7-2.3-10.7-1.3-3.5 0.8-13.1 5.3-20.2 8.9q-0.6 0.3-1.3 0.6-0.7 0.3-1.3 0.5-0.7 0.3-1.4 0.5-0.7 0.3-1.4 0.5c-2.2 0.7-4.1 1.3-4 2.2 0.3 1.7 4.9 5 9.1 4.4 1.6-0.3 3.8-0.9 6.1-1.5 3.6-1 7.8-2 10.8-2 5 0 7.5 1.1 9.9 2.9 1.8 1.2 6.9 8.2 11.6 14.6 1.1 1.5 2 2.6 2.3 3 1.4 1.8 2.8 8.5 2.8 8.8q0.1 0.1 0.1 0.2 0 0-0.1 0.1 0 0.1 0 0.1-0.1 0.1-0.1 0.1-0.1 0.1-0.1 0.1-0.1 0-0.2 0 0 0-0.1 0-0.1 0-0.1 0-1.4-0.6-2.7-1.3-1.3-0.7-2.6-1.4-1.2-0.8-2.4-1.6-1.2-0.9-2.3-1.8c-1-0.9-2.1-2.1-3.3-3.4-3.3-3.7-7.4-8.2-11.9-8.7-0.2-0.1-0.6-0.1-0.9-0.1z"/>
		<path id="Layer" class="s4" d="m273.3 418.3q-0.2 0-0.4-0.1-0.2-0.1-0.2-0.3 0-0.2 0.1-0.4 0.1-0.2 0.4-0.2c0.1 0 3.3-0.8 4.2-1.2q0.3-0.1 0.6-0.2 0.2-0.1 0.4-0.3 0.3-0.1 0.5-0.3 0.2-0.2 0.5-0.4 0 0 0.1 0 0.1-0.1 0.2-0.1 0.1 0 0.2 0.1 0.1 0 0.2 0.1 0 0.1 0.1 0.2 0 0.1 0 0.2 0 0.1-0.1 0.2 0 0-0.1 0.1-0.2 0.2-0.5 0.4-0.3 0.2-0.6 0.4-0.2 0.2-0.5 0.3-0.3 0.2-0.7 0.3c-1 0.3-4.2 1.1-4.3 1.2z"/>
		<path id="Layer" class="s4" d="m346.9 433q-0.1 0-0.1 0-0.1 0-0.1 0 0 0-0.1-0.1-0.9-0.9-1.7-1.9-0.7-1-1.4-2-0.6-1.1-1.1-2.2-0.5-1.2-0.8-2.4c-1.2-4-4.9-6-6.9-7l-0.4-0.2c-4.4-2.4-20.2-11.2-20.3-11.3q-0.1 0-0.2-0.1 0-0.1-0.1-0.2 0-0.1 0-0.2 0-0.1 0.1-0.1 0-0.1 0.1-0.2 0.1-0.1 0.2-0.1 0.1 0 0.2 0 0.1 0 0.2 0.1c0.1 0.1 15.9 8.9 20.3 11.2l0.4 0.2c2 1 6.1 3.3 7.4 7.7q0.3 1.1 0.7 2.2 0.5 1 1.1 2.1 0.6 1 1.3 1.9 0.7 0.9 1.5 1.8 0.1 0.1 0.2 0.2 0 0.2-0.1 0.3 0 0.2-0.1 0.3-0.2 0-0.3 0z"/>
		<path id="Layer" class="s4" d="m359.6 423.1q0 0-0.1 0-0.1 0-0.1 0-0.1-0.1-0.1-0.1-0.1-0.1-0.1-0.1c0-0.1-1.7-3.5-3.4-6.6-1.4-2.4-4-3-5.5-3.3q-0.5-0.1-0.8-0.2c-1.1-0.4-14.1-10.5-16.7-12.5q-0.1-0.1-0.2-0.3 0-0.2 0.1-0.4 0.2-0.2 0.4-0.2 0.2 0 0.3 0.1c5.9 4.6 15.6 12 16.4 12.3q0.3 0.1 0.7 0.2c1.5 0.3 4.6 1.1 6.1 3.8 1.7 3.1 3.5 6.6 3.5 6.6q0 0.1 0 0.2 0 0.1 0 0.2 0 0.1-0.1 0.2-0.1 0-0.1 0.1-0.1 0-0.1 0-0.1 0-0.1 0 0 0-0.1 0z"/>
		<path id="Layer" class="s4" d="m365.1 415.2q0 0-0.1 0 0 0-0.1 0 0-0.1-0.1-0.1 0 0 0-0.1c-0.4-0.4-9-10-11.1-14.2-1.9-3.7-7-2.8-7-2.8q-0.1 0-0.2 0-0.1 0-0.2-0.1-0.1 0-0.1-0.1-0.1-0.1-0.1-0.2 0-0.1 0-0.2 0-0.1 0.1-0.2 0-0.1 0.1-0.1 0.1-0.1 0.2-0.1c0.1 0 5.9-1 8.1 3.4 2 4 10.9 13.9 10.9 14q0.1 0.1 0.2 0.1 0 0.1 0 0.2 0 0.1 0 0.2-0.1 0.1-0.2 0.2-0.1 0.1-0.1 0.1-0.1 0-0.1 0-0.1 0-0.2 0z"/>
		<path id="Layer" class="s4" d="m297.4 442.4q-0.1 0-0.2 0 0 0-0.1-0.1-0.1 0-0.1-0.1-0.1 0-0.1-0.1 0-0.1 0-0.2 0-0.1 0-0.2 0-0.1 0.1-0.1 0.1-0.1 0.1-0.1 0.4-0.2 0.8-0.5 0.3-0.3 0.6-0.6 0.3-0.3 0.5-0.7 0.3-0.3 0.4-0.7 0.1-0.3 0.1-0.5 0-0.3-0.1-0.6 0-0.2-0.1-0.5-0.1-0.2-0.3-0.4c-1.9-2.8-5.7-2.9-5.8-2.9q-0.2 0-0.3-0.1-0.2-0.2-0.2-0.4 0-0.2 0.2-0.3 0.1-0.2 0.3-0.2c0.2 0 4.5 0 6.6 3.3q0.3 0.3 0.4 0.7 0.2 0.3 0.2 0.7 0.1 0.3 0.1 0.7 0 0.4-0.1 0.7-0.2 0.5-0.5 1-0.3 0.4-0.6 0.8-0.4 0.4-0.8 0.8-0.4 0.3-0.9 0.5 0 0-0.1 0 0 0.1 0 0.1-0.1 0-0.1 0z"/>
		<path id="Layer" class="s0" d="m400.6 456.4c0 0-18.6 4.8-30.3 17.8-11.7 13.1-11.7 24.1-10.7 25.9 1.1 1.7 23.4 13.7 23.4 13.7 0 0 13.8-26.5 23.4-33 9.6-6.5 16.6-8.3 16.6-8.3 0 0-17.2-11-17.9-12.4-0.7-1.4-2.1-4.8-4.5-3.7z"/>
		<path id="Layer" fill-rule="evenodd" class="s4" d="m382.9 514.3q-0.1 0-0.1 0 0 0 0-0.1c-3.8-2-22.6-12.2-23.6-13.9-1.1-1.7-1.2-13.1 10.7-26.4 11.4-12.7 29.5-17.8 30.5-18 2.6-1.1 4.1 2.1 4.9 3.6l0.2 0.4c0.6 1 11.2 8 17.7 12.2q0 0.1 0.1 0.1 0 0.1 0.1 0.2 0 0 0 0.1 0 0.1 0 0.1 0 0.1 0 0.2-0.1 0-0.1 0.1-0.1 0.1-0.1 0.1-0.1 0-0.2 0c0 0-6.9 1.8-16.3 8.2-9.4 6.4-23.1 32.6-23.3 32.9q0 0 0 0.1 0 0-0.1 0 0 0.1-0.1 0.1 0 0-0.1 0c0 0-0.1 0-0.2 0zm18.4-57.6q-0.1 0-0.2 0-0.1 0-0.2 0.1 0 0-0.1 0h-0.1c-0.2 0.1-18.6 5-30 17.8-11.4 12.8-11.6 23.6-10.6 25.2 0.7 1.2 14.2 8.7 22.8 13.3 1.9-3.6 14.2-26.6 23.3-32.7q1.8-1.3 3.7-2.4 1.9-1.2 3.8-2.2 2-1 4-1.8 2-0.9 4.1-1.6c-4.2-2.8-16.5-10.7-17.2-12l-0.2-0.5c-0.7-1.6-1.6-3.2-2.9-3.2 0 0-0.1 0-0.2 0z"/>
		<path id="Layer" class="s0" d="m452.9 559.9c0 0-18.9-9.6-23.4-12l-35.1-18.9q-0.8-0.2-1.5-0.4-0.7-0.3-1.5-0.5-0.7-0.3-1.4-0.6-0.7-0.2-1.5-0.6c-2-1-5.1-0.6-6.5-7.9-1.4-7.2 2.1-21.7 17.6-36.1 15.5-14.5 25.1-13.8 25.1-13.8 0 0 6.5-0.7 8.2 0.7 1.7 1.4 2.1 5.5 3.8 6.2 1.7 0.7 49.4 15 49.4 15"/>
		<path id="Layer copy" class="s0" d="m452.9 559.9c0 0-18.9-9.6-23.4-12l-35.1-18.9q-0.8-0.2-1.5-0.4-0.7-0.3-1.5-0.5-0.7-0.3-1.4-0.6-0.7-0.2-1.5-0.6c-2-1-5.1-0.6-6.5-7.9-1.4-7.2 2.1-21.7 17.6-36.1 15.5-14.5 25.1-13.8 25.1-13.8 0 0 6.5-0.7 8.2 0.7 1.7 1.4 2.1 5.5 3.8 6.2 1.7 0.7 49.4 15 49.4 15"/>
		<g id="Clip-Path" clip-path="url(#cp1)">
			<g id="Layer">
				<path id="Layer copy 3" class="s0" d="m452.9 559.9c0 0-18.9-9.6-23.4-12l-35.1-18.9q-0.8-0.2-1.5-0.4-0.7-0.3-1.5-0.5-0.7-0.3-1.4-0.6-0.7-0.2-1.5-0.6c-2-1-5.1-0.6-6.5-7.9-1.4-7.2 2.1-21.7 17.6-36.1 15.5-14.5 25.1-13.8 25.1-13.8 0 0 6.5-0.7 8.2 0.7 1.7 1.4 2.1 5.5 3.8 6.2 1.7 0.7 49.4 15 49.4 15"/>
				<path id="Layer" class="s4" d="m452.9 560.4q0 0-0.1 0-0.1 0-0.1 0c-0.2-0.1-19-9.7-23.5-12l-35-18.9q-0.7-0.2-1.5-0.5-0.7-0.2-1.4-0.5-0.8-0.2-1.5-0.5-0.7-0.3-1.4-0.6-0.2-0.1-0.3-0.2-0.2 0-0.3-0.1-0.1 0-0.3-0.1-0.1 0-0.3-0.1c-2-0.7-4.5-1.5-5.6-7.8-1.2-6.2 1.1-21.1 17.6-36.6 15.5-14.4 25.2-13.9 25.5-13.9 0.6 0 6.8-0.6 8.6 0.8q0.3 0.4 0.6 0.8 0.3 0.3 0.6 0.8 0.2 0.4 0.4 0.8 0.2 0.5 0.4 1c0.5 1.2 1 2.5 1.7 2.7 1.6 0.7 48.8 14.8 49.3 15q0.2 0.1 0.3 0.2 0.1 0.2 0 0.4-0.1 0.2-0.2 0.3-0.2 0.1-0.4 0.1c-2-0.6-47.7-14.3-49.4-15-1.1-0.5-1.7-1.9-2.3-3.3q-0.1-0.4-0.2-0.8-0.2-0.4-0.4-0.8-0.2-0.4-0.5-0.7-0.2-0.4-0.5-0.7c-1.3-1-6.1-0.7-7.9-0.6-0.2 0-9.7-0.4-24.8 13.7-16.2 15.1-18.6 29.5-17.4 35.6 1 5.7 3.2 6.5 5 7.1q0.1 0.1 0.3 0.1 0.1 0.1 0.3 0.1 0.1 0.1 0.3 0.2 0.2 0 0.3 0.1 0.7 0.3 1.4 0.6 0.7 0.3 1.4 0.5 0.8 0.3 1.5 0.5 0.7 0.2 1.5 0.4h0.1l35.1 18.9c4.4 2.4 23.2 12 23.4 12q0 0.1 0.1 0.1 0.1 0.1 0.1 0.2 0 0.1 0 0.2 0 0.1 0 0.2-0.1 0.1-0.1 0.1-0.1 0.1-0.1 0.1-0.1 0.1-0.2 0.1 0 0-0.1 0z"/>
			</g>
		</g>
		<path id="Layer" class="s4" d="m401.6 526.4q0-0.1-0.1-0.1-0.1 0-0.1 0-0.1-0.1-0.1-0.1-0.1 0-0.1-0.1c-4.9-8.7-2.9-18.8-2.8-19.3q0-0.1 0.1-0.1 0-0.1 0.1-0.2 0.1 0 0.2-0.1 0.1 0 0.2 0 0.1 0.1 0.1 0.1 0.1 0.1 0.2 0.2 0 0 0.1 0.1 0 0.1 0 0.2c0 0.1-2 10.3 2.7 18.6q0 0.1 0 0.3 0 0.1 0 0.2-0.1 0.1-0.2 0.2-0.1 0-0.3 0.1z"/>
		<path id="Layer" class="s4" d="m407.1 530.5q0 0-0.1 0-0.1-0.1-0.1-0.1-0.1 0-0.1-0.1-0.1 0-0.1-0.1c-3.1-4.9-4.3-8.2-3.8-9.7q0.1-0.1 0.1-0.2 0.1-0.1 0.2-0.2 0 0 0.1-0.1 0.1-0.1 0.2-0.1 0.1-0.1 0.2-0.1 0.1 0.1 0.2 0.1 0.1 0 0.2 0.1 0 0.1 0.1 0.2 0 0.1 0 0.2 0 0.1-0.1 0.1 0 0.1 0 0.2-0.1 0.1-0.2 0.1c-0.1 0.1-0.9 1.6 3.6 8.9q0.1 0.1 0.1 0.2 0 0.1 0 0.2 0 0.1-0.1 0.2 0 0.1-0.1 0.1 0 0-0.1 0 0 0.1 0 0.1-0.1 0-0.1 0 0 0-0.1 0z"/>
	</g>
	<g id="freepik--hand-1--inject-15">
		<path id="Layer" class="s4" d="m191.7 453.2c0 0-22.7 27-29.5 32.4q-1.6 1.2-3.1 2.4-1.6 1.1-3.2 2.2-1.7 1.1-3.3 2.2-1.7 1-3.4 2l-24.5 24.5c0 0 0.7 3.4-6.1 7.5-6.8 4.1-20.4 8.9-23.8 10.2-3.4 1.4-40.9 18.4-40.9 18.4z"/>
		<path id="Layer" fill-rule="evenodd" class="s4" d="m53.9 555.5q-0.1 0-0.1 0-0.1 0-0.1-0.1-0.1 0-0.1 0-0.1-0.1-0.1-0.1-0.1-0.1-0.1-0.2 0-0.1 0-0.2 0-0.1 0.1-0.2 0 0 0.1-0.1l137.8-101.8q0.1-0.2 0.3-0.2 0.2 0.1 0.3 0.2 0.2 0.2 0.2 0.3 0 0.2-0.2 0.4c-0.9 1.1-22.8 27-29.5 32.4q-1.6 1.3-3.1 2.4-1.6 1.2-3.2 2.3-1.7 1.1-3.3 2.2-1.7 1-3.4 2l-24.3 24.3c0 1-0.4 4.1-6.4 7.7-5.5 3.4-15.6 7.2-21 9.2-1.2 0.5-2.2 0.8-2.8 1.1-3.4 1.3-40.5 18.2-40.9 18.4q-0.1 0-0.1 0-0.1 0-0.1 0zm134.6-99.4l-130.5 96.5c10-4.5 33.8-15.3 36.6-16.4l2.9-1.1c5.3-2 15.3-5.8 20.8-9.1 6.4-3.8 5.9-6.9 5.9-7q0-0.1 0-0.1 0-0.1 0-0.2 0 0 0.1-0.1 0 0 0-0.1l24.6-24.5h0.1q1.7-1 3.3-2 1.7-1.1 3.3-2.2 1.6-1.1 3.2-2.2 1.5-1.2 3.1-2.4c5.2-4.2 20.3-21.7 26.6-29.1z"/>
		<path id="Layer" fill-rule="evenodd" class="s3" d="m228.4 415.7c-0.5 2.9-5.3 5.5-6.5 6.5q-0.4 0.3-0.9 0.6-0.5 0.3-1 0.6-0.4 0.3-0.9 0.6-0.5 0.3-1 0.6c0 0 3.6 4.3 1.4 7.1-2.1 2.9-11.4 4.6-16.4 8.6-5 4.1-9.1 8.4-11.5 12.9-2.4 4.5-11.2 15.5-22.1 20.5-11 5-30.6 14.1-30.6 14.1 0 0-14-21.6-22.9-26-8.8-4.5-11.6-5.5-11.6-5.5l1.9-2.7c0 0 13.8-20.3 17.6-27.9 3.8-7.6 7.6-19.7 10-23.6 2.4-3.8 15.3-1.9 15.3-1.9 0 0 9.3-8.3 12.1-8.8 2.9-0.5 14.3 4.5 14.3 4.5 0 0 14.1-8.1 17.5-7.4 3.3 0.8 10 14.8 12.6 17.2 2.6 2.5 7.9 6.5 7.9 6.5 0 0 8.6 0.4 11-0.3 2.3-0.7 4.2 1 3.8 3.8zm-25.8 9.8c0 0-8.3-3.1-10.2-4.5l-4.6 13.8c0 0 9.3-7.9 14.8-9.3z"/>
		<path id="Layer" fill-rule="evenodd" class="s4" d="m138.9 488.2q-0.1 0-0.1 0-0.1-0.1-0.1-0.1-0.1 0-0.1-0.1c-0.2-0.2-14.1-21.4-22.7-25.8-8.6-4.4-11.6-5.4-11.6-5.5q-0.1 0-0.2-0.1-0.1-0.1-0.1-0.2-0.1-0.1-0.1-0.2 0-0.1 0.1-0.2l1.9-2.6c0.1-0.2 13.9-20.3 17.6-27.8 1.9-3.8 3.8-8.7 5.5-13 1.8-4.7 3.3-8.7 4.6-10.7 2.3-3.8 13.6-2.4 15.5-2.1 1.5-1.4 9.4-8.4 12.2-8.8 2.8-0.5 12.4 3.6 14.4 4.4 2.2-1.2 14.2-8 17.5-7.3 2.1 0.5 4.9 4.8 8.5 10.8 1.8 2.9 3.4 5.6 4.4 6.5 2.3 2.1 6.9 5.7 7.7 6.3 1.2 0.1 8.5 0.4 10.6-0.2q0.5-0.2 0.9-0.2 0.5 0 0.9 0 0.4 0.1 0.9 0.3 0.4 0.2 0.7 0.5 0.4 0.3 0.6 0.8 0.3 0.4 0.4 0.9 0.2 0.5 0.2 1 0 0.6-0.1 1.1c-0.4 2.5-3.7 4.7-5.6 6q-0.7 0.4-1 0.7-0.4 0.3-0.8 0.5-0.5 0.3-0.9 0.6-0.4 0.3-0.8 0.5-0.5 0.3-0.9 0.5c0.9 1.3 3 4.7 1.1 7.3-1.2 1.6-4 2.7-7.3 4-3.3 1.3-6.8 2.7-9.2 4.7-5.5 4.4-9.2 8.5-11.4 12.7-2.2 4.2-11.1 15.6-22.4 20.7-10.9 5-30.3 14-30.5 14.1q-0.1 0-0.1 0 0 0-0.1 0-0.1 0-0.1 0zm-33.7-32.2c1.2 0.5 4.5 1.9 11.1 5.3 8.3 4.2 20.9 22.8 22.8 25.8 2.8-1.3 20.2-9.3 30.2-13.9 11.1-5.1 19.7-16 22-20.3 2.2-4.3 6-8.6 11.5-13 2.6-2.1 6.3-3.6 9.5-4.8 3-1.2 5.9-2.4 6.9-3.7 1.9-2.5-1.4-6.5-1.4-6.5q-0.1-0.1-0.1-0.1 0-0.1 0-0.1 0-0.1 0-0.1 0-0.1 0-0.1 0-0.1 0-0.1 0-0.1 0.1-0.1 0-0.1 0-0.1 0.1-0.1 0.1-0.1 0.5-0.3 1-0.5 0.5-0.3 0.9-0.6 0.5-0.3 1-0.6 0.4-0.3 0.9-0.6 0.3-0.3 1-0.8c1.7-1.1 4.9-3.3 5.2-5.4q0.1-0.3 0.1-0.7 0-0.4-0.1-0.8-0.1-0.4-0.3-0.7-0.2-0.3-0.4-0.6-0.3-0.2-0.6-0.4-0.3-0.1-0.6-0.1-0.3-0.1-0.6-0.1-0.3 0.1-0.7 0.2c-2.4 0.7-10.7 0.3-11.1 0.2q0 0-0.1 0-0.1 0-0.1 0 0 0-0.1-0.1c0 0-5.3-4.1-7.9-6.4-1-1-2.7-3.7-4.5-6.7-2.6-4.2-6-10-7.9-10.4-2.5-0.5-13.2 5.1-17 7.4q-0.1 0-0.1 0-0.1 0-0.2 0 0 0-0.1 0 0 0-0.1 0c-3.1-1.4-11.8-4.9-14-4.5-2.2 0.3-9.3 6.4-11.9 8.7q0 0-0.1 0 0 0.1-0.1 0.1 0 0-0.1 0 0 0-0.1 0c-3.5-0.5-12.9-1.2-14.8 1.7-1.1 1.9-2.7 6-4.5 10.4-1.7 4.4-3.6 9.4-5.4 13.1-3.8 7.6-17.6 27.8-17.7 28zm82.6-20.7q-0.1 0-0.1 0-0.1 0-0.1 0-0.1-0.1-0.2-0.2 0 0 0-0.1-0.1-0.1-0.1-0.2 0 0 0.1-0.1l4.5-13.8q0-0.1 0-0.1 0.1-0.1 0.1-0.1 0.1-0.1 0.1-0.1 0.1 0 0.1-0.1 0.1 0 0.1 0 0.1 0 0.1 0 0.1 0 0.2 0.1 0 0 0.1 0c1.8 1.4 10 4.4 10.1 4.5q0.2 0 0.3 0.1 0.2 0.2 0.2 0.4 0 0.2-0.2 0.3-0.1 0.2-0.3 0.2c-5.3 1.3-14.5 9.1-14.6 9.2q0 0-0.1 0 0 0-0.1 0 0 0-0.1 0 0 0-0.1 0zm4.8-13.5l-3.8 11.6c2.6-2 8-6.2 12.3-7.9q-1.1-0.4-2.1-0.8-1.1-0.5-2.2-0.9-1-0.5-2.1-1-1-0.5-2.1-1z"/>
		<path id="Layer" class="s4" d="m140.1 416.5q0 0-0.1-0.1-0.1 0-0.2-0.1 0 0-0.1-0.1 0-0.1-0.1-0.1c0-0.5-0.7-4.3-0.2-5.8 0.5-1.5 8-9 9.4-10.4q0.2-0.2 0.4-0.2 0.2 0 0.4 0.2 0.1 0.1 0.1 0.3 0 0.2-0.1 0.4c-3.4 3.4-8.9 9.1-9.2 10-0.3 1 0 4.2 0.2 5.3q0.1 0.1 0 0.2 0 0.1 0 0.2-0.1 0-0.2 0.1-0.1 0-0.2 0.1z"/>
		<path id="Layer" class="s4" d="m147.8 421.2q0 0-0.1 0-0.1 0-0.1 0-0.1 0-0.1-0.1-0.1 0-0.2-0.1 0-0.1 0-0.2 0-0.1 0-0.2l1.9-6.2q0 0 0-0.1 0 0 0.1 0 0-0.1 0-0.1 0.1 0 0.1 0l26-18.6q0.1-0.1 0.2-0.1 0.1-0.1 0.2 0 0.1 0 0.1 0 0.1 0.1 0.2 0.2 0 0.1 0.1 0.1 0 0.1 0 0.2 0 0.1-0.1 0.2 0 0.1-0.1 0.2l-25.9 18.5-1.8 6q-0.1 0-0.1 0.1-0.1 0.1-0.1 0.1-0.1 0.1-0.2 0.1 0 0-0.1 0z"/>
		<path id="Layer" class="s4" d="m160.7 425.8h-0.1q-0.1-0.1-0.2-0.1-0.1-0.1-0.2-0.1 0-0.1 0-0.2-0.1-0.1 0-0.2c0.1-1 1-6.2 2.3-7.2 1.2-1.1 9-2.9 10.3-3.2 2.6-2.2 14-12 16.5-12 1 0 3.6 1.1 8.3 3.2 5.6 2.5 13.3 5.9 15.9 5.6q0.2 0 0.4 0.1 0.2 0.2 0.2 0.4 0 0.2-0.1 0.3-0.2 0.2-0.4 0.2c-2.8 0.3-10-2.9-16.4-5.7-3.5-1.5-7.1-3.1-7.9-3.1-1.6 0-10.6 7.2-15.9 11.8q0 0-0.1 0 0 0 0 0.1-0.1 0-0.1 0c-3.5 0.8-9.3 2.4-10 3-0.8 0.6-1.6 4.2-2 6.6q0 0.1-0.1 0.2 0 0.1-0.1 0.1-0.1 0.1-0.2 0.1-0.1 0.1-0.1 0.1z"/>
		<path id="Layer" class="s4" d="m222.9 416.7q-0.5 0-1-0.1-0.5 0-0.9-0.2-0.5-0.2-0.9-0.4-0.4-0.3-0.7-0.6-0.9-1-0.5-1.8c0.4-0.9 2-1 2.3-1q0.1 0 0.2 0 0.1 0.1 0.2 0.1 0 0.1 0.1 0.2 0 0.1 0 0.2 0 0.1 0 0.2-0.1 0.1-0.1 0.1-0.1 0.1-0.2 0.2-0.1 0-0.2 0c-0.6 0-1.3 0.2-1.4 0.4 0 0.1 0 0.3 0.4 0.7 1.5 1.7 5 0.7 6.4 0.3q0.1 0 0.2 0 0.1 0 0.1 0 0.1 0.1 0.2 0.2 0 0.1 0.1 0.1 0 0.1 0 0.2 0 0.1-0.1 0.2 0 0.1-0.1 0.2-0.1 0-0.2 0.1-0.4 0.1-0.9 0.2-0.5 0.2-1 0.2-0.5 0.1-1 0.2-0.5 0-1 0.1z"/>
		<path id="Layer" class="s4" d="m202.6 426q-0.1 0-0.3-0.1-0.1-0.1-0.2-0.3 0-0.1 0.1-0.3 0-0.1 0.2-0.2c0.3-0.2 8.9-5.1 16-1q0 0.1 0.1 0.1 0.1 0.1 0.1 0.2 0 0.1 0 0.2 0 0.1-0.1 0.2 0 0.1-0.1 0.1-0.1 0.1-0.2 0.1-0.1 0.1-0.2 0-0.1 0-0.1 0c-6.6-3.9-15 0.9-15 0.9q-0.1 0-0.1 0.1 0 0-0.1 0 0 0-0.1 0z"/>
		<path id="Layer" class="s4" d="m213.6 434.8q-0.1 0-0.2 0-0.1 0-0.1-0.1-0.1 0-0.2-0.1 0-0.1 0-0.2l-0.2-1.4q-0.3-0.7-0.5-1.3-0.2-0.7-0.5-1.3-0.2-0.7-0.5-1.3-0.3-0.6-0.6-1.2-0.1-0.1-0.1-0.1 0-0.1 0-0.1 0-0.1 0-0.1 0-0.1 0.1-0.1 0-0.1 0-0.1 0-0.1 0.1-0.1 0 0 0-0.1 0.1 0 0.1 0l4.8-1.7q0.2-0.1 0.4 0 0.2 0.1 0.3 0.3 0.1 0.2 0 0.4-0.1 0.2-0.4 0.2l-4.2 1.5q0.3 0.6 0.6 1.2 0.3 0.6 0.5 1.2 0.2 0.6 0.5 1.3 0.2 0.6 0.4 1.2l0.2 1.4q0 0.1 0 0.2 0 0.1-0.1 0.2-0.1 0.1-0.1 0.1-0.1 0.1-0.2 0.1z"/>
		<path id="Layer" class="s4" d="m183.5 444.8q0 0.1-0.1 0.1 0 0 0-0.1 0 0-0.1 0-0.1 0-0.1-0.1-0.1 0-0.1-0.1-0.1-0.1-0.1-0.2 0-0.1 0.1-0.2l4.3-9.6q0-0.1 0.1-0.1 0.1-0.1 0.2-0.1 0.1-0.1 0.1-0.1 0.1 0 0.2 0.1 0.1 0 0.2 0.1 0.1 0.1 0.1 0.2 0 0.1 0 0.2 0 0.1 0 0.2l-4.3 9.4q0 0.1-0.1 0.2 0 0-0.1 0.1 0 0-0.1 0-0.1 0-0.2 0z"/>
		<path id="Layer" class="s0" d="m74.6 471.8c0 0 15-9.8 20.5-13.9 5.5-4 8.3-3.3 11.2-4.3 2.8-0.9 17.2 3.4 26.7 15.3 9.6 11.9 8.6 20.7 7.4 23.1-1.2 2.4-31.2 20.5-31.2 20.5 0 0-4.3-17.1-17-27.4-12.6-10.3-17.6-13.3-17.6-13.3z"/>
		<path id="Layer" fill-rule="evenodd" class="s4" d="m109.1 513q-0.1 0-0.1 0-0.1 0-0.1-0.1-0.1 0-0.1 0-0.1-0.1-0.1-0.1 0-0.1 0-0.1c0-0.2-4.4-17.2-16.8-27.2-12.4-10-17.5-13.3-17.6-13.3q0 0-0.1-0.1 0 0-0.1-0.1 0 0 0-0.1 0-0.1 0-0.1 0-0.1 0-0.2 0 0 0-0.1 0.1 0 0.1-0.1 0 0 0.1-0.1c0.2-0.1 15.1-9.8 20.5-13.8q1-0.7 2-1.4 1.1-0.6 2.2-1.1 1.2-0.5 2.4-0.8 1.2-0.3 2.4-0.5 0.3-0.1 0.6-0.1 0.3-0.1 0.6-0.1 0.3-0.1 0.6-0.2 0.3 0 0.6-0.1c3.4-1.2 17.9 3.7 27.2 15.4 9.7 12.2 8.7 21.2 7.5 23.7-1.3 2.4-28.4 18.8-31.5 20.7q0 0-0.1 0-0.1 0-0.1 0-0.1 0-0.1 0zm-33.6-41.2c1.7 1.1 7 4.8 17 13 11.2 9.1 16 23.8 16.9 27 11.6-7 29.7-18.4 30.5-20 1.1-2.3 2.1-10.9-7.3-22.6-9.6-12-23.8-15.9-26.2-15.1q-0.3 0.1-0.6 0.1-0.3 0.1-0.6 0.2-0.4 0.1-0.7 0.1-0.3 0.1-0.6 0.1-1.2 0.2-2.3 0.5-1.2 0.3-2.2 0.8-1.1 0.4-2.1 1-1 0.6-2 1.4c-4.7 3.6-16.9 11.6-19.8 13.5z"/>
		<path id="Layer" class="s0" d="m14.5 500.3c0 0 27.8-17 32.5-19.8 4.6-2.8 9.9-6.6 9.9-6.6 0 0 1.5-7.4 8.6-7.6 7.1-0.3 13.9 2.5 23.2 7.6 9.3 5.1 20.7 23.6 22 31 1.2 7.4 3.6 9.6 1.7 14.4-2 4.9-9.3 5.1-10.7 5.1-1.5 0-4.9 3.1-4.9 3.1l-52.3 34"/>
		<path id="Layer" class="s4" d="m44.5 562q-0.1 0-0.1 0-0.1 0-0.1-0.1-0.1 0-0.1 0-0.1-0.1-0.1-0.1-0.1-0.1-0.1-0.2 0-0.1 0-0.2 0-0.1 0.1-0.2 0.1-0.1 0.1-0.1l52.3-34c0.5-0.5 3.5-3.2 5.1-3.2 1.4 0 8.5-0.2 10.3-4.7 1.2-3 0.7-4.9-0.3-8q-0.2-0.8-0.4-1.5-0.2-0.8-0.4-1.6-0.2-0.7-0.3-1.5-0.2-0.8-0.3-1.6c-1.3-7.4-12.7-25.6-21.8-30.6-8.8-4.9-15.8-7.8-22.9-7.6-6.6 0.3-8 7.2-8.1 7.3q0 0 0 0.1 0 0.1-0.1 0.1 0 0-0.1 0.1c0 0-5.4 3.8-10 6.6-4.5 2.8-32.2 19.5-32.5 19.7q0 0.1-0.1 0.1-0.1 0-0.2 0-0.1-0.1-0.2-0.1-0.1-0.1-0.1-0.2-0.1 0-0.1-0.1 0-0.1 0-0.2 0-0.1 0.1-0.2 0-0.1 0.1-0.1c0.3-0.2 27.9-17 32.5-19.8 4.1-2.5 8.9-5.9 9.8-6.5 0.3-1.2 2.3-7.6 9-7.8 7.4-0.3 14.4 2.7 23.5 7.6 9.3 5.1 21 23.8 22.2 31.4q0.1 0.7 0.3 1.5 0.1 0.8 0.3 1.5 0.2 0.8 0.4 1.5 0.2 0.8 0.4 1.5c1 3.1 1.6 5.4 0.3 8.7-2.1 5.1-9.7 5.4-11.2 5.4-1 0-3.3 1.8-4.6 2.9l-52.3 34.1q-0.1 0-0.1 0.1-0.1 0-0.1 0 0 0-0.1 0z"/>
		<path id="Layer" class="s4" d="m98.7 520.4q-0.1 0-0.1 0-0.1 0-0.1 0 0 0-0.1 0 0-0.1 0-0.1-0.1 0-0.2-0.1 0-0.1 0-0.2-0.1-0.1 0-0.2 0-0.1 0-0.2c4-6.1 2.3-7.7 2.3-7.7q-0.1-0.1-0.1-0.2 0-0.1-0.1-0.2 0-0.1 0.1-0.2 0-0.1 0.1-0.1 0-0.1 0.1-0.2 0.1 0 0.2 0 0.1 0 0.2 0 0.1 0 0.1 0.1c0.3 0.2 2.5 2.1-2 9.1q-0.1 0-0.1 0.1-0.1 0-0.1 0-0.1 0.1-0.1 0.1-0.1 0-0.1 0z"/>
		<path id="Layer" class="s4" d="m90.8 528.8q-0.1 0-0.1 0-0.1 0-0.1 0-0.1-0.1-0.1-0.1-0.1-0.1-0.1-0.2-0.1-0.1-0.1-0.2 0-0.1 0.1-0.1 0-0.1 0.1-0.2 1.4-1.3 2.5-2.8 1.1-1.6 2-3.3 0.9-1.7 1.4-3.5 0.6-1.8 0.8-3.7 0-0.2 0.1-0.4 0.2-0.1 0.4-0.1 0.2 0 0.4 0.1 0.1 0.2 0.1 0.4c0 0.3-0.4 7.4-7 14q0 0-0.1 0.1 0 0-0.1 0 0 0-0.1 0 0 0-0.1 0z"/>
	</g>
</svg>