<svg version="1.2" xmlns="http://www.w3.org/2000/svg" viewBox="0 0 500 500" width="500" height="500">
	<title>Hand coding-bro-svg</title>
	<defs>
		<clipPath clipPathUnits="userSpaceOnUse" id="cp1">
			<path d="m452.89 459.92c0 0-18.93-9.64-23.4-12.05l-35.1-18.87q-0.75-0.2-1.49-0.43-0.74-0.23-1.47-0.49-0.74-0.26-1.46-0.54-0.72-0.29-1.43-0.6c-2.06-1-5.16-0.69-6.53-7.92-1.37-7.23 2.06-21.68 17.55-36.13 15.49-14.45 25.11-13.76 25.11-13.76 0 0 6.54-0.69 8.26 0.69 1.72 1.38 2.07 5.5 3.79 6.19 1.72 0.69 49.33 15 49.33 15"/>
		</clipPath>
	</defs>
	<style>
		.s0 { fill: #141321 } 
		.s1 { opacity: .7;fill: #b7005e } 
		.s2 { fill: #263238 } 
		.s3 { fill: #ffffff } 
		.s4 { fill: #f7408a } 
		.s5 { fill: #26e2db } 
	</style>
	<g id="freepik--background-simple--inject-15">
		<path id="Layer" class="s0" d="m471 238.3c-4.9 41.8-24 90.4-62.1 112.7-57.6 33.8-52.8 85.7-165.2 108.2q-6.2 1.3-12.4 2.2-6.2 0.9-12.4 1.5-6.3 0.6-12.5 0.9-6.3 0.2-12.6 0.1-3.1 0-6.1-0.2-3.1-0.1-6.1-0.4-3.1-0.2-6.2-0.6-3-0.3-6.1-0.8c-71.4-10.4-119.5-60.1-137.1-120-23.2-78.9 23.1-130.5 53.9-161.6 30.7-31.1 53.2-128 163.5-151q6.3-1.3 12.7-2.3 6.4-1 12.8-1.6 6.4-0.6 12.9-0.8 6.4-0.3 12.8-0.1c39.3 1 82.1 13.8 111.8 40.7q3.3 3 6.5 6.3c41.1 42.2 58.6 109.8 51.9 166.8z"/>
		<path id="Layer" class="s1" d="m471 238.3c-4.9 41.8-24 90.4-62.1 112.7-57.6 33.8-52.8 85.7-165.2 108.2q-6.2 1.3-12.4 2.2-6.2 0.9-12.4 1.5-6.3 0.6-12.5 0.9-6.3 0.2-12.6 0.1-3.1 0-6.1-0.2-3.1-0.1-6.1-0.4-3.1-0.2-6.2-0.6-3-0.3-6.1-0.8c-71.4-10.4-119.5-60.1-137.1-120-23.2-78.9 23.1-130.5 53.9-161.6 30.7-31.1 53.2-128 163.5-151q6.3-1.3 12.7-2.3 6.4-1 12.8-1.6 6.4-0.6 12.9-0.8 6.4-0.3 12.8-0.1c39.3 1 82.1 13.8 111.8 40.7q3.3 3 6.5 6.3c41.1 42.2 58.6 109.8 51.9 166.8z"/>
	</g>
	<g id="freepik--Device--inject-15">
		<path id="Layer" class="s2" d="m114.9 90h275.1q1.6 0 3.1 0.6 1.4 0.6 2.6 1.7 1.1 1.2 1.7 2.6 0.6 1.5 0.6 3.1v191.4h-291v-191.4q0-1.6 0.6-3 0.6-1.5 1.7-2.6 1.1-1.1 2.6-1.8 1.4-0.6 3-0.6z"/>
		<path id="Layer" fill-rule="evenodd" class="s2" d="m398 289.9h-291q-0.1 0-0.2 0-0.1-0.1-0.2-0.1 0-0.1-0.1-0.2 0-0.1 0-0.2v-191.4c0-1.1 0.2-2.2 0.6-3.2 0.5-1.1 1.1-2 1.9-2.8 0.8-0.8 1.7-1.4 2.7-1.8 1.1-0.5 2.2-0.7 3.3-0.7h275c1.1 0 2.2 0.2 3.2 0.7 1.1 0.4 2 1 2.8 1.8 0.8 0.8 1.4 1.7 1.8 2.8 0.5 1 0.7 2.1 0.7 3.2v191.4q0 0.1-0.1 0.2 0 0.1-0.1 0.2 0 0-0.1 0.1-0.1 0-0.2 0zm-290.5-1h290v-190.9q0-1.5-0.6-2.9-0.6-1.3-1.6-2.4-1.1-1-2.4-1.6-1.4-0.6-2.9-0.6h-275.1q-1.5 0-2.9 0.6-1.3 0.5-2.4 1.6-1 1.1-1.6 2.4-0.6 1.4-0.6 2.9z"/>
		<path id="Layer" class="s3" d="m441.6 377.6h-378.3l43.6-88.2h291.1l43.6 88.2z"/>
		<path id="Layer" fill-rule="evenodd" class="s2" d="m441.6 378.1h-378.3q-0.1 0-0.1 0-0.1-0.1-0.2-0.1 0 0-0.1-0.1 0 0-0.1-0.1 0 0 0-0.1 0 0 0-0.1 0-0.1 0-0.1 0-0.1 0-0.2l43.7-88.1q0-0.1 0.1-0.1 0-0.1 0.1-0.1 0.1-0.1 0.1-0.1 0.1 0 0.2 0h291q0.1 0 0.1 0 0.1 0 0.2 0.1 0 0 0.1 0.1 0 0 0 0.1l43.7 88.1q0 0.1 0 0.2 0.1 0 0.1 0.1 0 0.1-0.1 0.1 0 0.1 0 0.1 0 0.1-0.1 0.1 0 0.1-0.1 0.1-0.1 0-0.1 0.1-0.1 0-0.2 0zm-377.5-1h376.7l-43.1-87.2h-290.5z"/>
		<path id="Layer" class="s0" d="m124.6 105.8h255.7v167.8h-255.7z"/>
		<path id="Layer" fill-rule="evenodd" class="s2" d="m380.4 274.1h-255.8q-0.1 0-0.2 0-0.1-0.1-0.2-0.1-0.1-0.1-0.1-0.2 0-0.1 0-0.2v-167.8q0-0.1 0-0.2 0-0.1 0.1-0.2 0.1 0 0.2-0.1 0.1 0 0.2 0h255.8q0 0 0.1 0 0.1 0.1 0.2 0.1 0.1 0.1 0.1 0.2 0 0.1 0.1 0.2v167.8q-0.1 0.1-0.1 0.2 0 0.1-0.1 0.2-0.1 0-0.2 0.1-0.1 0-0.1 0zm-255.3-1h254.8v-166.8h-254.8z"/>
		<path id="Layer" class="s2" d="m240.3 317.3l0.5-10.7h-15.4l-1 10.7h15.9z"/>
		<path id="Layer" fill-rule="evenodd" class="s3" d="m240.3 317.8h-15.9q0 0-0.1 0 0 0-0.1 0 0 0-0.1-0.1 0 0-0.1 0 0-0.1 0-0.1 0-0.1-0.1-0.1 0-0.1 0-0.1 0-0.1 0-0.1l1-10.8q0-0.1 0.1-0.1 0-0.1 0.1-0.2 0.1-0.1 0.1-0.1 0.1 0 0.2 0h15.4q0.1 0 0.1 0 0.1 0 0.1 0 0.1 0 0.1 0.1 0 0 0.1 0 0 0.1 0 0.1 0.1 0.1 0.1 0.1 0 0 0 0.1 0 0 0 0.1l-0.5 10.7q0 0.1 0 0.2-0.1 0.1-0.1 0.2-0.1 0-0.2 0.1-0.1 0-0.2 0zm-15.3-1h14.8l0.5-9.7h-14.4z"/>
		<path id="Layer" class="s2" d="m272.1 317.3l-0.5-10.7h-15.4v10.7h15.9z"/>
		<path id="Layer" fill-rule="evenodd" class="s3" d="m272.1 317.8h-15.9q-0.1 0-0.2 0-0.1-0.1-0.1-0.1-0.1-0.1-0.2-0.2 0-0.1 0-0.2v-10.7q0-0.1 0-0.2 0.1-0.1 0.2-0.2 0-0.1 0.1-0.1 0.1 0 0.2 0h15.4q0.1 0 0.2 0 0.1 0.1 0.1 0.1 0.1 0.1 0.1 0.2 0.1 0.1 0.1 0.1l0.5 10.8q0 0 0 0.1 0 0 0 0.1 0 0-0.1 0.1 0 0 0 0.1-0.1 0-0.1 0 0 0.1-0.1 0.1 0 0-0.1 0 0 0-0.1 0zm-15.4-1h14.9l-0.5-9.7h-14.4z"/>
		<path id="Layer" class="s2" d="m354.9 328.8h16.4l-3.8-11.5h-15.9l3.3 11.5z"/>
		<path id="Layer" fill-rule="evenodd" class="s3" d="m371.3 329.3h-16.4q-0.1 0-0.2 0-0.1 0-0.1-0.1-0.1 0-0.1-0.1-0.1-0.1-0.1-0.2l-3.3-11.4q0-0.1 0-0.2 0 0 0-0.1 0 0 0-0.1 0 0 0.1-0.1 0 0 0-0.1 0.1 0 0.1 0 0.1-0.1 0.1-0.1 0.1 0 0.2 0h15.8q0.1 0 0.2 0 0.1 0.1 0.1 0.1 0.1 0.1 0.2 0.1 0 0.1 0 0.2l3.9 11.4q0 0.1 0 0.2 0 0 0 0.1 0 0 0 0.1 0 0.1-0.1 0.1 0 0-0.1 0.1 0 0-0.1 0 0 0.1-0.1 0.1 0 0-0.1 0zm-16.1-1h15.4l-3.5-10.5h-14.9z"/>
		<path id="Layer" class="s2" d="m224.4 317.3l1-10.7h-15.3l-1.6 10.7h15.9z"/>
		<path id="Layer" fill-rule="evenodd" class="s3" d="m224.4 317.8h-15.9q0 0-0.1 0 0 0-0.1 0 0 0-0.1-0.1 0 0 0-0.1-0.1 0-0.1 0 0-0.1 0-0.1-0.1-0.1-0.1-0.1 0-0.1 0-0.2l1.6-10.7q0-0.1 0-0.2 0.1 0 0.1-0.1 0.1-0.1 0.2-0.1 0.1 0 0.2 0h15.3q0.1 0 0.1 0 0.1 0 0.1 0 0.1 0 0.1 0.1 0.1 0 0.1 0 0 0.1 0.1 0.1 0 0.1 0 0.1 0 0.1 0 0.1 0 0.1 0 0.1l-1 10.8q0 0.1 0 0.2-0.1 0-0.1 0.1-0.1 0.1-0.2 0.1-0.1 0-0.2 0zm-15.3-1h14.9l0.9-9.7h-14.4z"/>
		<path id="Layer" class="s2" d="m192.6 317.3l2.1-10.7h-15.4l-2.5 10.7h15.8z"/>
		<path id="Layer" fill-rule="evenodd" class="s3" d="m192.6 317.8h-15.8q-0.1 0-0.2 0 0 0-0.1 0 0-0.1-0.1-0.1 0 0 0-0.1-0.1 0-0.1-0.1 0 0 0-0.1-0.1 0-0.1-0.1 0 0 0.1-0.1l2.5-10.7q0-0.1 0.1-0.2 0-0.1 0.1-0.1 0.1-0.1 0.1-0.1 0.1 0 0.2 0h15.4q0 0 0.1 0 0.1 0 0.1 0 0.1 0 0.1 0.1 0 0 0.1 0.1 0 0 0 0.1 0.1 0 0.1 0.1 0 0 0 0.1 0 0 0 0.1l-2.1 10.7q0 0.1 0 0.2-0.1 0-0.1 0.1-0.1 0.1-0.2 0.1-0.1 0-0.2 0zm-15.2-1h14.8l1.9-9.7h-14.4z"/>
		<path id="Layer" class="s2" d="m335.7 317.3l-2.6-10.7h-15.4l2.1 10.7h15.9z"/>
		<path id="Layer" fill-rule="evenodd" class="s3" d="m335.7 317.8h-15.9q-0.1 0-0.2 0-0.1 0-0.1-0.1-0.1-0.1-0.2-0.1 0-0.1 0-0.2l-2.1-10.7q0-0.1 0-0.2 0.1-0.2 0.1-0.2 0.1-0.1 0.2-0.2 0.1 0 0.2 0h15.4q0.1 0 0.2 0 0 0 0.1 0.1 0.1 0 0.1 0.1 0.1 0.1 0.1 0.2l2.6 10.7q0 0.1 0 0.1 0 0.1 0 0.1-0.1 0.1-0.1 0.1 0 0.1 0 0.1-0.1 0.1-0.1 0.1-0.1 0-0.1 0.1-0.1 0-0.1 0-0.1 0-0.1 0zm-15.5-1h14.8l-2.3-9.7h-14.4z"/>
		<path id="Layer" class="s2" d="m351.6 317.3l-3.1-10.7h-15.4l2.6 10.7h15.9z"/>
		<path id="Layer" fill-rule="evenodd" class="s3" d="m351.6 317.8h-15.9q-0.1 0-0.2 0-0.1 0-0.1-0.1-0.1 0-0.2-0.1 0-0.1 0-0.2l-2.6-10.7q0-0.1 0-0.1 0-0.1 0-0.1 0-0.1 0-0.1 0.1-0.1 0.1-0.1 0-0.1 0.1-0.1 0 0 0.1-0.1 0 0 0.1 0 0 0 0.1 0h15.4q0 0 0.1 0 0.1 0 0.2 0.1 0 0 0.1 0.1 0 0.1 0 0.1l3.1 10.8q0 0 0 0.1 0 0.1 0 0.1 0 0.1 0 0.1 0 0.1-0.1 0.1 0 0.1-0.1 0.1 0 0 0 0.1-0.1 0-0.1 0-0.1 0-0.1 0zm-15.5-1h14.8l-2.8-9.7h-14.4z"/>
		<path id="Layer" class="s2" d="m176.8 317.3l2.5-10.7h-15.4l-3.1 10.7h15.9z"/>
		<path id="Layer" fill-rule="evenodd" class="s3" d="m176.8 317.8h-16q0 0-0.1 0 0 0-0.1 0 0-0.1-0.1-0.1 0 0-0.1-0.1 0 0 0-0.1 0 0 0-0.1 0 0 0-0.1 0-0.1 0-0.1l3-10.8q0.1 0 0.1-0.1 0.1-0.1 0.1-0.1 0.1-0.1 0.2-0.1 0 0 0.1 0h15.4q0.1 0 0.1 0 0.1 0 0.1 0 0.1 0.1 0.1 0.1 0.1 0 0.1 0.1 0 0 0.1 0.1 0 0 0 0.1 0 0 0 0.1 0 0 0 0.1l-2.6 10.7q0 0.1 0 0.2-0.1 0.1-0.1 0.1-0.1 0.1-0.2 0.1-0.1 0-0.2 0zm-15.2-1h14.9l2.3-9.7h-14.4z"/>
		<path id="Layer" class="s2" d="m288 317.3l-1.1-10.7h-15.3l0.5 10.7h15.9z"/>
		<path id="Layer" fill-rule="evenodd" class="s3" d="m288 317.8h-15.9q-0.1 0-0.2 0-0.1-0.1-0.1-0.1-0.1-0.1-0.2-0.2 0-0.1 0-0.2l-0.5-10.7q0-0.1 0-0.1 0-0.1 0-0.1 0 0 0-0.1 0.1 0 0.1-0.1 0 0 0.1 0 0-0.1 0.1-0.1 0 0 0.1 0 0 0 0.1 0h15.4q0.1 0 0.2 0 0.1 0 0.1 0.1 0.1 0.1 0.2 0.2 0 0 0 0.1l1 10.8q0 0.1 0 0.2-0.1 0.1-0.1 0.2-0.1 0-0.2 0.1-0.1 0-0.2 0zm-15.4-1h14.8l-0.9-9.7h-14.4z"/>
		<path id="Layer" class="s2" d="m367.4 317.3l-3.6-10.7h-15.3l3.1 10.7h15.9z"/>
		<path id="Layer" fill-rule="evenodd" class="s3" d="m367.4 317.8h-15.8q-0.1 0-0.2 0-0.1 0-0.1-0.1-0.1 0-0.2-0.1 0-0.1 0-0.1l-3.1-10.8q0-0.1 0-0.2 0-0.1 0.1-0.2 0.1-0.1 0.2-0.2 0.1 0 0.2 0h15.4q0 0 0.1 0 0.1 0 0.2 0.1 0 0 0.1 0.1 0 0 0 0.1l3.7 10.8q0 0 0 0.1 0 0 0 0.1 0 0.1-0.1 0.1 0 0.1 0 0.1-0.1 0.1-0.1 0.1-0.1 0-0.1 0.1-0.1 0-0.1 0-0.1 0-0.1 0zm-15.6-1h14.9l-3.3-9.7h-14.4z"/>
		<path id="Layer" class="s2" d="m319.8 317.3l-2.1-10.7h-15.4l1.6 10.7h15.9z"/>
		<path id="Layer" fill-rule="evenodd" class="s3" d="m319.8 317.8h-15.9q-0.1 0-0.2 0-0.1 0-0.1-0.1-0.1-0.1-0.2-0.1 0-0.1 0-0.2l-1.6-10.8q0-0.1 0.1-0.2 0-0.1 0.1-0.1 0-0.1 0.1-0.2 0.1 0 0.2 0h15.4q0.1 0 0.2 0 0.1 0 0.1 0.1 0.1 0 0.1 0.1 0.1 0.1 0.1 0.2l2.1 10.7q0 0.1 0 0.2-0.1 0.1-0.1 0.2-0.1 0.1-0.2 0.2-0.1 0-0.2 0zm-15.5-1h14.9l-1.9-9.7h-14.4z"/>
		<path id="Layer" class="s2" d="m303.9 317.3l-1.6-10.7h-15.3l1 10.7h15.9z"/>
		<path id="Layer" fill-rule="evenodd" class="s3" d="m303.9 317.8h-15.9q-0.1 0-0.2 0-0.1 0-0.1-0.1-0.1-0.1-0.1-0.2-0.1 0-0.1-0.1l-1-10.8q0 0 0-0.1 0 0 0-0.1 0 0 0.1-0.1 0 0 0-0.1 0.1 0 0.1 0 0-0.1 0.1-0.1 0 0 0.1 0 0 0 0.1 0h15.4q0.1 0 0.1 0 0.1 0 0.2 0.1 0.1 0.1 0.1 0.1 0.1 0.1 0.1 0.2l1.5 10.7q0 0.1 0 0.2 0 0 0 0.1 0 0 0 0.1-0.1 0-0.1 0 0 0.1-0.1 0.1 0 0.1-0.1 0.1 0 0-0.1 0-0.1 0-0.1 0zm-15.4-1h14.8l-1.4-9.7h-14.4z"/>
		<path id="Layer" class="s2" d="m256.2 317.3v-10.7h-15.4l-0.5 10.7h15.9z"/>
		<path id="Layer" fill-rule="evenodd" class="s3" d="m256.2 317.8h-15.9q0 0-0.1 0 0 0-0.1 0 0 0-0.1-0.1 0 0 0 0-0.1-0.1-0.1-0.1 0-0.1-0.1-0.1 0-0.1 0-0.1 0-0.1 0-0.1l0.5-10.8q0 0 0.1-0.1 0-0.1 0.1-0.2 0 0 0.1-0.1 0.1 0 0.2 0h15.4q0.1 0 0.2 0 0.1 0.1 0.2 0.1 0 0.1 0.1 0.2 0 0.1 0 0.2v10.7q0 0.1 0 0.1 0 0.1 0 0.1-0.1 0.1-0.1 0.1 0 0 0 0.1-0.1 0-0.1 0-0.1 0.1-0.1 0.1 0 0-0.1 0 0 0-0.1 0zm-15.4-1h14.9v-9.7h-14.4z"/>
		<path id="Layer" class="s2" d="m145 317.3h-15.9l-4.4 11.5h16.4l3.9-11.5z"/>
		<path id="Layer" fill-rule="evenodd" class="s3" d="m141.1 329.3h-16.4q-0.1 0-0.1 0-0.1 0-0.2-0.1 0 0 0 0-0.1-0.1-0.1-0.1-0.1-0.1-0.1-0.1 0-0.1 0-0.1 0-0.1 0-0.2 0 0 0-0.1l4.4-11.5q0 0 0.1-0.1 0 0 0.1-0.1 0 0 0.1-0.1 0.1 0 0.2 0h15.9q0.1 0 0.1 0 0.1 0 0.1 0.1 0.1 0 0.1 0 0.1 0.1 0.1 0.1 0 0.1 0.1 0.1 0 0.1 0 0.1 0 0.1 0 0.2 0 0 0 0.1l-3.9 11.5q0 0.1-0.1 0.1 0 0.1-0.1 0.1-0.1 0.1-0.1 0.1-0.1 0-0.2 0zm-15.7-1h15.4l3.5-10.5h-14.9z"/>
		<path id="Layer" class="s2" d="m148.6 306.6h-15.4l-4.1 10.7h15.9l3.6-10.7z"/>
		<path id="Layer" fill-rule="evenodd" class="s3" d="m145 317.8h-15.9q-0.1 0-0.2 0 0 0-0.1 0 0-0.1-0.1-0.1 0 0 0-0.1-0.1 0-0.1-0.1 0-0.1 0-0.1 0-0.1 0-0.1 0-0.1 0-0.2l4.1-10.7q0-0.1 0.1-0.1 0-0.1 0.1-0.1 0.1-0.1 0.1-0.1 0.1 0 0.2 0h15.4q0.1 0 0.2 0 0.1 0.1 0.2 0.2 0 0.1 0.1 0.2 0 0.1-0.1 0.2l-3.6 10.8q0 0 0 0.1-0.1 0.1-0.1 0.1-0.1 0.1-0.2 0.1 0 0-0.1 0zm-15.2-1h14.8l3.3-9.7h-14.4z"/>
		<path id="Layer" class="s2" d="m160.8 317.3l3.1-10.7h-15.3l-3.6 10.7h15.8z"/>
		<path id="Layer" fill-rule="evenodd" class="s3" d="m160.8 317.8h-15.8q-0.1 0-0.2 0-0.1-0.1-0.2-0.2-0.1-0.1-0.1-0.2 0-0.1 0-0.2l3.6-10.8q0-0.1 0.1-0.1 0-0.1 0.1-0.1 0.1-0.1 0.1-0.1 0.1 0 0.2 0h15.4q0 0 0.1 0 0 0 0.1 0 0 0.1 0.1 0.1 0 0 0.1 0.1 0 0 0 0.1 0 0 0.1 0.1 0 0 0 0.1 0 0.1 0 0.1l-3.1 10.8q-0.1 0-0.1 0.1-0.1 0.1-0.1 0.1-0.1 0.1-0.2 0.1-0.1 0-0.2 0zm-15.1-1h14.8l2.8-9.7h-14.4z"/>
		<path id="Layer" class="s2" d="m120 341.1l-5.1 13.2h17.7l4.4-13.2h-17z"/>
		<path id="Layer" fill-rule="evenodd" class="s3" d="m132.6 354.8h-17.7q0 0-0.1 0-0.1 0-0.1 0-0.1-0.1-0.1-0.1-0.1 0-0.1-0.1 0 0 0-0.1-0.1 0-0.1-0.1 0-0.1 0-0.1 0-0.1 0.1-0.1l5-13.3q0 0 0.1-0.1 0-0.1 0.1-0.1 0.1 0 0.1-0.1 0.1 0 0.2 0h17q0 0 0.1 0 0.1 0 0.1 0.1 0.1 0 0.1 0 0.1 0.1 0.1 0.1 0 0.1 0 0.1 0.1 0.1 0.1 0.1 0 0.1 0 0.2 0 0 0 0.1l-4.5 13.2q0 0.1 0 0.1-0.1 0.1-0.1 0.1-0.1 0.1-0.2 0.1 0 0-0.1 0zm-16.9-1h16.5l4.1-12.2h-16z"/>
		<path id="Layer" class="s2" d="m141.1 328.8h-16.4l-4.7 12.3h17l4.1-12.3z"/>
		<path id="Layer" fill-rule="evenodd" class="s3" d="m137 341.6h-17q-0.1 0-0.2 0-0.1-0.1-0.2-0.2-0.1-0.1-0.1-0.2 0-0.2 0-0.3l4.7-12.3q0.1-0.1 0.1-0.1 0.1-0.1 0.1-0.1 0.1-0.1 0.2-0.1 0 0 0.1 0h16.4q0.1 0 0.2 0 0 0 0.1 0.1 0 0 0.1 0 0 0.1 0.1 0.1 0 0.1 0 0.1 0 0.1 0 0.1 0 0.1 0 0.1 0 0.1 0 0.2l-4.1 12.3q0 0-0.1 0.1 0 0.1-0.1 0.1-0.1 0.1-0.1 0.1-0.1 0-0.2 0zm-16.3-1h16l3.8-11.3h-15.5z"/>
		<path id="Layer" class="s2" d="m137 341.1l-4.4 13.2h17.6l3.8-13.2h-17z"/>
		<path id="Layer" fill-rule="evenodd" class="s3" d="m150.3 354.8h-17.7q-0.1 0-0.2 0-0.1-0.1-0.2-0.2-0.1-0.1-0.1-0.2 0-0.1 0-0.2l4.4-13.2q0.1-0.1 0.1-0.1 0.1-0.1 0.1-0.1 0.1-0.1 0.2-0.1 0 0 0.1 0h17q0.1 0 0.1 0 0.1 0 0.1 0 0.1 0 0.1 0.1 0.1 0 0.1 0.1 0 0 0.1 0.1 0 0 0 0.1 0 0 0 0.1 0 0 0 0.1l-3.8 13.2q0 0.1-0.1 0.1 0 0.1-0.1 0.1 0 0.1-0.1 0.1-0.1 0-0.1 0zm-17-1h16.5l3.5-12.2h-16z"/>
		<path id="Layer" class="s2" d="m208.5 317.3l1.6-10.7h-15.4l-2.1 10.7h15.9z"/>
		<path id="Layer" fill-rule="evenodd" class="s3" d="m208.5 317.8h-15.9q0 0-0.1 0 0 0-0.1 0 0-0.1-0.1-0.1 0 0 0-0.1-0.1 0-0.1-0.1 0 0 0-0.1-0.1 0-0.1-0.1 0 0 0-0.1l2.1-10.7q0-0.1 0-0.2 0.1-0.1 0.1-0.1 0.1-0.1 0.2-0.1 0.1 0 0.2 0h15.3q0.1 0 0.2 0 0.1 0.1 0.2 0.2 0.1 0 0.1 0.1 0 0.1 0 0.2l-1.5 10.8q0 0.1-0.1 0.2 0 0-0.1 0.1 0 0-0.1 0.1-0.1 0-0.2 0zm-15.3-1h14.9l1.4-9.7h-14.4z"/>
		<path id="Layer" class="s2" d="m206.9 328.8l1.6-11.5h-15.9l-2.2 11.5h16.5z"/>
		<path id="Layer" fill-rule="evenodd" class="s3" d="m206.9 329.3h-16.5q-0.1 0-0.2 0-0.1-0.1-0.1-0.2-0.1-0.1-0.1-0.2-0.1-0.1 0-0.2l2.1-11.5q0.1-0.1 0.1-0.1 0.1-0.1 0.1-0.2 0.1 0 0.2-0.1 0.1 0 0.1 0h15.9q0.1 0 0.1 0 0.1 0 0.1 0.1 0.1 0 0.1 0 0.1 0 0.1 0.1 0 0 0.1 0.1 0 0 0 0.1 0 0 0 0.1 0 0 0 0.1l-1.6 11.5q0 0.1-0.1 0.1 0 0.1-0.1 0.2 0 0-0.1 0.1-0.1 0-0.2 0zm-15.9-1h15.5l1.5-10.5h-14.9z"/>
		<path id="Layer" class="s2" d="m190.4 328.8l2.2-11.5h-15.9l-2.7 11.5h16.4z"/>
		<path id="Layer" fill-rule="evenodd" class="s3" d="m190.4 329.3h-16.4q-0.1 0-0.1 0-0.1 0-0.1 0-0.1-0.1-0.1-0.1-0.1 0-0.1-0.1 0 0-0.1-0.1 0 0 0-0.1 0 0 0-0.1 0-0.1 0-0.1l2.7-11.5q0.1-0.1 0.1-0.2 0.1 0 0.1-0.1 0.1 0 0.2-0.1 0.1 0 0.1 0h15.9q0.1 0 0.1 0 0.1 0 0.1 0.1 0.1 0 0.1 0 0.1 0.1 0.1 0.1 0 0 0.1 0.1 0 0 0 0.1 0 0 0 0.1 0 0.1 0 0.1l-2.2 11.5q0 0.1 0 0.2-0.1 0-0.1 0.1-0.1 0-0.2 0.1-0.1 0-0.2 0zm-15.8-1h15.4l2-10.5h-14.9z"/>
		<path id="Layer" class="s2" d="m223.3 328.8l1.1-11.5h-15.9l-1.6 11.5h16.4z"/>
		<path id="Layer" fill-rule="evenodd" class="s3" d="m223.3 329.3h-16.4q-0.1 0-0.2 0-0.1-0.1-0.2-0.2-0.1-0.1-0.1-0.2 0-0.1 0-0.2l1.6-11.5q0 0 0.1-0.1 0-0.1 0.1-0.2 0 0 0.1 0 0.1-0.1 0.2-0.1h15.9q0 0 0.1 0 0 0 0.1 0.1 0 0 0.1 0 0 0 0 0.1 0.1 0 0.1 0.1 0 0 0.1 0.1 0 0 0 0.1 0 0 0 0.1l-1.1 11.5q0 0-0.1 0.1 0 0.1-0.1 0.2 0 0-0.1 0.1-0.1 0-0.2 0zm-15.8-1h15.4l1-10.5h-14.9z"/>
		<path id="Layer" class="s2" d="m160.8 317.3h-15.8l-3.9 11.5h16.5l3.2-11.5z"/>
		<path id="Layer" fill-rule="evenodd" class="s3" d="m157.6 329.3h-16.5q0 0-0.1 0-0.1 0-0.1-0.1-0.1 0-0.1 0 0-0.1-0.1-0.1 0 0 0-0.1-0.1-0.1-0.1-0.1 0-0.1 0-0.1 0-0.1 0.1-0.2l3.8-11.4q0-0.1 0.1-0.2 0 0 0.1-0.1 0 0 0.1-0.1 0.1 0 0.2 0h15.9q0 0 0.1 0 0 0 0.1 0.1 0 0 0.1 0 0 0.1 0.1 0.1 0 0.1 0 0.1 0 0.1 0 0.1 0.1 0.1 0.1 0.1-0.1 0.1-0.1 0.2l-3.2 11.4q-0.1 0.1-0.1 0.2-0.1 0.1-0.1 0.1-0.1 0-0.2 0.1 0 0-0.1 0zm-15.8-1h15.4l3-10.5h-14.9z"/>
		<path id="Layer" class="s2" d="m358.4 341.1h17.1l-4.2-12.3h-16.4l3.5 12.3z"/>
		<path id="Layer" fill-rule="evenodd" class="s3" d="m375.4 341.6h-16.9q-0.1 0-0.2 0-0.1 0-0.2-0.1 0 0-0.1-0.1 0-0.1 0-0.2l-3.6-12.3q0 0 0-0.1 0 0 0-0.1 0 0 0-0.1 0.1-0.1 0.1-0.1 0 0 0.1-0.1 0 0 0.1 0 0-0.1 0.1-0.1 0 0 0.1 0h16.4q0.1 0 0.2 0 0.1 0 0.1 0.1 0.1 0 0.1 0.1 0.1 0.1 0.1 0.1l4.1 12.4q0 0.1 0 0.1 0.1 0.1 0 0.1 0 0.1 0 0.1 0 0.1-0.1 0.1 0 0.1 0 0.1-0.1 0.1-0.1 0.1-0.1 0-0.1 0-0.1 0-0.1 0zm-16.7-1h16l-3.8-11.3h-15.5z"/>
		<path id="Layer" class="s2" d="m174 328.8l2.8-11.5h-16l-3.2 11.5h16.4z"/>
		<path id="Layer" fill-rule="evenodd" class="s3" d="m174 329.3h-16.4q-0.1 0-0.1 0-0.1 0-0.2-0.1 0 0-0.1 0 0-0.1 0-0.1-0.1 0-0.1-0.1 0 0 0-0.1 0-0.1 0-0.1 0-0.1 0-0.1l3.3-11.5q0-0.1 0-0.2 0.1 0 0.1-0.1 0.1 0 0.2-0.1 0.1 0 0.1 0h15.9q0.1 0 0.2 0 0 0 0.1 0.1 0 0 0.1 0 0 0.1 0 0.1 0.1 0.1 0.1 0.1 0 0.1 0 0.1 0 0.1 0 0.1 0 0.1 0 0.1l-2.7 11.5q0 0.1-0.1 0.2 0 0-0.1 0.1-0.1 0-0.1 0.1-0.1 0-0.2 0zm-15.8-1h15.4l2.5-10.5h-14.9z"/>
		<path id="Layer" class="s2" d="m141.1 328.8l-4.1 12.3h17l3.6-12.3h-16.5z"/>
		<path id="Layer" fill-rule="evenodd" class="s3" d="m154 341.6h-17q-0.1 0-0.1 0-0.1 0-0.1 0-0.1-0.1-0.1-0.1-0.1-0.1-0.1-0.1 0 0-0.1-0.1 0-0.1 0-0.1 0-0.1 0-0.1 0-0.1 0-0.1l4.1-12.3q0.1-0.1 0.1-0.2 0.1-0.1 0.1-0.1 0.1 0 0.2-0.1 0 0 0.1 0h16.5q0.1 0 0.2 0.1 0.1 0 0.2 0.1 0 0.1 0 0.2 0.1 0.1 0 0.2l-3.5 12.3q0 0.1-0.1 0.2 0 0.1-0.1 0.1-0.1 0.1-0.1 0.1-0.1 0-0.2 0zm-16.3-1h16l3.2-11.3h-15.4z"/>
		<path id="Layer" class="s2" d="m322 328.8l-2.2-11.5h-15.9l1.6 11.5h16.5z"/>
		<path id="Layer" fill-rule="evenodd" class="s3" d="m305.5 329.3q0 0-0.1 0-0.1-0.1-0.2-0.1 0-0.1-0.1-0.2 0 0 0-0.1l-1.7-11.5q0-0.1 0-0.1 0-0.1 0-0.1 0-0.1 0-0.1 0.1-0.1 0.1-0.1 0-0.1 0.1-0.1 0 0 0.1 0 0-0.1 0.1-0.1 0 0 0.1 0h15.9q0.1 0 0.1 0 0.1 0.1 0.2 0.1 0.1 0.1 0.1 0.2 0.1 0 0.1 0.1l2.2 11.5q0 0.1 0 0.2-0.1 0.1-0.1 0.2-0.1 0.1-0.2 0.2-0.1 0-0.2 0zm0.4-1h15.4l-2-10.5h-14.9z"/>
		<path id="Layer" class="s2" d="m305.5 328.8l-1.6-11.5h-15.9l1.1 11.5h16.4z"/>
		<path id="Layer" fill-rule="evenodd" class="s3" d="m289.1 329.3q-0.1 0-0.2 0-0.1-0.1-0.1-0.1-0.1-0.1-0.1-0.2-0.1-0.1-0.1-0.1l-1.1-11.5q0-0.1 0-0.1 0-0.1 0-0.1 0-0.1 0.1-0.1 0-0.1 0-0.1 0.1-0.1 0.1-0.1 0 0 0.1 0 0-0.1 0.1-0.1 0 0 0.1 0h15.9q0.1 0 0.2 0.1 0 0 0.1 0 0.1 0.1 0.1 0.2 0.1 0.1 0.1 0.1l1.6 11.5q0 0.1 0 0.2 0 0.1-0.1 0.2-0.1 0.1-0.2 0.2-0.1 0-0.2 0zm0.4-1h15.5l-1.5-10.5h-15z"/>
		<path id="Layer" class="s2" d="m354.9 328.8l-3.3-11.5h-15.9l2.7 11.5h16.5z"/>
		<path id="Layer" fill-rule="evenodd" class="s3" d="m354.9 329.3h-16.5q-0.1 0-0.1 0-0.1-0.1-0.2-0.1 0-0.1-0.1-0.1 0-0.1-0.1-0.2l-2.7-11.5q0 0 0-0.1 0 0 0-0.1 0 0 0-0.1 0 0 0.1-0.1 0 0 0.1-0.1 0 0 0.1 0 0-0.1 0.1-0.1 0 0 0.1 0h15.9q0 0 0.1 0 0.1 0.1 0.2 0.1 0 0.1 0.1 0.1 0 0.1 0 0.2l3.4 11.5q0 0 0 0.1 0 0 0 0.1-0.1 0.1-0.1 0.1 0 0.1 0 0.1-0.1 0-0.1 0.1-0.1 0-0.1 0-0.1 0.1-0.1 0.1-0.1 0-0.1 0zm-16.1-1h15.4l-3-10.5h-14.9z"/>
		<path id="Layer" class="s2" d="m256.2 328.8v-11.5h-15.9l-0.5 11.5h16.4z"/>
		<path id="Layer" fill-rule="evenodd" class="s3" d="m256.2 329.3h-16.4q-0.1 0-0.1 0-0.1 0-0.1 0-0.1-0.1-0.1-0.1-0.1 0-0.1 0 0-0.1-0.1-0.1 0-0.1 0-0.1 0-0.1 0-0.1 0-0.1 0-0.1l0.5-11.5q0-0.1 0.1-0.2 0-0.1 0.1-0.1 0-0.1 0.1-0.1 0.1-0.1 0.2-0.1h15.9q0.1 0 0.2 0.1 0.1 0 0.2 0.1 0 0 0.1 0.1 0 0.1 0 0.2v11.5q0 0.1 0 0.1 0 0 0 0.1 0 0-0.1 0.1 0 0 0 0.1-0.1 0-0.1 0-0.1 0-0.1 0.1 0 0-0.1 0 0 0-0.1 0zm-15.9-1h15.4v-10.5h-14.9z"/>
		<path id="Layer" class="s2" d="m289.1 328.8l-1.1-11.5h-15.9l0.6 11.5h16.4z"/>
		<path id="Layer" fill-rule="evenodd" class="s3" d="m289.1 329.3h-16.4q-0.1 0-0.2 0-0.1-0.1-0.2-0.1-0.1-0.1-0.1-0.2 0-0.1 0-0.2l-0.6-11.5q0 0 0-0.1 0 0 0-0.1 0 0 0.1-0.1 0 0 0 0 0.1-0.1 0.1-0.1 0.1 0 0.1 0 0.1-0.1 0.1-0.1 0 0 0.1 0h15.9q0.1 0 0.2 0.1 0.1 0 0.1 0 0.1 0.1 0.1 0.2 0.1 0.1 0.1 0.2l1.1 11.5q0 0 0 0.1 0 0 0 0.1 0 0-0.1 0.1 0 0 0 0-0.1 0.1-0.1 0.1 0 0-0.1 0.1 0 0-0.1 0 0 0-0.1 0zm-16-1h15.4l-1-10.5h-14.9z"/>
		<path id="Layer" class="s2" d="m272.7 328.8l-0.6-11.5h-15.9v11.5h16.5z"/>
		<path id="Layer" fill-rule="evenodd" class="s3" d="m272.7 329.3h-16.5q-0.1 0-0.2 0-0.1-0.1-0.1-0.1-0.1-0.1-0.1-0.2-0.1-0.1-0.1-0.2v-11.5q0 0 0-0.1 0 0 0.1-0.1 0 0 0-0.1 0 0 0.1 0 0-0.1 0-0.1 0.1 0 0.1 0 0.1-0.1 0.1-0.1 0.1 0 0.1 0h15.9q0.1 0 0.2 0.1 0.1 0 0.1 0.1 0.1 0 0.2 0.1 0 0.1 0 0.2l0.6 11.5q0 0 0 0.1-0.1 0-0.1 0.1 0 0 0 0.1 0 0-0.1 0.1 0 0-0.1 0 0 0 0 0.1-0.1 0-0.1 0-0.1 0-0.1 0zm-16-1h15.4l-0.5-10.5h-14.9z"/>
		<path id="Layer" class="s2" d="m239.8 328.8l0.5-11.5h-15.9l-1.1 11.5h16.5z"/>
		<path id="Layer" fill-rule="evenodd" class="s3" d="m239.8 329.3h-16.5q0 0-0.1 0 0 0-0.1 0 0-0.1-0.1-0.1 0 0 0-0.1-0.1 0-0.1 0 0-0.1 0-0.1-0.1-0.1-0.1-0.1 0-0.1 0-0.1l1.1-11.5q0-0.1 0.1-0.2 0-0.1 0.1-0.2 0.1 0 0.1 0 0.1-0.1 0.2-0.1h15.9q0.1 0 0.2 0.1 0.1 0 0.2 0.1 0.1 0 0.1 0.1 0 0.1 0 0.2l-0.5 11.5q0 0.1-0.1 0.2 0 0.1-0.1 0.2 0 0-0.1 0.1-0.1 0-0.2 0zm-15.9-1h15.4l0.5-10.5h-14.9z"/>
		<path id="Layer" class="s2" d="m289.1 328.8l1.2 12.3h17l-1.8-12.3h-16.4z"/>
		<path id="Layer" fill-rule="evenodd" class="s3" d="m307.3 341.6h-17q-0.1 0-0.2 0 0-0.1-0.1-0.1-0.1-0.1-0.1-0.2-0.1 0-0.1-0.1l-1.2-12.3q0-0.1 0-0.2 0 0 0.1-0.1 0 0 0 0 0-0.1 0.1-0.1 0-0.1 0-0.1 0.1 0 0.1-0.1 0.1 0 0.1 0 0.1 0 0.1 0h16.5q0.1 0 0.1 0 0.1 0.1 0.2 0.1 0.1 0.1 0.1 0.2 0.1 0 0.1 0.1l1.7 12.3q0 0.1 0 0.1 0 0.1 0 0.1 0 0.1 0 0.1-0.1 0.1-0.1 0.1 0 0-0.1 0.1 0 0-0.1 0 0 0.1-0.1 0.1 0 0-0.1 0zm-16.6-1h16l-1.6-11.3h-15.5z"/>
		<path id="Layer" class="s2" d="m305.5 328.8l1.8 12.3h17.1l-2.4-12.3h-16.5z"/>
		<path id="Layer" fill-rule="evenodd" class="s3" d="m324.4 341.6h-17q-0.1 0-0.2 0-0.1-0.1-0.2-0.1 0-0.1-0.1-0.2 0 0 0-0.1l-1.8-12.3q0-0.1 0-0.1 0-0.1 0-0.1 0-0.1 0-0.1 0.1-0.1 0.1-0.1 0-0.1 0.1-0.1 0 0 0.1-0.1 0 0 0.1 0 0 0 0.1 0h16.4q0.1 0 0.2 0 0.1 0.1 0.1 0.1 0.1 0.1 0.1 0.1 0.1 0.1 0.1 0.2l2.4 12.3q0 0.1 0 0.1 0 0.1-0.1 0.1 0 0.1 0 0.1 0 0.1-0.1 0.1 0 0.1 0 0.1-0.1 0-0.1 0.1-0.1 0-0.1 0-0.1 0-0.1 0zm-16.6-1h16l-2.2-11.3h-15.5z"/>
		<path id="Layer" class="s2" d="m157.6 328.8l-3.6 12.3h17.1l2.9-12.3h-16.4z"/>
		<path id="Layer" fill-rule="evenodd" class="s3" d="m171.1 341.6h-17.1q-0.1 0-0.1 0-0.1 0-0.1 0-0.1-0.1-0.1-0.1-0.1 0-0.1-0.1 0 0-0.1-0.1 0 0 0-0.1 0-0.1 0-0.1 0-0.1 0-0.1l3.5-12.3q0.1-0.1 0.1-0.2 0.1 0 0.1-0.1 0.1 0 0.2-0.1 0 0 0.1 0h16.5q0.1 0 0.2 0.1 0.1 0 0.2 0.1 0.1 0.1 0.1 0.2 0 0.1 0 0.2l-3 12.3q0 0.1 0 0.2-0.1 0.1-0.1 0.1-0.1 0.1-0.2 0.1 0 0-0.1 0zm-16.4-1h16l2.7-11.3h-15.5z"/>
		<path id="Layer" class="s2" d="m322 328.8l2.4 12.3h17l-3-12.3h-16.4z"/>
		<path id="Layer" fill-rule="evenodd" class="s3" d="m341.4 341.6h-17q-0.1 0-0.2 0-0.1-0.1-0.1-0.1-0.1-0.1-0.1-0.1-0.1-0.1-0.1-0.2l-2.4-12.3q0-0.1 0-0.1 0-0.1 0-0.1 0-0.1 0-0.1 0.1-0.1 0.1-0.1 0-0.1 0.1-0.1 0 0 0.1 0 0-0.1 0.1-0.1 0 0 0.1 0h16.4q0.1 0 0.2 0 0.1 0.1 0.1 0.1 0.1 0.1 0.1 0.1 0.1 0.1 0.1 0.2l3 12.3q0 0.1 0 0.1 0 0.1 0 0.1 0 0.1 0 0.1 0 0.1-0.1 0.1 0 0.1-0.1 0.1 0 0-0.1 0.1 0 0-0.1 0 0 0-0.1 0zm-16.6-1h16l-2.8-11.3h-15.4z"/>
		<path id="Layer" class="s2" d="m256.2 328.8v12.3h17.1l-0.6-12.3h-16.5z"/>
		<path id="Layer" fill-rule="evenodd" class="s3" d="m273.3 341.6h-17q-0.1 0-0.2 0-0.1-0.1-0.2-0.1-0.1-0.1-0.1-0.2 0-0.1 0-0.2v-12.3q0 0 0-0.1 0 0 0-0.1 0 0 0-0.1 0.1 0 0.1-0.1 0 0 0.1 0 0 0 0.1-0.1 0 0 0.1 0 0 0 0.1 0h16.4q0.1 0 0.2 0 0.1 0.1 0.1 0.1 0.1 0.1 0.2 0.2 0 0.1 0 0.2l0.6 12.3q0 0 0 0.1 0 0 0 0.1 0 0-0.1 0.1 0 0 0 0.1-0.1 0-0.1 0-0.1 0.1-0.1 0.1-0.1 0-0.1 0-0.1 0-0.1 0zm-16.6-1h16l-0.5-11.3h-15.5z"/>
		<path id="Layer" class="s2" d="m338.4 328.8l3 12.3h17l-3.5-12.3h-16.5z"/>
		<path id="Layer" fill-rule="evenodd" class="s3" d="m358.4 341.6h-17q-0.1 0-0.1 0-0.1 0-0.2-0.1-0.1 0-0.1-0.1 0-0.1-0.1-0.2l-3-12.3q0 0 0-0.1 0-0.1 0-0.1 0-0.1 0.1-0.1 0-0.1 0-0.1 0.1-0.1 0.1-0.1 0.1 0 0.1-0.1 0.1 0 0.1 0 0.1 0 0.1 0h16.5q0 0 0.1 0 0.1 0.1 0.2 0.1 0 0.1 0.1 0.1 0 0.1 0 0.2l3.6 12.3q0 0.1 0 0.1 0 0.1 0 0.1 0 0.1 0 0.1 0 0.1-0.1 0.1 0 0.1-0.1 0.1 0 0-0.1 0.1 0 0-0.1 0 0 0-0.1 0zm-16.6-1h16l-3.3-11.3h-15.4z"/>
		<path id="Layer" class="s2" d="m272.7 328.8l0.6 12.3h17l-1.2-12.3h-16.4z"/>
		<path id="Layer" fill-rule="evenodd" class="s3" d="m290.3 341.6h-17q-0.1 0-0.2 0-0.1-0.1-0.2-0.1 0-0.1-0.1-0.2 0-0.1 0-0.2l-0.6-12.3q0 0 0-0.1 0 0 0-0.1 0 0 0.1-0.1 0 0 0 0 0.1-0.1 0.1-0.1 0 0 0.1-0.1 0 0 0.1 0 0 0 0.1 0h16.4q0.1 0 0.2 0 0.1 0.1 0.1 0.1 0.1 0.1 0.2 0.2 0 0.1 0 0.2l1.2 12.3q0 0 0 0.1 0 0 0 0.1-0.1 0-0.1 0.1 0 0 0 0-0.1 0.1-0.1 0.1-0.1 0-0.1 0.1-0.1 0-0.1 0-0.1 0-0.1 0zm-16.6-1h16l-1-11.3h-15.5z"/>
		<path id="Layer" class="s2" d="m190.4 328.8l-2.3 12.3h17l1.8-12.3h-16.5z"/>
		<path id="Layer" fill-rule="evenodd" class="s3" d="m205.1 341.6h-17q0 0-0.1 0 0 0-0.1 0 0-0.1-0.1-0.1 0 0 0-0.1-0.1 0-0.1-0.1 0 0 0-0.1-0.1 0-0.1-0.1 0 0 0-0.1l2.4-12.3q0-0.1 0.1-0.2 0 0 0.1-0.1 0 0 0.1-0.1 0.1 0 0.2 0h16.4q0.1 0 0.2 0 0.1 0.1 0.2 0.2 0.1 0.1 0.1 0.2 0 0.1 0 0.2l-1.7 12.3q0 0.1-0.1 0.2 0 0-0.1 0.1-0.1 0.1-0.2 0.1-0.1 0-0.2 0zm-16.4-1h16l1.6-11.3h-15.4z"/>
		<path id="Layer" class="s2" d="m174 328.8l-2.9 12.3h17l2.3-12.3h-16.4z"/>
		<path id="Layer" fill-rule="evenodd" class="s3" d="m188.1 341.6h-17q-0.1 0-0.1 0-0.1 0-0.1 0-0.1-0.1-0.1-0.1-0.1 0-0.1-0.1 0 0 0-0.1-0.1 0-0.1-0.1 0 0 0-0.1 0 0 0-0.1l3-12.3q0-0.1 0-0.2 0.1 0 0.1-0.1 0.1 0 0.2-0.1 0.1 0 0.1 0h16.5q0 0 0.1 0 0 0 0.1 0 0 0.1 0.1 0.1 0 0 0.1 0.1 0 0 0 0.1 0 0 0.1 0.1 0 0 0 0.1 0 0 0 0.1l-2.4 12.3q0 0.1 0 0.2-0.1 0.1-0.2 0.1 0 0.1-0.1 0.1-0.1 0-0.2 0zm-16.4-1h16l2.2-11.3h-15.5z"/>
		<path id="Layer" class="s2" d="m239.8 328.8l-0.6 12.3h17v-12.3h-16.4z"/>
		<path id="Layer" fill-rule="evenodd" class="s3" d="m256.2 341.6h-17q0 0-0.1 0 0 0-0.1 0 0 0-0.1-0.1 0 0 0 0-0.1-0.1-0.1-0.1 0-0.1 0-0.1-0.1-0.1-0.1-0.1 0-0.1 0-0.1l0.6-12.3q0-0.1 0.1-0.2 0-0.1 0.1-0.2 0 0 0.1-0.1 0.1 0 0.2 0h16.5q0 0 0.1 0 0.1 0.1 0.2 0.1 0.1 0.1 0.1 0.2 0 0.1 0.1 0.2v12.3q-0.1 0.1-0.1 0.1 0 0.1 0 0.1 0 0.1 0 0.1-0.1 0-0.1 0.1 0 0-0.1 0 0 0.1-0.1 0.1 0 0-0.1 0 0 0-0.1 0zm-16.5-1h16v-11.3h-15.4z"/>
		<path id="Layer" class="s2" d="m223.3 328.8l-1.1 12.3h17l0.6-12.3h-16.5z"/>
		<path id="Layer" fill-rule="evenodd" class="s3" d="m239.2 341.6h-17q-0.1 0-0.1 0-0.1 0-0.1 0 0-0.1-0.1-0.1 0 0-0.1-0.1 0 0 0 0-0.1-0.1-0.1-0.1 0-0.1 0-0.1 0-0.1 0-0.1l1.2-12.3q0-0.1 0-0.2 0.1-0.1 0.1-0.2 0.1 0 0.2-0.1 0.1 0 0.2 0h16.4q0.1 0 0.1 0 0.1 0 0.1 0 0.1 0.1 0.1 0.1 0 0 0.1 0.1 0 0 0 0 0.1 0.1 0.1 0.1 0 0.1 0 0.1 0 0.1 0 0.1l-0.6 12.3q0 0.1 0 0.2-0.1 0.1-0.1 0.2-0.1 0-0.2 0.1-0.1 0-0.2 0zm-16.5-1h16l0.6-11.3h-15.5z"/>
		<path id="Layer" class="s2" d="m206.9 328.8l-1.8 12.3h17.1l1.1-12.3h-16.4z"/>
		<path id="Layer" fill-rule="evenodd" class="s3" d="m222.2 341.6h-17q-0.1 0-0.2 0-0.1-0.1-0.2-0.2-0.1 0-0.1-0.1 0-0.2 0-0.3l1.7-12.3q0-0.1 0.1-0.1 0-0.1 0.1-0.2 0.1 0 0.1-0.1 0.1 0 0.2 0h16.5q0 0 0.1 0 0 0 0.1 0 0 0.1 0.1 0.1 0 0 0 0.1 0.1 0 0.1 0.1 0 0 0 0 0.1 0.1 0.1 0.1 0 0.1 0 0.2l-1.2 12.3q0 0.1-0.1 0.1 0 0.1-0.1 0.2-0.1 0.1-0.1 0.1-0.1 0-0.2 0zm-16.5-1h16l1.1-11.3h-15.5z"/>
		<path id="Layer" class="s2" d="m338.4 328.8l-2.7-11.5h-15.9l2.2 11.5h16.4z"/>
		<path id="Layer" fill-rule="evenodd" class="s3" d="m338.4 329.3h-16.4q-0.1 0-0.2 0-0.1-0.1-0.1-0.1-0.1-0.1-0.1-0.1-0.1-0.1-0.1-0.2l-2.2-11.5q0 0 0-0.1 0-0.1 0-0.1 0-0.1 0-0.1 0.1-0.1 0.1-0.1 0 0 0.1-0.1 0 0 0.1 0 0-0.1 0.1-0.1 0 0 0.1 0h15.9q0.1 0 0.1 0 0.1 0.1 0.2 0.1 0.1 0.1 0.1 0.1 0 0.1 0.1 0.2l2.7 11.5q0 0 0 0.1 0 0.1 0 0.1 0 0.1 0 0.1 0 0.1-0.1 0.1 0 0.1-0.1 0.1 0 0 0 0.1-0.1 0-0.2 0 0 0-0.1 0zm-16-1h15.4l-2.5-10.5h-14.9z"/>
		<path id="Layer" class="s2" d="m148.6 306.6l3.6-11h-14.8l-4.2 11h15.4z"/>
		<path id="Layer" fill-rule="evenodd" class="s3" d="m148.6 307.1h-15.4q-0.2 0-0.3-0.1-0.1 0-0.1-0.1-0.1-0.1-0.1-0.3 0-0.1 0-0.2l4.2-11q0-0.1 0.1-0.1 0-0.1 0.1-0.1 0.1-0.1 0.1-0.1 0.1 0 0.2 0h14.8q0.2 0 0.3 0 0.1 0.1 0.1 0.2 0.1 0.1 0.1 0.2 0 0.1 0 0.2l-3.7 11q0 0.1 0 0.2-0.1 0-0.2 0.1 0 0-0.1 0.1-0.1 0-0.1 0zm-14.7-1h14.3l3.3-10h-13.8z"/>
		<path id="Layer" class="s2" d="m133.2 306.6h-14.2l-4.6 10.7h14.7l4.1-10.7z"/>
		<path id="Layer" fill-rule="evenodd" class="s3" d="m129.1 317.8h-14.7q-0.1 0-0.1 0-0.1 0-0.1 0-0.1-0.1-0.1-0.1-0.1-0.1-0.1-0.1 0-0.1-0.1-0.1 0-0.1 0-0.1 0-0.1 0-0.2 0.1 0 0.1-0.1l4.6-10.7q0-0.1 0-0.1 0.1-0.1 0.1-0.1 0.1-0.1 0.2-0.1 0 0 0.1 0h14.2q0.1 0 0.1 0 0.1 0 0.1 0 0.1 0.1 0.1 0.1 0.1 0 0.1 0.1 0.1 0 0.1 0.1 0 0.1 0 0.1 0 0.1 0 0.1 0 0.1-0.1 0.1l-4.1 10.8q0 0.1 0 0.1-0.1 0.1-0.2 0.1 0 0.1-0.1 0.1-0.1 0-0.1 0zm-13.9-1h13.5l3.7-9.7h-13.1z"/>
		<path id="Layer" class="s2" d="m137.4 295.6h-13.7l-4.7 11h14.2l4.2-11z"/>
		<path id="Layer" fill-rule="evenodd" class="s3" d="m133.2 307.1h-14.2q-0.1 0-0.1 0-0.1-0.1-0.1-0.1-0.1 0-0.1-0.1-0.1 0-0.1-0.1 0 0-0.1-0.1 0 0 0-0.1 0 0 0-0.1 0.1-0.1 0.1-0.1l4.7-11q0-0.1 0-0.1 0.1-0.1 0.2-0.1 0-0.1 0.1-0.1 0.1 0 0.1 0h13.7q0.1 0 0.2 0 0 0 0.1 0 0 0.1 0.1 0.1 0 0 0 0.1 0.1 0.1 0.1 0.1 0 0.1 0 0.1 0 0.1 0 0.1 0 0.1 0 0.2l-4.2 11q0 0-0.1 0.1 0 0.1-0.1 0.1-0.1 0.1-0.2 0.1 0 0-0.1 0zm-13.5-1h13.1l3.8-10h-12.6z"/>
		<path id="Layer" class="s2" d="m129.1 317.3h-14.7l-4.9 11.5h15.2l4.4-11.5z"/>
		<path id="Layer" fill-rule="evenodd" class="s3" d="m124.7 329.3h-15.2q-0.1 0-0.2-0.1-0.1 0-0.2-0.1-0.1-0.1-0.1-0.3 0-0.1 0-0.2l4.9-11.5q0.1 0 0.1-0.1 0.1-0.1 0.1-0.1 0.1 0 0.2-0.1 0 0 0.1 0h14.7q0 0 0.1 0 0 0 0.1 0.1 0.1 0 0.1 0 0 0.1 0.1 0.1 0 0.1 0 0.1 0.1 0.1 0.1 0.2 0 0 0 0.1 0 0-0.1 0.1l-4.3 11.5q-0.1 0.1-0.1 0.1-0.1 0.1-0.1 0.1-0.1 0.1-0.2 0.1 0 0-0.1 0zm-14.4-1h14l4-10.5h-13.6z"/>
		<path id="Layer" class="s2" d="m124.7 328.8h-15.2l-5.2 12.3h15.7l4.7-12.3z"/>
		<path id="Layer" fill-rule="evenodd" class="s3" d="m120 341.6h-15.7q-0.2 0-0.3 0-0.1-0.1-0.2-0.2 0-0.1 0-0.2-0.1-0.2 0-0.3l5.2-12.3q0-0.1 0.1-0.1 0-0.1 0.1-0.1 0-0.1 0.1-0.1 0.1 0 0.2 0h15.1q0.2 0 0.3 0.1 0.1 0 0.1 0.1 0.1 0.1 0.1 0.2 0.1 0.2 0 0.3l-4.7 12.3q0 0.1-0.1 0.1 0 0.1-0.1 0.1 0 0-0.1 0.1 0 0-0.1 0zm-15-1h14.6l4.4-11.3h-14.2z"/>
		<path id="Layer" class="s2" d="m120 341.1h-15.7l-5.7 13.2h16.3l5.1-13.2z"/>
		<path id="Layer" fill-rule="evenodd" class="s3" d="m114.9 354.8h-16.3q0 0-0.1 0-0.1 0-0.1 0-0.1-0.1-0.1-0.1-0.1 0-0.1-0.1 0 0 0-0.1-0.1-0.1-0.1-0.1 0-0.1 0.1-0.1 0-0.1 0-0.2l5.6-13.2q0.1 0 0.1-0.1 0.1-0.1 0.1-0.1 0.1 0 0.2-0.1 0 0 0.1 0h15.7q0.1 0 0.1 0 0.1 0 0.1 0.1 0.1 0 0.1 0 0.1 0.1 0.1 0.1 0 0.1 0.1 0.1 0 0.1 0 0.2 0 0 0 0.1 0 0 0 0.1l-5.1 13.2q0 0.1-0.1 0.1 0 0.1-0.1 0.2 0 0-0.1 0-0.1 0-0.2 0zm-15.5-1h15.2l4.7-12.2h-14.7z"/>
		<path id="Layer" class="s2" d="m383.4 317.3l4.4 11.5h14.5l-4.9-11.5h-14z"/>
		<path id="Layer" fill-rule="evenodd" class="s3" d="m402.3 329.3h-14.5q-0.1 0-0.2 0-0.1 0-0.1-0.1-0.1 0-0.1-0.1-0.1 0-0.1-0.1l-4.4-11.5q0-0.1 0-0.1-0.1-0.1-0.1-0.1 0.1-0.1 0.1-0.2 0 0 0-0.1 0.1 0 0.1-0.1 0.1 0 0.1 0 0.1 0 0.1-0.1 0.1 0 0.1 0h14.1q0.1 0 0.1 0 0.1 0.1 0.2 0.1 0 0 0.1 0.1 0 0.1 0.1 0.1l4.9 11.5q0 0.1 0 0.1 0 0.1 0 0.1 0 0.1 0 0.2 0 0 0 0.1-0.1 0-0.1 0.1-0.1 0-0.1 0.1-0.1 0-0.2 0 0 0-0.1 0zm-14.2-1h13.4l-4.4-10.5h-13z"/>
		<path id="Layer" class="s2" d="m392.5 341.1h15.1l-5.3-12.3h-14.6l4.8 12.3z"/>
		<path id="Layer" fill-rule="evenodd" class="s3" d="m407.6 341.6h-15.1q-0.1 0-0.2 0 0 0-0.1-0.1-0.1 0-0.1-0.1-0.1 0-0.1-0.1l-4.7-12.3q-0.1-0.1 0-0.2 0-0.2 0-0.3 0.1-0.1 0.2-0.1 0.1-0.1 0.3-0.1h14.5q0.1 0 0.1 0 0.1 0.1 0.2 0.1 0 0 0.1 0.1 0 0.1 0.1 0.1l5.2 12.3q0 0.1 0 0.3 0 0.1 0 0.2-0.1 0.1-0.2 0.2-0.1 0-0.3 0zm-14.7-1h14l-4.8-11.3h-13.5z"/>
		<path id="Layer" class="s2" d="m397.6 354.3h15.6l-5.7-13.2h-15l5.1 13.2z"/>
		<path id="Layer" fill-rule="evenodd" class="s3" d="m413.2 354.8h-15.6q-0.1 0-0.2 0-0.1 0-0.1 0-0.1-0.1-0.1-0.1-0.1-0.1-0.1-0.2l-5.1-13.2q0-0.1 0-0.2 0-0.2 0.1-0.3 0-0.1 0.1-0.1 0.1-0.1 0.3-0.1h15q0.1 0 0.2 0 0.1 0.1 0.1 0.1 0.1 0 0.1 0.1 0.1 0.1 0.1 0.1l5.6 13.2q0.1 0.1 0.1 0.2 0 0 0 0.1 0 0 0 0.1 0 0.1-0.1 0.1 0 0.1-0.1 0.1 0 0.1-0.1 0.1 0 0-0.1 0-0.1 0-0.1 0zm-15.3-1h14.5l-5.2-12.2h-14z"/>
		<path id="Layer" class="s2" d="m271.6 306.6l-0.6-11h-14.8v11h15.4z"/>
		<path id="Layer" fill-rule="evenodd" class="s3" d="m271.6 307.1h-15.4q-0.1 0-0.2-0.1-0.1 0-0.2-0.1 0 0-0.1-0.1 0-0.1 0-0.2v-11q0-0.1 0-0.1 0-0.1 0-0.1 0.1-0.1 0.1-0.1 0 0 0-0.1 0.1 0 0.1 0 0.1-0.1 0.1-0.1 0.1 0 0.1 0 0 0 0.1 0h14.8q0.1 0 0.2 0 0.1 0.1 0.1 0.1 0.1 0.1 0.2 0.2 0 0.1 0 0.2l0.5 11q0 0 0 0.1 0 0 0 0.1 0 0 0 0-0.1 0.1-0.1 0.1 0 0.1-0.1 0.1 0 0 0 0-0.1 0.1-0.1 0.1-0.1 0-0.1 0zm-14.9-1h14.3l-0.4-10h-13.9z"/>
		<path id="Layer" class="s2" d="m383.4 317.3h14l-4.6-10.7h-13.6l4.2 10.7z"/>
		<path id="Layer" fill-rule="evenodd" class="s3" d="m397.4 317.8h-14.1q0 0-0.1 0-0.1 0-0.1-0.1-0.1 0-0.1-0.1-0.1 0-0.1-0.1l-4.1-10.8q-0.1-0.1-0.1-0.2 0-0.1 0.1-0.2 0.1-0.1 0.2-0.2 0.1 0 0.2 0h13.6q0.1 0 0.2 0 0 0 0.1 0.1 0.1 0 0.1 0.1 0.1 0 0.1 0.1l4.6 10.7q0 0.1 0 0.1 0 0.1 0 0.2 0 0 0 0.1 0 0 0 0.1-0.1 0-0.1 0.1-0.1 0-0.1 0.1-0.1 0-0.2 0 0 0-0.1 0zm-13.7-1h13l-4.2-9.7h-12.5z"/>
		<path id="Layer" class="s2" d="m375.4 341.1h17.1l-4.7-12.3h-16.5l4.2 12.3z"/>
		<path id="Layer" fill-rule="evenodd" class="s3" d="m392.5 341.6h-17q-0.1 0-0.2 0-0.1 0-0.1-0.1-0.1 0-0.1-0.1-0.1-0.1-0.1-0.1l-4.2-12.3q0-0.1 0-0.2 0-0.2 0.1-0.3 0.1 0 0.2-0.1 0.1-0.1 0.2-0.1h16.5q0 0 0.1 0.1 0.1 0 0.1 0 0.1 0.1 0.1 0.1 0.1 0.1 0.1 0.2l4.8 12.2q0 0.1 0 0.1 0 0.1 0 0.2 0 0 0 0.1 0 0-0.1 0.1 0 0.1-0.1 0.1 0 0-0.1 0.1 0 0-0.1 0-0.1 0-0.1 0zm-16.7-1h15.9l-4.3-11.3h-15.4z"/>
		<path id="Layer" class="s2" d="m163.9 306.6l3.2-11h-14.9l-3.6 11h15.3z"/>
		<path id="Layer" fill-rule="evenodd" class="s3" d="m163.9 307.1h-15.3q-0.2 0-0.3-0.1-0.1 0-0.2-0.1 0-0.1 0-0.2-0.1-0.2 0-0.3l3.6-11q0.1-0.1 0.1-0.1 0.1-0.1 0.1-0.1 0.1-0.1 0.2-0.1 0.1 0 0.1 0h14.9q0 0 0.1 0 0.1 0 0.1 0 0.1 0.1 0.1 0.1 0 0 0.1 0.1 0 0 0 0.1 0.1 0 0.1 0.1 0 0 0 0.1 0 0.1 0 0.1l-3.2 11q0 0.1-0.1 0.2 0 0-0.1 0.1 0 0-0.1 0.1-0.1 0-0.2 0zm-14.7-1h14.4l2.8-10h-13.8z"/>
		<path id="Layer" class="s2" d="m363.8 306.6l3.6 10.7h16l-4.2-10.7h-15.4z"/>
		<path id="Layer" fill-rule="evenodd" class="s3" d="m383.3 317.8h-15.9q0 0-0.1 0-0.1 0-0.1-0.1-0.1 0-0.1-0.1-0.1 0-0.1-0.1l-3.6-10.8q0 0-0.1-0.1 0 0 0-0.1 0.1-0.1 0.1-0.1 0-0.1 0-0.1 0.1-0.1 0.1-0.1 0.1 0 0.1-0.1 0.1 0 0.1 0 0.1 0 0.1 0h15.4q0.1 0 0.2 0 0 0 0.1 0.1 0.1 0 0.1 0.1 0.1 0 0.1 0.1l4.1 10.7q0 0.1 0 0.2 0 0 0 0.1 0 0 0 0.1 0 0 0 0.1-0.1 0.1-0.1 0.1-0.1 0-0.1 0.1-0.1 0-0.1 0-0.1 0-0.2 0zm-15.5-1h14.8l-3.7-9.7h-14.4z"/>
		<path id="Layer" class="s2" d="m392.8 306.6l-4.7-11h-13.1l4.2 11h13.6z"/>
		<path id="Layer" fill-rule="evenodd" class="s3" d="m392.8 307.1h-13.6q-0.1 0-0.1 0-0.1-0.1-0.2-0.1 0-0.1-0.1-0.1 0-0.1 0-0.1l-4.3-11q0-0.1 0-0.2 0 0 0-0.1 0 0 0-0.1 0.1-0.1 0.1-0.1 0-0.1 0.1-0.1 0 0 0.1-0.1 0 0 0.1 0 0 0 0.1 0h13.1q0.1 0 0.2 0 0.1 0 0.1 0.1 0.1 0 0.1 0.1 0.1 0 0.1 0.1l4.7 11q0 0 0 0.1 0 0.1 0 0.1 0 0.1 0 0.1 0 0.1-0.1 0.2 0 0 0 0-0.1 0.1-0.1 0.1-0.1 0-0.1 0.1-0.1 0-0.2 0zm-13.2-1h12.5l-4.3-10h-12.1z"/>
		<path id="Layer" class="s2" d="m379.2 306.6l-4.2-11h-14.9l3.7 11h15.4z"/>
		<path id="Layer" fill-rule="evenodd" class="s3" d="m379.2 307.1h-15.4q0 0-0.1 0-0.1-0.1-0.1-0.1-0.1-0.1-0.2-0.1 0-0.1 0-0.2l-3.7-11q0 0-0.1-0.1 0 0 0.1-0.1 0-0.1 0-0.1 0-0.1 0-0.1 0.1-0.1 0.1-0.1 0.1 0 0.1-0.1 0.1 0 0.1 0 0.1 0 0.1 0h14.9q0.1 0 0.1 0 0.1 0 0.2 0.1 0 0 0.1 0.1 0 0 0.1 0.1l4.2 11q0 0.1 0 0.2 0 0.2-0.1 0.3 0 0.1-0.1 0.1-0.2 0.1-0.3 0.1zm-15-1h14.3l-3.8-10h-13.9z"/>
		<path id="Layer" class="s2" d="m324.4 341.1l2.5 13.2h17.7l-3.2-13.2h-17z"/>
		<path id="Layer" fill-rule="evenodd" class="s3" d="m344.6 354.8h-17.7q-0.1 0-0.2 0-0.1 0-0.1-0.1-0.1 0-0.1-0.1-0.1-0.1-0.1-0.2l-2.5-13.2q0 0 0-0.1 0-0.1 0-0.1 0-0.1 0-0.1 0-0.1 0.1-0.1 0-0.1 0-0.1 0.1 0 0.1 0 0.1-0.1 0.1-0.1 0.1 0 0.1 0h17q0.1 0 0.2 0 0.1 0.1 0.2 0.1 0 0.1 0.1 0.1 0 0.1 0 0.2l3.2 13.2q0 0.1 0 0.1 0 0.1 0 0.1 0 0.1 0 0.2 0 0-0.1 0 0 0.1-0.1 0.1 0 0.1 0 0.1-0.1 0-0.1 0-0.1 0-0.1 0zm-17.3-1h16.6l-2.9-12.2h-16z"/>
		<path id="Layer" class="s2" d="m379.9 354.3h17.7l-5.1-13.2h-17l4.4 13.2z"/>
		<path id="Layer" fill-rule="evenodd" class="s3" d="m397.6 354.8h-17.7q-0.1 0-0.2 0 0 0-0.1-0.1-0.1 0-0.1-0.1-0.1 0-0.1-0.1l-4.4-13.2q0-0.1 0-0.1 0-0.1 0-0.2 0 0 0-0.1 0 0 0.1-0.1 0 0 0.1-0.1 0 0 0.1 0 0-0.1 0.1-0.1 0 0 0.1 0h17q0.1 0 0.1 0 0.1 0.1 0.2 0.1 0 0 0.1 0.1 0 0.1 0.1 0.1l5 13.3q0 0 0 0.1 0.1 0 0.1 0.1 0 0.1-0.1 0.1 0 0.1 0 0.1 0 0.1-0.1 0.1 0 0.1-0.1 0.1 0 0-0.1 0-0.1 0-0.1 0zm-17.4-1h16.6l-4.7-12.2h-16z"/>
		<path id="Layer" class="s2" d="m363.8 306.6l-3.7-11h-14.8l3.2 11h15.3z"/>
		<path id="Layer" fill-rule="evenodd" class="s3" d="m363.8 307.1h-15.3q-0.1 0-0.2 0-0.1-0.1-0.1-0.1-0.1-0.1-0.2-0.1 0-0.1 0-0.2l-3.2-11q0 0 0-0.1 0-0.1 0-0.1 0-0.1 0-0.1 0.1-0.1 0.1-0.1 0-0.1 0.1-0.1 0-0.1 0.1-0.1 0 0 0.1 0 0 0 0.1 0h14.8q0.1 0 0.2 0 0.1 0 0.1 0.1 0.1 0 0.1 0.1 0.1 0 0.1 0.1l3.7 11q0 0.1 0 0.1 0 0.1 0 0.1 0 0.1 0 0.2 0 0-0.1 0.1 0 0 0 0.1-0.1 0-0.1 0-0.1 0-0.1 0.1-0.1 0-0.2 0zm-15-1h14.3l-3.3-10h-13.8z"/>
		<path id="Layer" class="s2" d="m358.4 341.1l3.8 13.2h17.7l-4.4-13.2h-17.1z"/>
		<path id="Layer" fill-rule="evenodd" class="s3" d="m379.9 354.8h-17.7q-0.1 0-0.1 0-0.1 0-0.2-0.1 0 0-0.1-0.1 0-0.1 0-0.1l-3.9-13.3q0 0 0-0.1 0 0 0-0.1 0 0 0.1-0.1 0 0 0-0.1 0.1 0 0.1-0.1 0 0 0.1 0 0-0.1 0.1-0.1 0.1 0 0.1 0h17q0.1 0 0.2 0 0 0.1 0.1 0.1 0.1 0.1 0.1 0.1 0.1 0.1 0.1 0.1l4.4 13.3q0.1 0 0.1 0.1 0 0.1 0 0.1-0.1 0.1-0.1 0.1 0 0.1 0 0.1-0.1 0.1-0.1 0.1 0 0-0.1 0.1 0 0-0.1 0-0.1 0-0.1 0zm-17.3-1h16.6l-4.1-12.2h-16z"/>
		<path id="Layer" class="s2" d="m341.4 341.1l3.2 13.2h17.6l-3.8-13.2h-17z"/>
		<path id="Layer" fill-rule="evenodd" class="s3" d="m362.2 354.8h-17.6q-0.1 0-0.2 0-0.1 0-0.1-0.1-0.1 0-0.2-0.1 0-0.1 0-0.2l-3.2-13.2q0 0 0-0.1 0 0 0-0.1 0-0.1 0-0.1 0.1-0.1 0.1-0.1 0 0 0.1-0.1 0 0 0.1 0 0-0.1 0.1-0.1 0 0 0.1 0h17q0.1 0 0.1 0 0.1 0.1 0.2 0.1 0.1 0.1 0.1 0.1 0 0.1 0.1 0.2l3.8 13.2q0 0.1 0 0.1 0 0.1 0 0.1 0 0.1 0 0.1-0.1 0.1-0.1 0.1 0 0.1-0.1 0.1 0 0.1-0.1 0.1 0 0-0.1 0 0 0-0.1 0zm-17.2-1h16.6l-3.6-12.2h-16z"/>
		<path id="Layer" class="s2" d="m371.3 328.8h16.4l-4.3-11.5h-16l3.9 11.5z"/>
		<path id="Layer" fill-rule="evenodd" class="s3" d="m371.3 329.3q-0.1 0-0.1 0-0.1 0-0.2-0.1 0 0-0.1-0.1 0-0.1-0.1-0.1l-3.8-11.5q0-0.1 0-0.3 0-0.1 0.1-0.2 0-0.1 0.1-0.1 0.1-0.1 0.3-0.1h15.9q0 0 0.1 0 0.1 0.1 0.1 0.1 0.1 0 0.2 0.1 0 0.1 0 0.1l4.4 11.5q0.1 0.1 0.1 0.3 0 0.1-0.1 0.2-0.1 0.1-0.2 0.1-0.1 0.1-0.2 0.1zm0.3-1h15.4l-4-10.5h-14.9z"/>
		<path id="Layer" class="s2" d="m225.4 306.6l1.1-11h-14.9l-1.5 11h15.3z"/>
		<path id="Layer" fill-rule="evenodd" class="s3" d="m225.4 307.1h-15.3q-0.1 0-0.1 0-0.1 0-0.1-0.1-0.1 0-0.1 0-0.1-0.1-0.1-0.1 0 0-0.1-0.1 0 0 0-0.1 0 0 0-0.1 0 0 0-0.1l1.5-11q0.1-0.1 0.1-0.2 0 0 0.1-0.1 0.1-0.1 0.2-0.1 0 0 0.1 0h14.9q0 0 0.1 0 0 0 0.1 0 0 0 0.1 0.1 0 0 0 0 0.1 0.1 0.1 0.1 0 0.1 0.1 0.1 0 0.1 0 0.1 0 0.1 0 0.1l-1 11q0 0.1-0.1 0.2 0 0.1-0.1 0.2-0.1 0-0.2 0.1-0.1 0-0.2 0zm-14.8-1h14.4l0.9-10h-13.8z"/>
		<path id="Layer" class="s2" d="m348.5 306.6l-3.2-11h-14.9l2.7 11h15.4z"/>
		<path id="Layer" fill-rule="evenodd" class="s3" d="m348.5 307.1h-15.4q-0.1 0-0.2 0-0.1-0.1-0.1-0.1-0.1-0.1-0.1-0.2-0.1 0-0.1-0.1l-2.6-11q-0.1-0.1-0.1-0.1 0-0.1 0.1-0.1 0-0.1 0-0.1 0-0.1 0.1-0.1 0-0.1 0-0.1 0.1-0.1 0.1-0.1 0.1 0 0.1 0 0.1 0 0.1 0h14.9q0.1 0 0.2 0 0 0 0.1 0.1 0.1 0 0.1 0.1 0.1 0.1 0.1 0.1l3.2 11q0 0.1 0 0.3-0.1 0.1-0.1 0.2-0.1 0.1-0.2 0.1-0.1 0.1-0.2 0.1zm-15-1h14.3l-2.9-10h-13.8z"/>
		<path id="Layer" class="s2" d="m210.1 306.6l1.5-11h-14.8l-2.1 11h15.4z"/>
		<path id="Layer" fill-rule="evenodd" class="s3" d="m210.1 307.1h-15.4q-0.1 0-0.1 0-0.1 0-0.1-0.1-0.1 0-0.1 0-0.1-0.1-0.1-0.1 0-0.1-0.1-0.1 0-0.1 0-0.1 0-0.1 0-0.1 0-0.1 0-0.1l2.1-11q0-0.1 0-0.2 0.1-0.1 0.2-0.1 0-0.1 0.1-0.1 0.1 0 0.2 0h14.8q0.1 0 0.1 0 0.1 0 0.1 0 0.1 0 0.1 0.1 0.1 0 0.1 0 0 0.1 0.1 0.1 0 0.1 0 0.1 0 0.1 0 0.1 0 0.1 0 0.1l-1.5 11q-0.1 0.1-0.1 0.2 0 0.1-0.1 0.2-0.1 0-0.2 0 0 0.1-0.1 0.1zm-14.8-1h14.3l1.5-10h-13.9z"/>
		<path id="Layer" class="s2" d="m256.2 306.6v-11h-14.9l-0.5 11h15.4z"/>
		<path id="Layer" fill-rule="evenodd" class="s3" d="m256.2 307.1h-15.4q0 0-0.1 0 0 0-0.1-0.1 0 0-0.1 0 0 0 0-0.1-0.1 0-0.1-0.1 0 0-0.1 0 0-0.1 0-0.1 0-0.1 0-0.2l0.5-11q0 0 0.1-0.1 0-0.1 0.1-0.2 0.1-0.1 0.2-0.1 0 0 0.1 0h14.9q0.1 0 0.2 0 0.1 0 0.1 0.1 0.1 0.1 0.2 0.2 0 0.1 0 0.2v11q0 0.1-0.1 0.2 0 0.1-0.1 0.1 0 0.1-0.1 0.1-0.1 0.1-0.2 0.1zm-14.9-1h14.4v-10h-13.9z"/>
		<path id="Layer" class="s2" d="m194.7 306.6l2.1-11h-14.9l-2.6 11h15.4z"/>
		<path id="Layer" fill-rule="evenodd" class="s3" d="m194.7 307.1h-15.4q0 0-0.1 0-0.1 0-0.1-0.1-0.1 0-0.1 0-0.1-0.1-0.1-0.1 0-0.1 0-0.1-0.1-0.1-0.1-0.1 0-0.1 0-0.1 0-0.1 0-0.1l2.6-11q0.1-0.1 0.1-0.2 0.1-0.1 0.1-0.1 0.1-0.1 0.2-0.1 0 0 0.1 0h14.9q0 0 0.1 0 0 0 0.1 0 0 0.1 0.1 0.1 0 0 0.1 0.1 0 0 0 0.1 0.1 0 0.1 0.1 0 0 0 0.1 0 0 0 0.1l-2.1 11q0 0.1-0.1 0.1 0 0.1-0.1 0.2-0.1 0-0.1 0-0.1 0.1-0.2 0.1zm-14.8-1h14.4l1.9-10h-13.9z"/>
		<path id="Layer" class="s2" d="m179.3 306.6l2.6-11h-14.8l-3.2 11h15.4z"/>
		<path id="Layer" fill-rule="evenodd" class="s3" d="m179.3 307.1h-15.4q0 0-0.1 0 0 0-0.1-0.1 0 0-0.1 0 0-0.1-0.1-0.1 0-0.1 0-0.1 0-0.1-0.1-0.1 0-0.1 0-0.1 0-0.1 0.1-0.2l3.1-11q0 0 0.1-0.1 0-0.1 0.1-0.1 0-0.1 0.1-0.1 0.1 0 0.2 0h14.8q0.1 0 0.1 0 0.1 0 0.1 0 0.1 0.1 0.1 0.1 0.1 0 0.1 0.1 0.1 0 0.1 0.1 0 0 0 0.1 0 0 0 0.1 0 0 0 0.1l-2.6 11q0 0.1-0.1 0.2 0 0-0.1 0.1 0 0-0.1 0.1-0.1 0-0.2 0zm-14.7-1h14.3l2.4-10h-13.9z"/>
		<path id="Layer" class="s2" d="m240.8 306.6l0.5-11h-14.8l-1.1 11h15.4z"/>
		<path id="Layer" fill-rule="evenodd" class="s3" d="m240.8 307.1h-15.4q0 0-0.1 0 0 0-0.1-0.1 0 0-0.1 0 0-0.1 0-0.1-0.1 0-0.1-0.1 0 0 0-0.1 0 0-0.1-0.1 0 0 0-0.1l1.1-11q0-0.1 0-0.1 0.1-0.1 0.1-0.2 0.1-0.1 0.2-0.1 0.1 0 0.2 0h14.8q0.1 0 0.1 0 0.1 0 0.1 0 0.1 0 0.1 0.1 0.1 0 0.1 0 0 0.1 0.1 0.1 0 0.1 0 0.1 0 0.1 0 0.1 0 0.1 0 0.1l-0.5 11q0 0.1 0 0.2-0.1 0.1-0.1 0.1-0.1 0.1-0.2 0.1-0.1 0.1-0.2 0.1zm-14.8-1h14.3l0.5-10h-13.9z"/>
		<path id="Layer" class="s2" d="m333.1 306.6l-2.7-11h-14.8l2.1 11h15.4z"/>
		<path id="Layer" fill-rule="evenodd" class="s3" d="m333.1 307.1h-15.4q-0.1 0-0.2 0 0-0.1-0.1-0.1-0.1-0.1-0.1-0.2-0.1 0-0.1-0.1l-2.1-11q0-0.1 0-0.2 0-0.2 0.1-0.2 0.1-0.1 0.2-0.2 0.1 0 0.2 0h14.8q0.1 0 0.2 0 0.1 0 0.2 0.1 0 0 0.1 0.1 0 0.1 0 0.1l2.7 11q0 0.2 0 0.3-0.1 0.1-0.1 0.2-0.1 0.1-0.2 0.1-0.1 0.1-0.2 0.1zm-15-1h14.3l-2.4-10h-13.8z"/>
		<path id="Layer" class="s2" d="m317.7 306.6l-2.1-11h-14.9l1.6 11h15.4z"/>
		<path id="Layer" fill-rule="evenodd" class="s3" d="m317.7 307.1h-15.4q-0.1 0-0.1-0.1-0.1 0-0.2 0-0.1-0.1-0.1-0.2 0-0.1-0.1-0.1l-1.5-11.1q-0.1 0-0.1-0.1 0 0 0.1-0.1 0 0 0-0.1 0 0 0.1-0.1 0 0 0 0 0.1-0.1 0.1-0.1 0.1 0 0.1 0 0.1 0 0.1 0h14.9q0.1 0 0.2 0 0 0 0.1 0.1 0.1 0.1 0.1 0.1 0.1 0.1 0.1 0.2l2.1 11q0 0 0 0.1 0 0.1 0 0.1 0 0.1 0 0.1-0.1 0.1-0.1 0.1 0 0-0.1 0.1 0 0-0.1 0 0 0.1-0.1 0.1 0 0-0.1 0zm-14.9-1h14.3l-1.9-10h-13.9z"/>
		<path id="Layer" class="s2" d="m286.9 306.6l-1-11h-14.9l0.6 11h15.4z"/>
		<path id="Layer" fill-rule="evenodd" class="s3" d="m287 307.1h-15.4q-0.1 0-0.2-0.1-0.1 0-0.2-0.1 0 0-0.1-0.1 0-0.1 0-0.2l-0.6-11q0-0.1 0-0.1 0.1-0.1 0.1-0.1 0 0 0-0.1 0 0 0.1-0.1 0 0 0.1 0 0-0.1 0-0.1 0.1 0 0.1 0 0.1 0 0.1 0h14.9q0.1 0 0.2 0 0.1 0 0.1 0.1 0.1 0.1 0.1 0.1 0.1 0.1 0.1 0.2l1 11q0.1 0.1 0 0.2 0 0.1-0.1 0.2-0.1 0.1-0.1 0.1-0.1 0.1-0.3 0.1zm-14.8-1h14.2l-1-10h-13.8z"/>
		<path id="Layer" class="s2" d="m324.4 341.1h-17.1-17-17-17.1-17-17-17.1-17-17-17.1l-3.7 13.2h17.6 17.7 17.7 17.6 17.7 17.6 17.7 17.7 17.6 17.7l-2.5-13.2z"/>
		<path id="Layer" fill-rule="evenodd" class="s3" d="m326.9 354.8h-176.6q-0.1 0-0.2 0 0 0-0.1 0 0 0-0.1-0.1 0 0 0-0.1-0.1 0-0.1-0.1 0 0 0-0.1 0 0 0-0.1 0 0 0-0.1l3.8-13.2q0-0.1 0-0.1 0.1-0.1 0.1-0.2 0.1 0 0.2 0 0.1-0.1 0.1-0.1h170.4q0 0 0.1 0.1 0.1 0 0.2 0.1 0 0 0.1 0.1 0 0.1 0.1 0.2l2.5 13.2q0 0 0 0.1 0 0 0 0.1 0 0-0.1 0.1 0 0 0 0.1 0 0-0.1 0.1 0 0-0.1 0 0 0-0.1 0 0 0-0.1 0zm-176-1h175.4l-2.4-12.2h-169.5z"/>
		<path id="Layer" class="s2" d="m302.3 306.6l-1.6-11h-14.8l1 11h15.4z"/>
		<path id="Layer" fill-rule="evenodd" class="s3" d="m302.3 307.1h-15.3q-0.1 0-0.2-0.1-0.1 0-0.1-0.1-0.1 0-0.1-0.1-0.1-0.1-0.1-0.2l-1.1-11q0 0 0-0.1 0.1 0 0.1-0.1 0 0 0-0.1 0 0 0.1-0.1 0 0 0 0 0.1-0.1 0.1-0.1 0.1 0 0.1 0 0.1 0 0.1 0h14.9q0.1 0 0.2 0 0.1 0 0.1 0.1 0.1 0.1 0.1 0.1 0.1 0.1 0.1 0.2l1.6 11q0 0.1 0 0.1 0 0.1 0 0.1-0.1 0.1-0.1 0.1 0 0.1 0 0.1-0.1 0-0.1 0.1-0.1 0-0.1 0-0.1 0.1-0.1 0.1-0.1 0-0.2 0zm-14.9-1h14.3l-1.4-10h-13.9z"/>
		<path id="Layer" class="s2" d="m63.3 377.6h378.5v5.3h-378.5z"/>
		<path id="Layer" fill-rule="evenodd" class="s2" d="m441.8 383.4h-378.5q-0.1 0-0.2 0-0.1 0-0.2-0.1 0-0.1-0.1-0.2 0-0.1 0-0.2v-5.3q0-0.1 0-0.2 0.1-0.1 0.1-0.2 0.1-0.1 0.2-0.1 0.1 0 0.2 0h378.5q0.1 0 0.2 0 0.1 0 0.2 0.1 0 0.1 0.1 0.2 0 0.1 0 0.2v5.3q0 0.1 0 0.2-0.1 0.1-0.1 0.2-0.1 0.1-0.2 0.1-0.1 0-0.2 0zm-378-1h377.5v-4.3h-377.5z"/>
		<path id="Layer" class="s2" d="m157.6 120.5h-16.5c-0.4 0-0.8-0.1-1.1-0.4-0.3-0.3-0.4-0.7-0.4-1.1 0-0.4 0.1-0.8 0.4-1 0.3-0.3 0.7-0.5 1.1-0.5h16.5c0.3 0 0.7 0.2 1 0.5 0.3 0.2 0.5 0.6 0.5 1 0 0.4-0.2 0.8-0.5 1.1-0.3 0.3-0.7 0.4-1 0.4z"/>
		<path id="Layer" class="s4" d="m203 129h-62c-0.4 0-0.8-0.2-1.1-0.4-0.2-0.3-0.4-0.7-0.4-1.1 0-0.4 0.2-0.8 0.4-1.1 0.3-0.2 0.7-0.4 1.1-0.4h62c0.4 0 0.8 0.2 1.1 0.4 0.2 0.3 0.4 0.7 0.4 1.1 0 0.4-0.2 0.8-0.4 1.1-0.3 0.2-0.7 0.4-1.1 0.4z"/>
		<path id="Layer" class="s4" d="m298.8 129h-61.9c-0.4 0-0.8-0.2-1.1-0.4-0.3-0.3-0.4-0.7-0.4-1.1 0-0.4 0.1-0.8 0.4-1.1 0.3-0.2 0.7-0.4 1.1-0.4h61.9c0.4 0 0.8 0.2 1.1 0.4 0.3 0.3 0.4 0.7 0.4 1.1 0 0.4-0.1 0.8-0.4 1.1-0.3 0.2-0.7 0.4-1.1 0.4z"/>
		<path id="Layer" class="s2" d="m231.5 129h-24.5c-0.4 0-0.8-0.2-1.1-0.4-0.2-0.3-0.4-0.7-0.4-1.1 0-0.4 0.2-0.8 0.4-1.1 0.3-0.2 0.7-0.4 1.1-0.4h24.5c0.4 0 0.8 0.2 1.1 0.4 0.3 0.3 0.4 0.7 0.4 1.1 0 0.4-0.1 0.8-0.4 1.1-0.3 0.2-0.7 0.4-1.1 0.4z"/>
		<path id="Layer" class="s2" d="m176.7 137.5h-35.6c-0.4 0-0.8-0.2-1.1-0.5-0.3-0.3-0.4-0.6-0.4-1 0-0.4 0.1-0.8 0.4-1.1 0.3-0.3 0.7-0.4 1.1-0.4h35.6c0.4 0 0.8 0.1 1.1 0.4 0.3 0.3 0.4 0.7 0.4 1.1 0 0.4-0.1 0.7-0.4 1-0.3 0.3-0.7 0.5-1.1 0.5z"/>
		<path id="Layer" class="s2" d="m216.8 137.5h-35.6c-0.4 0-0.8-0.2-1.1-0.5-0.3-0.3-0.4-0.6-0.4-1 0-0.4 0.1-0.8 0.4-1.1 0.3-0.3 0.7-0.4 1.1-0.4h35.6c0.4 0 0.8 0.1 1.1 0.4 0.3 0.3 0.4 0.7 0.4 1.1 0 0.4-0.1 0.7-0.4 1-0.3 0.3-0.7 0.5-1.1 0.5z"/>
		<path id="Layer" class="s2" d="m256.9 137.5h-35.6c-0.4 0-0.8-0.2-1.1-0.5-0.3-0.3-0.4-0.6-0.4-1 0-0.4 0.1-0.8 0.4-1.1 0.3-0.3 0.7-0.4 1.1-0.4h35.6c0.4 0 0.8 0.1 1.1 0.4 0.3 0.3 0.4 0.7 0.4 1.1 0 0.4-0.1 0.7-0.4 1-0.3 0.3-0.7 0.5-1.1 0.5z"/>
		<path id="Layer" class="s2" d="m276.5 137.5h-15.1c-0.4 0-0.8-0.2-1.1-0.5-0.3-0.3-0.4-0.6-0.4-1 0-0.4 0.1-0.8 0.4-1.1 0.3-0.3 0.7-0.4 1.1-0.4h15.1c0.4 0 0.8 0.1 1.1 0.4 0.3 0.3 0.4 0.7 0.4 1.1 0 0.4-0.1 0.7-0.4 1-0.3 0.3-0.7 0.5-1.1 0.5z"/>
		<path id="Layer" class="s2" d="m178.5 120.5h-16.5c-0.4 0-0.8-0.1-1.1-0.4-0.2-0.3-0.4-0.7-0.4-1.1 0-0.4 0.2-0.8 0.4-1 0.3-0.3 0.7-0.5 1.1-0.5h16.5c0.4 0 0.8 0.2 1.1 0.5 0.2 0.2 0.4 0.6 0.4 1 0 0.4-0.2 0.8-0.4 1.1-0.3 0.3-0.7 0.4-1.1 0.4z"/>
		<path id="Layer" class="s2" d="m276.5 120.5h-16.4c-0.4 0-0.8-0.1-1.1-0.4-0.3-0.3-0.4-0.7-0.4-1.1 0-0.4 0.1-0.8 0.4-1 0.3-0.3 0.7-0.5 1.1-0.5h16.4c0.4 0 0.8 0.2 1.1 0.5 0.3 0.2 0.4 0.6 0.4 1 0 0.4-0.1 0.8-0.4 1.1-0.3 0.3-0.7 0.4-1.1 0.4z"/>
		<path id="Layer" class="s4" d="m254.7 120.5h-16.5c-0.4 0-0.8-0.1-1.1-0.4-0.2-0.3-0.4-0.7-0.4-1.1 0-0.4 0.2-0.8 0.4-1 0.3-0.3 0.7-0.5 1.1-0.5h16.5c0.4 0 0.8 0.2 1.1 0.5 0.2 0.2 0.4 0.6 0.4 1 0 0.4-0.2 0.8-0.4 1.1-0.3 0.3-0.7 0.4-1.1 0.4z"/>
		<path id="Layer" class="s2" d="m231.1 120.5h-48.1c-0.4 0-0.8-0.1-1.1-0.4-0.2-0.3-0.4-0.7-0.4-1.1 0-0.4 0.2-0.8 0.4-1 0.3-0.3 0.7-0.5 1.1-0.5h48.1c0.4 0 0.8 0.2 1.1 0.5 0.3 0.2 0.4 0.6 0.4 1 0 0.4-0.1 0.8-0.4 1.1-0.3 0.3-0.7 0.4-1.1 0.4z"/>
		<path id="Layer" class="s2" d="m157.6 172.2h-16.5c-0.4 0-0.8-0.1-1.1-0.4-0.3-0.3-0.4-0.7-0.4-1.1 0-0.4 0.1-0.8 0.4-1 0.3-0.3 0.7-0.5 1.1-0.5h16.5c0.3 0 0.7 0.2 1 0.5 0.3 0.2 0.5 0.6 0.5 1 0 0.4-0.2 0.8-0.5 1.1-0.3 0.3-0.7 0.4-1 0.4z"/>
		<path id="Layer" class="s4" d="m203 180.7h-62c-0.4 0-0.8-0.2-1.1-0.4-0.2-0.3-0.4-0.7-0.4-1.1 0-0.4 0.2-0.8 0.4-1.1 0.3-0.3 0.7-0.4 1.1-0.4h62c0.4 0 0.8 0.1 1.1 0.4 0.2 0.3 0.4 0.7 0.4 1.1 0 0.4-0.2 0.8-0.4 1.1-0.3 0.2-0.7 0.4-1.1 0.4z"/>
		<path id="Layer" class="s2" d="m298.8 180.7h-61.9c-0.4 0-0.8-0.2-1.1-0.4-0.3-0.3-0.4-0.7-0.4-1.1 0-0.4 0.1-0.8 0.4-1.1 0.3-0.3 0.7-0.4 1.1-0.4h61.9c0.4 0 0.8 0.1 1.1 0.4 0.3 0.3 0.4 0.7 0.4 1.1 0 0.4-0.1 0.8-0.4 1.1-0.3 0.2-0.7 0.4-1.1 0.4z"/>
		<path id="Layer" class="s2" d="m231.5 180.7h-24.5c-0.4 0-0.8-0.2-1.1-0.4-0.2-0.3-0.4-0.7-0.4-1.1 0-0.4 0.2-0.8 0.4-1.1 0.3-0.3 0.7-0.4 1.1-0.4h24.5c0.4 0 0.8 0.1 1.1 0.4 0.3 0.3 0.4 0.7 0.4 1.1 0 0.4-0.1 0.8-0.4 1.1-0.3 0.2-0.7 0.4-1.1 0.4z"/>
		<path id="Layer" class="s2" d="m176.7 189.2h-35.6c-0.4 0-0.8-0.2-1.1-0.5-0.3-0.3-0.4-0.6-0.4-1 0-0.4 0.1-0.8 0.4-1.1 0.3-0.3 0.7-0.4 1.1-0.4h35.6c0.4 0 0.8 0.1 1.1 0.4 0.3 0.3 0.4 0.7 0.4 1.1 0 0.4-0.1 0.7-0.4 1-0.3 0.3-0.7 0.5-1.1 0.5z"/>
		<path id="Layer" class="s2" d="m216.8 189.2h-35.6c-0.4 0-0.8-0.2-1.1-0.5-0.3-0.3-0.4-0.6-0.4-1 0-0.4 0.1-0.8 0.4-1.1 0.3-0.3 0.7-0.4 1.1-0.4h35.6c0.4 0 0.8 0.1 1.1 0.4 0.3 0.3 0.4 0.7 0.4 1.1 0 0.4-0.1 0.7-0.4 1-0.3 0.3-0.7 0.5-1.1 0.5z"/>
		<path id="Layer" class="s4" d="m256.9 189.2h-35.6c-0.4 0-0.8-0.2-1.1-0.5-0.3-0.3-0.4-0.6-0.4-1 0-0.4 0.1-0.8 0.4-1.1 0.3-0.3 0.7-0.4 1.1-0.4h35.6c0.4 0 0.8 0.1 1.1 0.4 0.3 0.3 0.4 0.7 0.4 1.1 0 0.4-0.1 0.7-0.4 1-0.3 0.3-0.7 0.5-1.1 0.5z"/>
		<path id="Layer" class="s2" d="m276.5 189.2h-15.1c-0.4 0-0.8-0.2-1.1-0.5-0.3-0.3-0.4-0.6-0.4-1 0-0.4 0.1-0.8 0.4-1.1 0.3-0.3 0.7-0.4 1.1-0.4h15.1c0.4 0 0.8 0.1 1.1 0.4 0.3 0.3 0.4 0.7 0.4 1.1 0 0.4-0.1 0.7-0.4 1-0.3 0.3-0.7 0.5-1.1 0.5z"/>
		<path id="Layer" class="s2" d="m178.5 172.2h-16.5c-0.4 0-0.8-0.1-1.1-0.4-0.2-0.3-0.4-0.7-0.4-1.1 0-0.4 0.2-0.8 0.4-1 0.3-0.3 0.7-0.5 1.1-0.5h16.5c0.4 0 0.8 0.2 1.1 0.5 0.2 0.2 0.4 0.6 0.4 1 0 0.4-0.2 0.8-0.4 1.1-0.3 0.3-0.7 0.4-1.1 0.4z"/>
		<path id="Layer" class="s2" d="m276.5 172.2h-16.4c-0.4 0-0.8-0.1-1.1-0.4-0.3-0.3-0.4-0.7-0.4-1.1 0-0.4 0.1-0.8 0.4-1 0.3-0.3 0.7-0.5 1.1-0.5h16.4c0.4 0 0.8 0.2 1.1 0.5 0.3 0.2 0.4 0.6 0.4 1 0 0.4-0.1 0.8-0.4 1.1-0.3 0.3-0.7 0.4-1.1 0.4z"/>
		<path id="Layer" class="s4" d="m254.7 172.2h-16.5c-0.4 0-0.8-0.1-1.1-0.4-0.2-0.3-0.4-0.7-0.4-1.1 0-0.4 0.2-0.8 0.4-1 0.3-0.3 0.7-0.5 1.1-0.5h16.5c0.4 0 0.8 0.2 1.1 0.5 0.2 0.2 0.4 0.6 0.4 1 0 0.4-0.2 0.8-0.4 1.1-0.3 0.3-0.7 0.4-1.1 0.4z"/>
		<path id="Layer" class="s2" d="m231.1 172.2h-48.1c-0.4 0-0.8-0.1-1.1-0.4-0.2-0.3-0.4-0.7-0.4-1.1 0-0.4 0.2-0.8 0.4-1 0.3-0.3 0.7-0.5 1.1-0.5h48.1c0.4 0 0.8 0.2 1.1 0.5 0.3 0.2 0.4 0.6 0.4 1 0 0.4-0.1 0.8-0.4 1.1-0.3 0.3-0.7 0.4-1.1 0.4z"/>
		<path id="Layer" class="s2" d="m157.6 248.4h-16.5c-0.4 0-0.8-0.1-1.1-0.4-0.3-0.3-0.4-0.7-0.4-1.1 0-0.4 0.1-0.7 0.4-1 0.3-0.3 0.7-0.5 1.1-0.5h16.5c0.3 0 0.7 0.2 1 0.5 0.3 0.3 0.5 0.6 0.5 1 0 0.4-0.2 0.8-0.5 1.1-0.3 0.3-0.7 0.4-1 0.4z"/>
		<path id="Layer" class="s4" d="m203 256.9h-62c-0.4 0-0.8-0.2-1.1-0.4-0.2-0.3-0.4-0.7-0.4-1.1 0-0.4 0.2-0.8 0.4-1.1 0.3-0.2 0.7-0.4 1.1-0.4h62c0.4 0 0.8 0.2 1.1 0.4 0.2 0.3 0.4 0.7 0.4 1.1 0 0.4-0.2 0.8-0.4 1.1-0.3 0.2-0.7 0.4-1.1 0.4z"/>
		<path id="Layer" class="s5" d="m298.8 256.9h-61.9c-0.4 0-0.8-0.2-1.1-0.4-0.3-0.3-0.4-0.7-0.4-1.1 0-0.4 0.1-0.8 0.4-1.1 0.3-0.2 0.7-0.4 1.1-0.4h61.9c0.4 0 0.8 0.2 1.1 0.4 0.3 0.3 0.4 0.7 0.4 1.1 0 0.4-0.1 0.8-0.4 1.1-0.3 0.2-0.7 0.4-1.1 0.4z"/>
		<path id="Layer" class="s2" d="m231.5 256.9h-24.5c-0.4 0-0.8-0.2-1.1-0.4-0.2-0.3-0.4-0.7-0.4-1.1 0-0.4 0.2-0.8 0.4-1.1 0.3-0.2 0.7-0.4 1.1-0.4h24.5c0.4 0 0.8 0.2 1.1 0.4 0.3 0.3 0.4 0.7 0.4 1.1 0 0.4-0.1 0.8-0.4 1.1-0.3 0.2-0.7 0.4-1.1 0.4z"/>
		<path id="Layer" class="s2" d="m176.7 265.4h-35.6c-0.4 0-0.8-0.2-1.1-0.5-0.3-0.3-0.4-0.6-0.4-1 0-0.4 0.1-0.8 0.4-1.1 0.3-0.3 0.7-0.4 1.1-0.4h35.6c0.4 0 0.8 0.1 1.1 0.4 0.3 0.3 0.4 0.7 0.4 1.1 0 0.4-0.1 0.7-0.4 1-0.3 0.3-0.7 0.5-1.1 0.5z"/>
		<path id="Layer" class="s2" d="m216.8 265.4h-35.6c-0.4 0-0.8-0.2-1.1-0.5-0.3-0.3-0.4-0.6-0.4-1 0-0.4 0.1-0.8 0.4-1.1 0.3-0.3 0.7-0.4 1.1-0.4h35.6c0.4 0 0.8 0.1 1.1 0.4 0.3 0.3 0.4 0.7 0.4 1.1 0 0.4-0.1 0.7-0.4 1-0.3 0.3-0.7 0.5-1.1 0.5z"/>
		<path id="Layer" class="s4" d="m256.9 265.4h-35.6c-0.4 0-0.8-0.2-1.1-0.5-0.3-0.3-0.4-0.6-0.4-1 0-0.4 0.1-0.8 0.4-1.1 0.3-0.3 0.7-0.4 1.1-0.4h35.6c0.4 0 0.8 0.1 1.1 0.4 0.3 0.3 0.4 0.7 0.4 1.1 0 0.4-0.1 0.7-0.4 1-0.3 0.3-0.7 0.5-1.1 0.5z"/>
		<path id="Layer" class="s2" d="m276.5 265.4h-15.1c-0.4 0-0.8-0.2-1.1-0.5-0.3-0.3-0.4-0.6-0.4-1 0-0.4 0.1-0.8 0.4-1.1 0.3-0.3 0.7-0.4 1.1-0.4h15.1c0.4 0 0.8 0.1 1.1 0.4 0.3 0.3 0.4 0.7 0.4 1.1 0 0.4-0.1 0.7-0.4 1-0.3 0.3-0.7 0.5-1.1 0.5z"/>
		<path id="Layer" class="s2" d="m178.5 248.4h-16.5c-0.4 0-0.8-0.1-1.1-0.4-0.2-0.3-0.4-0.7-0.4-1.1 0-0.4 0.2-0.7 0.4-1 0.3-0.3 0.7-0.5 1.1-0.5h16.5c0.4 0 0.8 0.2 1.1 0.5 0.2 0.3 0.4 0.6 0.4 1 0 0.4-0.2 0.8-0.4 1.1-0.3 0.3-0.7 0.4-1.1 0.4z"/>
		<path id="Layer" class="s2" d="m276.5 248.4h-16.4c-0.4 0-0.8-0.1-1.1-0.4-0.3-0.3-0.4-0.7-0.4-1.1 0-0.4 0.1-0.7 0.4-1 0.3-0.3 0.7-0.5 1.1-0.5h16.4c0.4 0 0.8 0.2 1.1 0.5 0.3 0.3 0.4 0.6 0.4 1 0 0.4-0.1 0.8-0.4 1.1-0.3 0.3-0.7 0.4-1.1 0.4z"/>
		<path id="Layer" class="s4" d="m254.7 248.4h-16.5c-0.4 0-0.8-0.1-1.1-0.4-0.2-0.3-0.4-0.7-0.4-1.1 0-0.4 0.2-0.7 0.4-1 0.3-0.3 0.7-0.5 1.1-0.5h16.5c0.4 0 0.8 0.2 1.1 0.5 0.2 0.3 0.4 0.6 0.4 1 0 0.4-0.2 0.8-0.4 1.1-0.3 0.3-0.7 0.4-1.1 0.4z"/>
		<path id="Layer" class="s2" d="m231.1 248.4h-48.1c-0.4 0-0.8-0.1-1.1-0.4-0.2-0.3-0.4-0.7-0.4-1.1 0-0.4 0.2-0.7 0.4-1 0.3-0.3 0.7-0.5 1.1-0.5h48.1c0.4 0 0.8 0.2 1.1 0.5 0.3 0.3 0.4 0.6 0.4 1 0 0.4-0.1 0.8-0.4 1.1-0.3 0.3-0.7 0.4-1.1 0.4z"/>
		<path id="Layer" class="s2" d="m250.3 146.4h-16.5c-0.4 0-0.8-0.2-1.1-0.5-0.3-0.3-0.4-0.6-0.4-1 0-0.4 0.1-0.8 0.4-1.1 0.3-0.3 0.7-0.4 1.1-0.4h16.4c0.4 0 0.8 0.1 1.1 0.4 0.3 0.3 0.4 0.7 0.4 1.1 0 0.4-0.1 0.7-0.4 1-0.3 0.3-0.7 0.5-1.1 0.5z"/>
		<path id="Layer" class="s2" d="m228.4 146.4h-16.5c-0.4 0-0.8-0.2-1-0.5-0.3-0.3-0.5-0.6-0.5-1 0-0.4 0.2-0.8 0.5-1.1 0.2-0.3 0.6-0.4 1-0.4h16.5c0.4 0 0.8 0.1 1.1 0.4 0.3 0.3 0.4 0.7 0.4 1.1 0 0.4-0.1 0.7-0.4 1-0.3 0.3-0.7 0.5-1.1 0.5z"/>
		<path id="Layer" class="s5" d="m204.8 146.4h-48.2c-0.3 0-0.7-0.2-1-0.5-0.3-0.3-0.5-0.6-0.5-1 0-0.4 0.2-0.8 0.5-1.1 0.3-0.3 0.7-0.4 1-0.4h48.2c0.4 0 0.8 0.1 1.1 0.4 0.2 0.3 0.4 0.7 0.4 1.1 0 0.4-0.2 0.7-0.4 1-0.3 0.3-0.7 0.5-1.1 0.5z"/>
		<path id="Layer" class="s2" d="m250.3 161.5h-16.5c-0.4 0-0.8-0.1-1.1-0.4-0.3-0.3-0.4-0.7-0.4-1.1 0-0.4 0.1-0.8 0.4-1 0.3-0.3 0.7-0.5 1.1-0.5h16.4c0.4 0 0.8 0.2 1.1 0.5 0.3 0.2 0.4 0.6 0.4 1 0 0.4-0.1 0.8-0.4 1.1-0.3 0.3-0.7 0.4-1.1 0.4z"/>
		<path id="Layer" class="s5" d="m228.4 161.5h-16.5c-0.4 0-0.8-0.1-1-0.4-0.3-0.3-0.5-0.7-0.5-1.1 0-0.4 0.2-0.8 0.5-1 0.2-0.3 0.6-0.5 1-0.5h16.5c0.4 0 0.8 0.2 1.1 0.5 0.3 0.2 0.4 0.6 0.4 1 0 0.4-0.1 0.8-0.4 1.1-0.3 0.3-0.7 0.4-1.1 0.4z"/>
		<path id="Layer" class="s4" d="m204.8 161.5h-48.2c-0.3 0-0.7-0.1-1-0.4-0.3-0.3-0.5-0.7-0.5-1.1 0-0.4 0.2-0.8 0.5-1 0.3-0.3 0.7-0.5 1-0.5h48.2c0.4 0 0.8 0.2 1.1 0.5 0.2 0.2 0.4 0.6 0.4 1 0 0.4-0.2 0.8-0.4 1.1-0.3 0.3-0.7 0.4-1.1 0.4z"/>
		<path id="Layer" class="s2" d="m173.1 154h-16.4c-0.4 0-0.8-0.2-1.1-0.4-0.3-0.3-0.4-0.7-0.4-1.1 0-0.4 0.1-0.8 0.4-1.1 0.3-0.2 0.7-0.4 1.1-0.4h16.4c0.4 0 0.8 0.2 1.1 0.4 0.3 0.3 0.4 0.7 0.4 1.1 0 0.4-0.1 0.8-0.4 1.1-0.3 0.2-0.7 0.4-1.1 0.4z"/>
		<path id="Layer" class="s2" d="m195 154h-16.5c-0.4 0-0.8-0.2-1.1-0.4-0.3-0.3-0.4-0.7-0.4-1.1 0-0.4 0.1-0.8 0.4-1.1 0.3-0.2 0.7-0.4 1.1-0.4h16.5c0.4 0 0.8 0.2 1.1 0.4 0.2 0.3 0.4 0.7 0.4 1.1 0 0.4-0.2 0.8-0.4 1.1-0.3 0.2-0.7 0.4-1.1 0.4z"/>
		<path id="Layer" class="s4" d="m250.3 154h-48.2c-0.4 0-0.8-0.2-1.1-0.4-0.2-0.3-0.4-0.7-0.4-1.1 0-0.4 0.2-0.8 0.4-1.1 0.3-0.2 0.7-0.4 1.1-0.4h48.1c0.4 0 0.8 0.2 1.1 0.4 0.3 0.3 0.4 0.7 0.4 1.1 0 0.4-0.1 0.8-0.4 1.1-0.3 0.2-0.7 0.4-1.1 0.4z"/>
		<path id="Layer" class="s2" d="m250.3 199.4h-16.5c-0.4 0-0.8-0.1-1.1-0.4-0.3-0.3-0.4-0.7-0.4-1.1 0-0.4 0.1-0.8 0.4-1.1 0.3-0.2 0.7-0.4 1.1-0.4h16.4c0.4 0 0.8 0.2 1.1 0.4 0.3 0.3 0.4 0.7 0.4 1.1 0 0.4-0.1 0.8-0.4 1.1-0.3 0.3-0.7 0.4-1.1 0.4z"/>
		<path id="Layer" class="s2" d="m228.4 199.4h-16.5c-0.4 0-0.8-0.1-1-0.4-0.3-0.3-0.5-0.7-0.5-1.1 0-0.4 0.2-0.8 0.5-1.1 0.2-0.2 0.6-0.4 1-0.4h16.5c0.4 0 0.8 0.2 1.1 0.4 0.3 0.3 0.4 0.7 0.4 1.1 0 0.4-0.1 0.8-0.4 1.1-0.3 0.3-0.7 0.4-1.1 0.4z"/>
		<path id="Layer" class="s2" d="m204.8 199.4h-48.2c-0.3 0-0.7-0.1-1-0.4-0.3-0.3-0.5-0.7-0.5-1.1 0-0.4 0.2-0.8 0.5-1.1 0.3-0.2 0.7-0.4 1-0.4h48.2c0.4 0 0.8 0.2 1.1 0.4 0.2 0.3 0.4 0.7 0.4 1.1 0 0.4-0.2 0.8-0.4 1.1-0.3 0.3-0.7 0.4-1.1 0.4z"/>
		<path id="Layer" class="s2" d="m250.3 214.6h-16.5c-0.4 0-0.8-0.2-1.1-0.5-0.3-0.3-0.4-0.6-0.4-1 0-0.4 0.1-0.8 0.4-1.1 0.3-0.3 0.7-0.4 1.1-0.4h16.4c0.4 0 0.8 0.1 1.1 0.4 0.3 0.3 0.4 0.7 0.4 1.1 0 0.4-0.1 0.7-0.4 1-0.3 0.3-0.7 0.5-1.1 0.5z"/>
		<path id="Layer" class="s2" d="m228.4 214.6h-16.5c-0.4 0-0.8-0.2-1-0.5-0.3-0.3-0.5-0.6-0.5-1 0-0.4 0.2-0.8 0.5-1.1 0.2-0.3 0.6-0.4 1-0.4h16.5c0.4 0 0.8 0.1 1.1 0.4 0.3 0.3 0.4 0.7 0.4 1.1 0 0.4-0.1 0.7-0.4 1-0.3 0.3-0.7 0.5-1.1 0.5z"/>
		<path id="Layer" class="s4" d="m204.8 214.6h-48.2c-0.3 0-0.7-0.2-1-0.5-0.3-0.3-0.5-0.6-0.5-1 0-0.4 0.2-0.8 0.5-1.1 0.3-0.3 0.7-0.4 1-0.4h48.2c0.4 0 0.8 0.1 1.1 0.4 0.2 0.3 0.4 0.7 0.4 1.1 0 0.4-0.2 0.7-0.4 1-0.3 0.3-0.7 0.5-1.1 0.5z"/>
		<path id="Layer" class="s2" d="m173.1 207h-16.4c-0.4 0-0.8-0.2-1.1-0.4-0.3-0.3-0.4-0.7-0.4-1.1 0-0.4 0.1-0.8 0.4-1.1 0.3-0.2 0.7-0.4 1.1-0.4h16.4c0.4 0 0.8 0.2 1.1 0.4 0.3 0.3 0.4 0.7 0.4 1.1 0 0.4-0.1 0.8-0.4 1.1-0.3 0.2-0.7 0.4-1.1 0.4z"/>
		<path id="Layer" class="s5" d="m195 207h-16.5c-0.4 0-0.8-0.2-1.1-0.4-0.3-0.3-0.4-0.7-0.4-1.1 0-0.4 0.1-0.8 0.4-1.1 0.3-0.2 0.7-0.4 1.1-0.4h16.5c0.4 0 0.8 0.2 1.1 0.4 0.2 0.3 0.4 0.7 0.4 1.1 0 0.4-0.2 0.8-0.4 1.1-0.3 0.2-0.7 0.4-1.1 0.4z"/>
		<path id="Layer" class="s4" d="m250.3 207h-48.2c-0.4 0-0.8-0.2-1.1-0.4-0.2-0.3-0.4-0.7-0.4-1.1 0-0.4 0.2-0.8 0.4-1.1 0.3-0.2 0.7-0.4 1.1-0.4h48.1c0.4 0 0.8 0.2 1.1 0.4 0.3 0.3 0.4 0.7 0.4 1.1 0 0.4-0.1 0.8-0.4 1.1-0.3 0.2-0.7 0.4-1.1 0.4z"/>
		<path id="Layer" class="s2" d="m173.1 223.5h-16.4c-0.4 0-0.8-0.2-1.1-0.5-0.3-0.2-0.4-0.6-0.4-1 0-0.4 0.1-0.8 0.4-1.1 0.3-0.3 0.7-0.4 1.1-0.4h16.4c0.4 0 0.8 0.1 1.1 0.4 0.3 0.3 0.4 0.7 0.4 1.1 0 0.4-0.1 0.8-0.4 1-0.3 0.3-0.7 0.5-1.1 0.5z"/>
		<path id="Layer" class="s2" d="m195 223.5h-16.5c-0.4 0-0.8-0.2-1.1-0.5-0.3-0.2-0.4-0.6-0.4-1 0-0.4 0.1-0.8 0.4-1.1 0.3-0.3 0.7-0.4 1.1-0.4h16.5c0.4 0 0.8 0.1 1.1 0.4 0.2 0.3 0.4 0.7 0.4 1.1 0 0.4-0.2 0.8-0.4 1-0.3 0.3-0.7 0.5-1.1 0.5z"/>
		<path id="Layer" class="s4" d="m250.3 223.5h-48.2c-0.4 0-0.8-0.2-1.1-0.5-0.2-0.2-0.4-0.6-0.4-1 0-0.4 0.2-0.8 0.4-1.1 0.3-0.3 0.7-0.4 1.1-0.4h48.1c0.4 0 0.8 0.1 1.1 0.4 0.3 0.3 0.4 0.7 0.4 1.1 0 0.4-0.1 0.8-0.4 1-0.3 0.3-0.7 0.5-1.1 0.5z"/>
		<path id="Layer" class="s2" d="m173.1 238.6h-16.4c-0.4 0-0.8-0.1-1.1-0.4-0.3-0.3-0.4-0.7-0.4-1.1 0-0.4 0.1-0.7 0.4-1 0.3-0.3 0.7-0.5 1.1-0.5h16.4c0.4 0 0.8 0.2 1.1 0.5 0.3 0.3 0.4 0.6 0.4 1 0 0.4-0.1 0.8-0.4 1.1-0.3 0.3-0.7 0.4-1.1 0.4z"/>
		<path id="Layer" class="s2" d="m195 238.6h-16.5c-0.4 0-0.8-0.1-1.1-0.4-0.3-0.3-0.4-0.7-0.4-1.1 0-0.4 0.1-0.7 0.4-1 0.3-0.3 0.7-0.5 1.1-0.5h16.5c0.4 0 0.8 0.2 1.1 0.5 0.2 0.3 0.4 0.6 0.4 1 0 0.4-0.2 0.8-0.4 1.1-0.3 0.3-0.7 0.4-1.1 0.4z"/>
		<path id="Layer" class="s4" d="m250.3 238.6h-48.2c-0.4 0-0.8-0.1-1.1-0.4-0.2-0.3-0.4-0.7-0.4-1.1 0-0.4 0.2-0.7 0.4-1 0.3-0.3 0.7-0.5 1.1-0.5h48.1c0.4 0 0.8 0.2 1.1 0.5 0.3 0.3 0.4 0.6 0.4 1 0 0.4-0.1 0.8-0.4 1.1-0.3 0.3-0.7 0.4-1.1 0.4z"/>
		<path id="Layer" class="s2" d="m250.3 231.1h-16.5c-0.4 0-0.8-0.2-1.1-0.5-0.3-0.3-0.4-0.7-0.4-1 0-0.4 0.1-0.8 0.4-1.1 0.3-0.3 0.7-0.4 1.1-0.4h16.4c0.4 0 0.8 0.1 1.1 0.4 0.3 0.3 0.4 0.7 0.4 1.1 0 0.3-0.1 0.7-0.4 1-0.3 0.3-0.7 0.5-1.1 0.5z"/>
		<path id="Layer" class="s2" d="m228.4 231.1h-16.5c-0.4 0-0.8-0.2-1-0.5-0.3-0.3-0.5-0.7-0.5-1 0-0.4 0.2-0.8 0.5-1.1 0.2-0.3 0.6-0.4 1-0.4h16.5c0.4 0 0.8 0.1 1.1 0.4 0.3 0.3 0.4 0.7 0.4 1.1 0 0.3-0.1 0.7-0.4 1-0.3 0.3-0.7 0.5-1.1 0.5z"/>
		<path id="Layer" class="s4" d="m204.8 231.1h-48.2c-0.3 0-0.7-0.2-1-0.5-0.3-0.3-0.5-0.7-0.5-1 0-0.4 0.2-0.8 0.5-1.1 0.3-0.3 0.7-0.4 1-0.4h48.2c0.4 0 0.8 0.1 1.1 0.4 0.2 0.3 0.4 0.7 0.4 1.1 0 0.3-0.2 0.7-0.4 1-0.3 0.3-0.7 0.5-1.1 0.5z"/>
		<path id="Layer" class="s2" d="m129.7 116.1h5.2v5.2h-5.2z"/>
		<path id="Layer" class="s2" d="m129.7 124.6h5.2v5.2h-5.2z"/>
		<path id="Layer" class="s2" d="m129.7 133.2h5.2v5.2h-5.2z"/>
		<path id="Layer" class="s2" d="m129.7 141.7h5.2v5.2h-5.2z"/>
		<path id="Layer" class="s2" d="m129.7 150.3l5.2-0.1v5.2h-5.2z"/>
		<path id="Layer" class="s2" d="m129.7 158.8h5.2v5.2h-5.2z"/>
		<path id="Layer" class="s2" d="m129.7 167.3h5.2v5.2h-5.2z"/>
		<path id="Layer" class="s2" d="m129.7 175.9h5.2v5.2h-5.2z"/>
		<path id="Layer" class="s2" d="m129.7 184.4h5.2v5.2h-5.2z"/>
		<path id="Layer" class="s2" d="m129.7 193h5.2v5.2h-5.2z"/>
		<path id="Layer" class="s2" d="m129.7 201.5h5.2v5.2h-5.2z"/>
		<path id="Layer" class="s2" d="m129.7 210.1h5.2v5.2h-5.2z"/>
		<path id="Layer" class="s2" d="m129.7 218.6h5.2v5.2h-5.2z"/>
		<path id="Layer" class="s2" d="m129.7 227.1h5.2v5.2h-5.2z"/>
		<path id="Layer" class="s2" d="m129.7 235.7h5.2v5.2h-5.2z"/>
		<path id="Layer" class="s2" d="m129.7 244.2h5.2v5.2h-5.2z"/>
		<path id="Layer" class="s2" d="m129.7 252.8h5.2v5.2h-5.2z"/>
		<path id="Layer" class="s2" d="m129.7 261.3h5.2v5.2h-5.2z"/>
	</g>
	<g id="freepik--speech-bubble--inject-15">
		<path id="Layer" class="s2" d="m380 22.7c-11.4 0-22.6 3.4-32 9.8-9.5 6.4-16.8 15.5-21.1 26.1-4.2 10.5-5.2 22.2-2.8 33.3 2.4 11.2 8.1 21.4 16.4 29.3l-8.2 15.2 20-6.5c15.5 8.6 34.1 9.5 50.3 2.5 16.3-7 28.4-21.1 32.8-38.3 4.4-17.1 0.7-35.3-10.2-49.3-10.8-14-27.5-22.1-45.2-22.1z"/>
		<path id="Layer" fill-rule="evenodd" class="s2" d="m380 137.6q-3.6-0.1-7.2-0.5-3.6-0.5-7.1-1.4-3.5-0.9-6.9-2.2-3.4-1.3-6.5-3.1l-19.8 6.4q-0.1 0.1-0.2 0.1 0 0-0.1-0.1-0.1 0-0.1 0-0.1-0.1-0.2-0.1 0-0.1 0-0.1-0.1-0.1-0.1-0.2 0-0.1 0-0.1 0.1-0.1 0.1-0.2l8-14.8c-13.9-13.5-20.1-33-16.6-52 3.6-19.1 16.4-35 34.2-42.6 17.9-7.5 38.3-5.6 54.4 5 16.1 10.7 25.8 28.8 25.8 48.1 0 7.6-1.5 15.1-4.4 22.1-2.9 7-7.1 13.4-12.5 18.7-5.4 5.4-11.7 9.6-18.7 12.6-7 2.9-14.5 4.3-22.1 4.4zm-27.7-8.2q0 0 0.1 0 0 0 0 0 0.1 0 0.1 0 0 0 0 0.1c22.4 12.3 50.3 8.2 68.1-10.1 17.9-18.3 21.2-46.3 8.3-68.3-13-22.1-39.1-32.7-63.8-25.9-24.7 6.7-41.8 29.1-41.8 54.7q0 5.7 1.1 11.3 1.2 5.7 3.4 11 2.3 5.2 5.6 10 3.3 4.7 7.4 8.7 0.1 0 0.1 0.1 0.1 0.1 0.1 0.1 0 0.1 0 0.2 0 0.1-0.1 0.2l-7.5 14.1 18.7-6.1z"/>
		<path id="Layer" class="s3" d="m377.3 18.6c-11.4 0-22.6 3.4-32 9.8-9.5 6.4-16.8 15.5-21.1 26.1-4.2 10.6-5.2 22.2-2.8 33.4 2.4 11.1 8.1 21.3 16.4 29.2l-8.1 15.2 20-6.5c15.4 8.6 34 9.5 50.3 2.5 16.2-7 28.3-21.1 32.7-38.2 4.4-17.2 0.7-35.4-10.2-49.4-10.8-14-27.5-22.1-45.2-22.1z"/>
		<path id="Layer" fill-rule="evenodd" class="s2" d="m377.3 133.5q-3.6 0-7.2-0.5-3.6-0.4-7.1-1.3-3.5-0.9-6.9-2.3-3.4-1.3-6.5-3l-19.8 6.4q-0.1 0-0.1 0-0.1 0-0.2 0-0.1-0.1-0.1-0.1-0.1 0-0.1-0.1-0.1-0.1-0.1-0.1 0-0.1 0-0.2-0.1 0 0-0.1 0-0.1 0-0.2l8-14.8c-19.8-19.2-23.2-49.8-8.2-72.9 15.1-23.2 44.5-32.4 70-22 25.6 10.4 40.3 37.4 35 64.5-5.3 27.1-29 46.7-56.7 46.7zm-27.6-8.2q0 0 0 0 0.1 0 0.1 0 0 0 0 0 0.1 0.1 0.1 0.1c26.2 14.5 59.2 6.2 75.4-19 16.2-25.2 10-58.7-14.1-76.4-24.1-17.8-57.9-13.8-77.2 9.1-19.3 22.9-17.5 56.9 4.2 77.6q0 0.1 0.1 0.2 0 0 0 0.1 0 0.1 0 0.2 0 0 0 0.1l-7.6 14.1 18.8-6.1z"/>
		<g id="freepik--Code--inject-15">
			<path id="Layer" class="s0" d="m358.2 99.3l-22-15.5v-8.2l22-15.7v8.3l-15.8 11.5 15.8 11.4z"/>
			<path id="Layer" class="s0" d="m364.9 102.1l16.7-62.2h7.2l-16.9 62.2z"/>
			<path id="Layer" class="s0" d="m395.4 99.3v-8.2l15.9-11.5-15.9-11.4v-8.3l22.1 15.6v8.2z"/>
			<path id="Layer" class="s2" d="m360.9 95.9l-22-15.5v-8.2l22-15.7v8.3l-15.8 11.5 15.8 11.4z"/>
			<path id="Layer" class="s2" d="m367.6 98.7l16.7-62.2h7.2l-16.9 62.2z"/>
			<path id="Layer" class="s2" d="m398.1 95.9v-8.2l15.9-11.5-15.9-11.4v-8.3l22.1 15.6v8.2z"/>
		</g>
	</g>
	<g id="freepik--hand-2--inject-15">
		<path id="Layer" class="s2" d="m333.8 383.5l34.7 28.6q0.6 1.6 1.4 3.1 0.7 1.5 1.6 2.9 0.8 1.5 1.8 2.9 0.9 1.4 2 2.7c4.7 6.1 60.6 29.3 60.6 29.3l9.5 2.7-104.2-78.3z"/>
		<path id="Layer copy 2" class="s2" d="m333.8 383.5l34.7 28.6q0.6 1.6 1.4 3.1 0.7 1.5 1.6 2.9 0.8 1.5 1.8 2.9 0.9 1.4 2 2.7c4.7 6.1 60.6 29.3 60.6 29.3l9.5 2.7-104.2-78.3z"/>
		<path id="Layer" fill-rule="evenodd" class="s2" d="m445.4 456.2q0 0 0 0-0.1 0-0.1 0 0 0 0 0 0 0 0 0l-9.6-2.7c-2.3-1-56-23.3-60.8-29.5q-1.1-1.3-2-2.7-1-1.4-1.8-2.8-0.9-1.5-1.6-3-0.8-1.5-1.4-3.1l-34.6-28.5q0 0-0.1 0 0-0.1 0-0.1 0-0.1-0.1-0.1 0-0.1 0-0.1 0-0.1 0-0.2 0.1 0 0.1-0.1 0 0 0-0.1 0.1 0 0.1 0l7.4-6.2q0.1 0 0.2-0.1 0 0 0.1 0 0.1 0 0.2 0 0.1 0.1 0.1 0.1l104.2 78.3q0.1 0.1 0.1 0.2 0.1 0 0.1 0.1 0 0.1 0 0.2 0 0.1-0.1 0.2 0 0 0 0.1-0.1 0-0.1 0-0.1 0.1-0.2 0.1 0 0-0.1 0zm-110.8-72.7l34.2 28.2q0 0.1 0 0.1 0 0 0.1 0 0 0.1 0 0.1 0 0 0 0 0.7 1.6 1.4 3.1 0.8 1.5 1.6 2.9 0.9 1.4 1.8 2.8 0.9 1.4 2 2.7c4.6 5.9 59.8 28.9 60.4 29.1l6.8 2-101.7-76.5z"/>
		<path id="Layer" class="s3" d="m401.3 360.8c0 0-9.3-11.3-13.4-18.6-4.2-7.2-10-24-14.5-34-4.5-10-11-13.1-18.9-16.2-7.9-3.1-11-2.4-11-0.3 0 2 3.1 5.8 3.1 5.8l-13.4 2.4c0 0-5.6-3.1-9-2-3.4 1-10 7.5-10 7.5 0 0-6.9-2.4-11-1.4-4.1 1.1-15.5 6.6-20.3 9-4.8 2.4-10 2.7-9.6 4.8 0.3 2.1 5.1 5.5 9.6 4.8 4.5-0.6 12-3.4 16.9-3.4 4.8 0 7.2 1 9.6 2.7 2.4 1.8 12.4 15.9 13.8 17.6 1.3 1.7 2.7 8.6 2.7 8.6 0 0-6.1-2.6-9.8-6-3.8-3.4-9.2-11.5-15.4-12.2-6.2-0.7-13 4.8-9.5 7.6 3.4 2.7 6.8 4.4 9.3 7.5 2.4 3.1 6.1 12.4 12.7 22.4 6.5 10 20.6 16.2 20.6 16.2l29.3 12c0 0 7.5-17.9 21.7-22.7 14.1-4.9 18.2-6.9 18.2-6.9z"/>
		<path id="Layer" fill-rule="evenodd" class="s2" d="m363.1 396.1q0 0-0.1 0 0 0 0 0 0 0-0.1 0 0 0 0 0l-29.3-12.1c-0.1-0.1-14.3-6.4-20.8-16.4q-1.2-1.8-2.4-3.7-1.1-1.9-2.2-3.8-1.1-1.9-2.1-3.9-1.1-1.9-2.1-3.9-0.4-0.9-0.9-1.8-0.4-0.9-0.9-1.8-0.5-0.8-1.1-1.7-0.5-0.8-1.1-1.7-0.6-0.7-1.3-1.4-0.6-0.7-1.4-1.3-0.7-0.6-1.5-1.2-0.8-0.6-1.6-1.1c-1.1-0.8-2.2-1.6-3.4-2.5q-0.3-0.3-0.6-0.6-0.3-0.4-0.4-0.9-0.1-0.5-0.1-1 0.1-0.4 0.3-0.9c1.1-2.7 6.1-5.5 10.7-5 4.7 0.5 9.1 5.2 12.5 9 1.2 1.2 2.2 2.4 3.2 3.3q1 0.8 2.1 1.6 1 0.8 2.1 1.5 1.1 0.7 2.3 1.3 1.1 0.6 2.3 1.1c-0.5-2.3-1.5-6.2-2.4-7.4-0.4-0.4-1.2-1.5-2.3-3.1-3.4-4.5-9.6-13.1-11.4-14.4-2.4-1.6-4.6-2.6-9.3-2.6-3 0-7 1.1-10.6 2-2.3 0.6-4.5 1.1-6.2 1.4-4.6 0.7-9.8-2.8-10.2-5.2-0.3-1.7 1.8-2.4 4.6-3.3q0.7-0.2 1.3-0.4 0.7-0.3 1.4-0.5 0.6-0.3 1.3-0.5 0.6-0.3 1.3-0.6c2.6-1.3 15.7-7.8 20.4-9 3.8-1 9.6 0.8 11 1.3 1.2-1.2 6.8-6.6 10-7.5 3.2-1 8.2 1.5 9.2 2l12.4-2.2c-0.9-1.3-2.7-3.8-2.7-5.5q0-0.3 0-0.5 0.1-0.3 0.2-0.5 0.1-0.2 0.3-0.4 0.2-0.2 0.4-0.4c1.6-1.1 5.3-0.5 10.8 1.6 8.1 3.2 14.7 6.4 19.2 16.5 1.7 3.9 3.7 8.7 5.7 13.9 3.1 7.7 6.2 15.7 8.7 20.1 4.1 7.1 13.3 18.4 13.4 18.5q0 0 0 0 0 0.1 0 0.1 0 0 0.1 0 0 0 0 0.1l1.7 5.1q0 0.1 0 0.2 0 0.1 0 0.2-0.1 0.1-0.1 0.1-0.1 0.1-0.2 0.1c-0.1 0.1-4.3 2.2-18.3 6.9-13.7 4.7-21.3 22.3-21.3 22.5q-0.1 0-0.1 0.1-0.1 0.1-0.1 0.1-0.1 0-0.2 0.1 0 0-0.1 0zm-63.5-65.8c-3.9 0-7.8 2.3-8.7 4.5q-0.1 0.3-0.2 0.6 0 0.3 0.1 0.6 0.1 0.3 0.2 0.6 0.2 0.2 0.5 0.4c1.1 0.9 2.2 1.7 3.3 2.5q0.9 0.5 1.7 1.1 0.8 0.6 1.5 1.3 0.8 0.6 1.5 1.3 0.7 0.7 1.3 1.5 0.6 0.8 1.1 1.7 0.6 0.9 1.1 1.8 0.5 0.9 1 1.8 0.5 0.9 0.9 1.8 1 2 2 3.9 1.1 2 2.1 3.9 1.1 1.9 2.3 3.8 1.1 1.8 2.3 3.7c6.4 9.7 20.3 15.9 20.4 16l28.8 11.8c1.3-2.8 8.9-18.1 21.8-22.5 11.5-4 16.4-6.1 17.7-6.7l-1.5-4.6c-0.8-1-9.5-11.7-13.4-18.6-2.5-4.4-5.7-12.5-8.8-20.2-2-5.2-3.9-10-5.7-13.9-4.3-9.7-10.5-12.7-18.6-15.9-7.1-2.8-9.3-2.1-9.9-1.7q-0.1 0.1-0.2 0.2-0.1 0.1-0.2 0.2 0 0.1 0 0.2-0.1 0.1-0.1 0.3c0 1.5 2.2 4.5 3 5.5q0.1 0.1 0.1 0.2 0.1 0.2 0 0.3 0 0.1-0.1 0.2-0.1 0.1-0.3 0.1l-13.4 2.4q0 0-0.1 0 0 0-0.1 0 0 0 0 0-0.1 0-0.1 0c0-0.1-5.4-3-8.6-2-3.2 1-9.7 7.3-9.7 7.4q-0.1 0.1-0.1 0.1-0.1 0-0.2 0 0 0.1-0.1 0.1-0.1-0.1-0.2-0.1c0 0-6.7-2.3-10.7-1.3-3.5 0.8-13.1 5.3-20.2 8.9q-0.6 0.3-1.3 0.6-0.7 0.3-1.3 0.5-0.7 0.3-1.4 0.5-0.7 0.3-1.4 0.5c-2.2 0.7-4.1 1.3-4 2.2 0.3 1.7 4.9 5 9.1 4.4 1.6-0.3 3.8-0.9 6.1-1.5 3.6-1 7.8-2 10.8-2 5 0 7.5 1.1 9.9 2.9 1.8 1.2 6.9 8.2 11.6 14.6 1.1 1.5 2 2.6 2.3 3 1.4 1.8 2.8 8.5 2.8 8.8q0.1 0.1 0.1 0.2 0 0-0.1 0.1 0 0.1 0 0.1-0.1 0.1-0.1 0.1-0.1 0.1-0.1 0.1-0.1 0-0.2 0 0 0-0.1 0-0.1 0-0.1 0-1.4-0.6-2.7-1.3-1.3-0.7-2.6-1.4-1.2-0.8-2.4-1.6-1.2-0.9-2.3-1.8c-1-0.9-2.1-2.1-3.3-3.4-3.3-3.7-7.4-8.2-11.9-8.7-0.2-0.1-0.6-0.1-0.9-0.1z"/>
		<path id="Layer" class="s2" d="m273.3 318.3q-0.2 0-0.4-0.1-0.2-0.1-0.2-0.3 0-0.2 0.1-0.4 0.1-0.2 0.4-0.2c0.1 0 3.3-0.8 4.2-1.2q0.3-0.1 0.6-0.2 0.2-0.1 0.4-0.3 0.3-0.1 0.5-0.3 0.2-0.2 0.5-0.4 0 0 0.1 0 0.1-0.1 0.2-0.1 0.1 0 0.2 0.1 0.1 0 0.2 0.1 0 0.1 0.1 0.2 0 0.1 0 0.2 0 0.1-0.1 0.2 0 0-0.1 0.1-0.2 0.2-0.5 0.4-0.3 0.2-0.6 0.4-0.2 0.2-0.5 0.3-0.3 0.2-0.7 0.3c-1 0.3-4.2 1.1-4.3 1.2z"/>
		<path id="Layer" class="s2" d="m346.9 333q-0.1 0-0.1 0-0.1 0-0.1 0 0 0-0.1-0.1 0 0 0 0-0.9-0.9-1.7-1.9-0.7-1-1.4-2-0.6-1.1-1.1-2.2-0.5-1.2-0.8-2.4c-1.2-4-4.9-6-6.9-7l-0.4-0.2c-4.4-2.4-20.2-11.2-20.3-11.3q-0.1 0-0.2-0.1 0-0.1-0.1-0.2 0-0.1 0-0.2 0-0.1 0.1-0.1 0-0.1 0.1-0.2 0.1-0.1 0.2-0.1 0.1 0 0.2 0 0.1 0 0.2 0.1c0.1 0.1 15.9 8.9 20.3 11.2l0.4 0.2c2 1 6.1 3.3 7.4 7.7q0.3 1.1 0.7 2.2 0.5 1 1.1 2.1 0.6 1 1.3 1.9 0.7 0.9 1.5 1.8 0.1 0.1 0.2 0.2 0 0.2-0.1 0.3 0 0.2-0.1 0.3-0.2 0-0.3 0z"/>
		<path id="Layer" class="s2" d="m359.6 323.1q0 0-0.1 0-0.1 0-0.1 0-0.1-0.1-0.1-0.1-0.1-0.1-0.1-0.1c0-0.1-1.7-3.5-3.4-6.6-1.4-2.4-4-3-5.5-3.3q-0.5-0.1-0.8-0.2c-1.1-0.4-14.1-10.5-16.7-12.5q-0.1-0.1-0.2-0.3 0-0.2 0.1-0.4 0.2-0.2 0.4-0.2 0.2 0 0.3 0.1c5.9 4.6 15.6 12 16.4 12.3q0.3 0.1 0.7 0.2c1.5 0.3 4.6 1.1 6.1 3.8 1.7 3.1 3.5 6.6 3.5 6.6q0 0.1 0 0.2 0 0.1 0 0.2 0 0.1-0.1 0.2-0.1 0-0.1 0.1-0.1 0-0.1 0 0 0 0 0-0.1 0-0.1 0 0 0-0.1 0z"/>
		<path id="Layer" class="s2" d="m365.1 315.2q0 0-0.1 0 0 0-0.1 0 0-0.1-0.1-0.1 0 0 0-0.1c-0.4-0.4-9-10-11.1-14.2-1.9-3.7-7-2.8-7-2.8q-0.1 0-0.2 0-0.1 0-0.2-0.1-0.1 0-0.1-0.1-0.1-0.1-0.1-0.2 0-0.1 0-0.2 0-0.1 0.1-0.2 0-0.1 0.1-0.1 0.1-0.1 0.2-0.1c0.1 0 5.9-1 8.1 3.4 2 4 10.9 13.9 10.9 14q0.1 0.1 0.2 0.1 0 0.1 0 0.2 0 0.1 0 0.2-0.1 0.1-0.2 0.2 0 0 0 0-0.1 0.1-0.1 0.1-0.1 0-0.1 0-0.1 0-0.2 0z"/>
		<path id="Layer" class="s2" d="m297.4 342.4q-0.1 0-0.2 0 0 0-0.1-0.1-0.1 0-0.1-0.1-0.1 0-0.1-0.1 0-0.1 0-0.2 0-0.1 0-0.2 0-0.1 0.1-0.1 0.1-0.1 0.1-0.1 0.4-0.2 0.8-0.5 0.3-0.3 0.6-0.6 0.3-0.3 0.5-0.7 0.3-0.3 0.4-0.7 0.1-0.3 0.1-0.5 0-0.3-0.1-0.6 0-0.2-0.1-0.5-0.1-0.2-0.3-0.4c-1.9-2.8-5.7-2.9-5.8-2.9q-0.2 0-0.3-0.1-0.2-0.2-0.2-0.4 0-0.2 0.2-0.3 0.1-0.2 0.3-0.2c0.2 0 4.5 0 6.6 3.3q0.3 0.3 0.4 0.7 0.2 0.3 0.2 0.7 0.1 0.3 0.1 0.7 0 0.4-0.1 0.7-0.2 0.5-0.5 1-0.3 0.4-0.6 0.8-0.4 0.4-0.8 0.8-0.4 0.3-0.9 0.5 0 0-0.1 0 0 0.1 0 0.1-0.1 0-0.1 0 0 0 0 0z"/>
		<path id="Layer" class="s0" d="m400.6 356.4c0 0-18.6 4.8-30.3 17.8-11.7 13.1-11.7 24.1-10.7 25.9 1.1 1.7 23.4 13.7 23.4 13.7 0 0 13.8-26.5 23.4-33 9.6-6.5 16.6-8.3 16.6-8.3 0 0-17.2-11-17.9-12.4-0.7-1.4-2.1-4.8-4.5-3.7z"/>
		<path id="Layer" fill-rule="evenodd" class="s2" d="m383 414.3q0 0-0.1 0 0 0 0 0-0.1 0-0.1 0 0 0 0-0.1c-3.8-2-22.6-12.2-23.6-13.9-1.1-1.7-1.2-13.1 10.7-26.4 11.4-12.7 29.5-17.8 30.5-18 2.6-1.1 4.1 2.1 4.9 3.6l0.2 0.4c0.6 1 11.2 8 17.7 12.2q0 0.1 0.1 0.1 0 0.1 0.1 0.2 0 0 0 0.1 0 0.1 0 0.1 0 0.1 0 0.2-0.1 0-0.1 0.1-0.1 0.1-0.1 0.1-0.1 0-0.2 0c0 0-6.9 1.8-16.3 8.2-9.4 6.4-23.1 32.6-23.3 32.9q0 0 0 0.1 0 0-0.1 0 0 0.1-0.1 0.1 0 0-0.1 0zm18.4-57.6q0 0-0.1 0-0.1 0-0.2 0-0.1 0-0.2 0.1 0 0-0.1 0h-0.1c-0.2 0.1-18.6 5-30 17.8-11.4 12.8-11.6 23.6-10.6 25.2 0.7 1.2 14.2 8.7 22.8 13.3 1.9-3.6 14.2-26.6 23.3-32.7q1.8-1.3 3.7-2.4 1.9-1.2 3.8-2.2 2-1 4-1.8 2-0.9 4.1-1.6c-4.2-2.8-16.5-10.7-17.2-12l-0.2-0.5c-0.7-1.6-1.6-3.2-2.9-3.2z"/>
		<path id="Layer" class="s0" d="m452.9 459.9c0 0-18.9-9.6-23.4-12l-35.1-18.9q-0.8-0.2-1.5-0.4-0.7-0.3-1.5-0.5-0.7-0.3-1.4-0.6-0.7-0.2-1.5-0.6c-2-1-5.1-0.6-6.5-7.9-1.4-7.2 2.1-21.7 17.6-36.1 15.5-14.5 25.1-13.8 25.1-13.8 0 0 6.5-0.7 8.2 0.7 1.7 1.4 2.1 5.5 3.8 6.2 1.7 0.7 49.4 15 49.4 15"/>
		<path id="Layer copy" class="s0" d="m452.9 459.9c0 0-18.9-9.6-23.4-12l-35.1-18.9q-0.8-0.2-1.5-0.4-0.7-0.3-1.5-0.5-0.7-0.3-1.4-0.6-0.7-0.2-1.5-0.6c-2-1-5.1-0.6-6.5-7.9-1.4-7.2 2.1-21.7 17.6-36.1 15.5-14.5 25.1-13.8 25.1-13.8 0 0 6.5-0.7 8.2 0.7 1.7 1.4 2.1 5.5 3.8 6.2 1.7 0.7 49.4 15 49.4 15"/>
		<g clip-path="url(#cp1)">
			<path id="Layer copy 3" class="s0" d="m452.9 459.9c0 0-18.9-9.6-23.4-12l-35.1-18.9q-0.8-0.2-1.5-0.4-0.7-0.3-1.5-0.5-0.7-0.3-1.4-0.6-0.7-0.2-1.5-0.6c-2-1-5.1-0.6-6.5-7.9-1.4-7.2 2.1-21.7 17.6-36.1 15.5-14.5 25.1-13.8 25.1-13.8 0 0 6.5-0.7 8.2 0.7 1.7 1.4 2.1 5.5 3.8 6.2 1.7 0.7 49.4 15 49.4 15"/>
			<path id="Layer" class="s2" d="m452.9 460.4q0 0-0.1 0 0 0 0 0-0.1 0-0.1 0 0 0 0 0c-0.2-0.1-19-9.7-23.5-12l-35-18.9q-0.7-0.2-1.5-0.5-0.7-0.2-1.4-0.5-0.8-0.2-1.5-0.5-0.7-0.3-1.4-0.6-0.2-0.1-0.3-0.2-0.2 0-0.3-0.1-0.1 0-0.3-0.1-0.1 0-0.3-0.1c-2-0.7-4.5-1.5-5.6-7.8-1.2-6.2 1.1-21.1 17.6-36.6 15.5-14.4 25.2-13.9 25.5-13.9 0.6 0 6.8-0.6 8.6 0.8q0.3 0.4 0.6 0.8 0.3 0.3 0.6 0.8 0.2 0.4 0.4 0.8 0.2 0.5 0.4 1c0.5 1.2 1 2.5 1.7 2.7 1.6 0.7 48.8 14.8 49.3 15q0.2 0.1 0.3 0.2 0.1 0.2 0 0.4-0.1 0.2-0.2 0.3-0.2 0.1-0.4 0.1c-2-0.6-47.7-14.3-49.4-15-1.1-0.5-1.7-1.9-2.3-3.3q-0.1-0.4-0.2-0.8-0.2-0.4-0.4-0.8-0.2-0.4-0.5-0.7-0.2-0.4-0.5-0.7c-1.3-1-6.1-0.7-7.9-0.6-0.2 0-9.7-0.4-24.8 13.7-16.2 15.1-18.6 29.5-17.4 35.6 1 5.7 3.2 6.5 5 7.1q0.1 0.1 0.3 0.1 0.1 0.1 0.3 0.1 0.1 0.1 0.3 0.2 0.2 0 0.3 0.1 0.7 0.3 1.4 0.6 0.7 0.3 1.4 0.5 0.8 0.3 1.5 0.5 0.7 0.2 1.5 0.4h0.1l35.1 18.9c4.4 2.4 23.2 12 23.4 12q0 0.1 0.1 0.1 0.1 0.1 0.1 0.2 0 0.1 0 0.2 0 0.1 0 0.2-0.1 0.1-0.1 0.1-0.1 0.1-0.1 0.1-0.1 0.1-0.2 0.1 0 0-0.1 0z"/>
		</g>
		<path id="Layer" class="s2" d="m401.6 426.4q0-0.1-0.1-0.1-0.1 0-0.1 0-0.1-0.1-0.1-0.1-0.1 0-0.1-0.1c-4.9-8.7-2.9-18.8-2.8-19.3q0-0.1 0.1-0.1 0-0.1 0.1-0.2 0.1 0 0.2-0.1 0.1 0 0.2 0 0.1 0.1 0.1 0.1 0.1 0.1 0.2 0.2 0 0 0.1 0.1 0 0.1 0 0.2c0 0.1-2 10.3 2.7 18.6q0 0.1 0 0.3 0 0.1 0 0.2-0.1 0.1-0.2 0.2-0.1 0-0.3 0.1z"/>
		<path id="Layer" class="s2" d="m407.1 430.5q0 0-0.1 0-0.1-0.1-0.1-0.1-0.1 0-0.1-0.1-0.1 0-0.1-0.1c-3.1-4.9-4.3-8.2-3.8-9.7q0.1-0.1 0.1-0.2 0.1-0.1 0.2-0.2 0 0 0.1-0.1 0.1-0.1 0.2-0.1 0.1-0.1 0.2-0.1 0.1 0.1 0.2 0.1 0.1 0 0.2 0.1 0 0.1 0.1 0.2 0 0.1 0 0.2 0 0.1-0.1 0.1 0 0.1 0 0.2-0.1 0.1-0.2 0.1c-0.1 0.1-0.9 1.6 3.6 8.9q0.1 0.1 0.1 0.2 0 0.1 0 0.2 0 0.1-0.1 0.2 0 0.1-0.1 0.1 0 0-0.1 0 0 0.1 0 0.1-0.1 0-0.1 0 0 0-0.1 0z"/>
	</g>
	<g id="freepik--hand-1--inject-15">
		<path id="Layer" class="s2" d="m191.7 353.2c0 0-22.7 27-29.5 32.4q-1.6 1.2-3.1 2.4-1.6 1.1-3.2 2.2-1.7 1.1-3.3 2.2-1.7 1-3.4 2l-24.5 24.5c0 0 0.7 3.4-6.1 7.5-6.8 4.1-20.4 8.9-23.8 10.2-3.4 1.4-40.9 18.4-40.9 18.4z"/>
		<path id="Layer" fill-rule="evenodd" class="s2" d="m53.9 455.5q-0.1 0-0.1 0-0.1 0-0.1-0.1-0.1 0-0.1 0-0.1-0.1-0.1-0.1-0.1-0.1-0.1-0.2 0-0.1 0-0.2 0-0.1 0.1-0.2 0 0 0.1-0.1l137.8-101.8q0.1-0.2 0.3-0.2 0.2 0.1 0.3 0.2 0.2 0.2 0.2 0.3 0 0.2-0.2 0.4c-0.9 1.1-22.8 27-29.5 32.4q-1.6 1.3-3.1 2.4-1.6 1.2-3.2 2.3-1.7 1.1-3.3 2.2-1.7 1-3.4 2l-24.3 24.3c0 1-0.4 4.1-6.4 7.7-5.5 3.4-15.6 7.2-21 9.2-1.2 0.5-2.2 0.8-2.8 1.1-3.4 1.3-40.5 18.2-40.9 18.4q0 0 0 0-0.1 0-0.1 0 0 0 0 0-0.1 0-0.1 0zm134.6-99.4l-130.5 96.5c10-4.5 33.8-15.3 36.6-16.4l2.9-1.1c5.3-2 15.3-5.8 20.8-9.1 6.4-3.8 5.9-6.9 5.9-7q0-0.1 0-0.1 0-0.1 0-0.2 0 0 0.1-0.1 0 0 0-0.1l24.6-24.5h0.1q1.7-1 3.3-2 1.7-1.1 3.3-2.2 1.6-1.1 3.2-2.2 1.5-1.2 3.1-2.4c5.2-4.2 20.3-21.7 26.6-29.1z"/>
		<path id="Layer" fill-rule="evenodd" class="s3" d="m228.4 315.7c-0.5 2.9-5.3 5.5-6.5 6.5q-0.4 0.3-0.9 0.6-0.5 0.3-1 0.6-0.4 0.3-0.9 0.6-0.5 0.3-1 0.6c0 0 3.6 4.3 1.4 7.1-2.1 2.9-11.4 4.6-16.4 8.6-5 4.1-9.1 8.4-11.5 12.9-2.4 4.5-11.2 15.5-22.1 20.5-11 5-30.6 14.1-30.6 14.1 0 0-14-21.6-22.9-26-8.8-4.5-11.6-5.5-11.6-5.5l1.9-2.7c0 0 13.8-20.3 17.6-27.9 3.8-7.6 7.6-19.7 10-23.6 2.4-3.8 15.3-1.9 15.3-1.9 0 0 9.3-8.3 12.1-8.8 2.9-0.5 14.3 4.5 14.3 4.5 0 0 14.1-8.1 17.5-7.4 3.3 0.8 10 14.8 12.6 17.2 2.6 2.5 7.9 6.5 7.9 6.5 0 0 8.6 0.4 11-0.3 2.3-0.7 4.2 1 3.8 3.8zm-25.8 9.8c0 0-8.3-3.1-10.2-4.5l-4.6 13.8c0 0 9.3-7.9 14.8-9.3z"/>
		<path id="Layer" fill-rule="evenodd" class="s2" d="m139 388.2q-0.1 0-0.1 0-0.1 0-0.1 0-0.1-0.1-0.1-0.1-0.1 0-0.1-0.1c-0.2-0.2-14.1-21.4-22.7-25.8-8.6-4.4-11.6-5.4-11.6-5.5q-0.1 0-0.2-0.1-0.1-0.1-0.1-0.2-0.1-0.1-0.1-0.2 0-0.1 0.1-0.2l1.9-2.6c0.1-0.2 13.9-20.3 17.6-27.8 1.9-3.8 3.8-8.7 5.5-13 1.8-4.7 3.3-8.7 4.6-10.7 2.3-3.8 13.6-2.4 15.5-2.1 1.5-1.4 9.4-8.4 12.2-8.8 2.8-0.5 12.4 3.6 14.4 4.4 2.2-1.2 14.2-8 17.5-7.3 2.1 0.5 4.9 4.8 8.5 10.8 1.8 2.9 3.4 5.6 4.4 6.5 2.3 2.1 6.9 5.7 7.7 6.3 1.2 0.1 8.5 0.4 10.6-0.2q0.5-0.2 0.9-0.2 0.5 0 0.9 0 0.4 0.1 0.9 0.3 0.4 0.2 0.7 0.5 0.4 0.3 0.6 0.8 0.3 0.4 0.4 0.9 0.2 0.5 0.2 1 0 0.6-0.1 1.1c-0.4 2.5-3.7 4.7-5.6 6q-0.7 0.4-1 0.7-0.4 0.3-0.8 0.5-0.5 0.3-0.9 0.6-0.4 0.3-0.8 0.5-0.5 0.3-0.9 0.5c0.9 1.3 3 4.7 1.1 7.3-1.2 1.6-4 2.7-7.3 4-3.3 1.3-6.8 2.7-9.2 4.7-5.5 4.4-9.2 8.5-11.4 12.7-2.2 4.2-11.1 15.6-22.4 20.7-10.9 5-30.3 14-30.5 14.1q-0.1 0-0.1 0 0 0 0 0 0 0-0.1 0 0 0 0 0zm-33.8-32.2c1.2 0.5 4.5 1.9 11.1 5.3 8.3 4.2 20.9 22.8 22.8 25.8 2.8-1.3 20.2-9.3 30.2-13.9 11.1-5.1 19.7-16 22-20.3 2.2-4.3 6-8.6 11.5-13 2.6-2.1 6.3-3.6 9.5-4.8 3-1.2 5.9-2.4 6.9-3.7 1.9-2.5-1.4-6.5-1.4-6.5q-0.1-0.1-0.1-0.1 0-0.1 0-0.1 0-0.1 0-0.1 0-0.1 0-0.1 0-0.1 0-0.1 0-0.1 0.1-0.1 0-0.1 0-0.1 0.1-0.1 0.1-0.1 0.5-0.3 1-0.5 0.5-0.3 0.9-0.6 0.5-0.3 1-0.6 0.4-0.3 0.9-0.6 0.3-0.3 1-0.8c1.7-1.1 4.9-3.3 5.2-5.4q0.1-0.3 0.1-0.7 0-0.4-0.1-0.8-0.1-0.4-0.3-0.7-0.2-0.3-0.4-0.6-0.3-0.2-0.6-0.4-0.3-0.1-0.6-0.1-0.3-0.1-0.6-0.1-0.3 0.1-0.7 0.2c-2.4 0.7-10.7 0.3-11.1 0.2q0 0-0.1 0 0 0 0 0-0.1 0-0.1 0 0 0-0.1-0.1c0 0-5.3-4.1-7.9-6.4-1-1-2.7-3.7-4.5-6.7-2.6-4.2-6-10-7.9-10.4-2.5-0.5-13.2 5.1-17 7.4q-0.1 0-0.1 0-0.1 0-0.2 0 0 0-0.1 0 0 0-0.1 0c-3.1-1.4-11.8-4.9-14-4.5-2.2 0.3-9.3 6.4-11.9 8.7q0 0-0.1 0 0 0.1-0.1 0.1 0 0-0.1 0 0 0-0.1 0c-3.5-0.5-12.9-1.2-14.8 1.7-1.1 1.9-2.7 6-4.5 10.4-1.7 4.4-3.6 9.4-5.4 13.1-3.8 7.6-17.6 27.8-17.7 28zm82.6-20.7q0 0 0 0-0.1 0-0.1 0-0.1 0-0.1 0 0 0 0 0-0.1-0.1-0.2-0.2 0 0 0-0.1-0.1-0.1-0.1-0.2 0 0 0.1-0.1l4.5-13.8q0-0.1 0-0.1 0.1-0.1 0.1-0.1 0.1-0.1 0.1-0.1 0.1 0 0.1-0.1 0.1 0 0.1 0 0.1 0 0.1 0 0.1 0 0.2 0.1 0 0 0.1 0c1.8 1.4 10 4.4 10.1 4.5q0.2 0 0.3 0.1 0.2 0.2 0.2 0.4 0 0.2-0.2 0.3-0.1 0.2-0.3 0.2c-5.3 1.3-14.5 9.1-14.6 9.2q0 0-0.1 0 0 0-0.1 0 0 0-0.1 0 0 0-0.1 0zm4.8-13.5l-3.8 11.6c2.6-2 8-6.2 12.3-7.9q-1.1-0.4-2.1-0.8-1.1-0.5-2.2-0.9-1-0.5-2.1-1-1-0.5-2.1-1z"/>
		<path id="Layer" class="s2" d="m140.1 316.5q0 0-0.1-0.1-0.1 0-0.2-0.1 0 0-0.1-0.1 0-0.1-0.1-0.1c0-0.5-0.7-4.3-0.2-5.8 0.5-1.5 8-9 9.4-10.4q0.2-0.2 0.4-0.2 0.2 0 0.4 0.2 0.1 0.1 0.1 0.3 0 0.2-0.1 0.4c-3.4 3.4-8.9 9.1-9.2 10-0.3 1 0 4.2 0.2 5.3q0.1 0.1 0 0.2 0 0.1 0 0.2-0.1 0-0.2 0.1-0.1 0-0.2 0.1z"/>
		<path id="Layer" class="s2" d="m147.8 321.2q0 0-0.1 0 0 0 0 0 0 0 0 0-0.1 0-0.1 0-0.1 0-0.1-0.1-0.1 0-0.2-0.1 0-0.1 0-0.2 0-0.1 0-0.2l1.9-6.2q0 0 0-0.1 0 0 0.1 0 0-0.1 0-0.1 0.1 0 0.1 0l26-18.6q0.1-0.1 0.2-0.1 0.1-0.1 0.2 0 0.1 0 0.1 0 0.1 0.1 0.2 0.2 0 0.1 0.1 0.1 0 0.1 0 0.2 0 0.1-0.1 0.2 0 0.1-0.1 0.2l-25.9 18.5-1.8 6q-0.1 0-0.1 0.1-0.1 0.1-0.1 0.1-0.1 0.1-0.2 0.1 0 0-0.1 0z"/>
		<path id="Layer" class="s2" d="m160.7 325.8h-0.1q-0.1-0.1-0.2-0.1-0.1-0.1-0.2-0.1 0-0.1 0-0.2-0.1-0.1 0-0.2c0.1-1 1-6.2 2.3-7.2 1.2-1.1 9-2.9 10.3-3.2 2.6-2.2 14-12 16.5-12 1 0 3.6 1.1 8.3 3.2 5.6 2.5 13.3 5.9 15.9 5.6q0.2 0 0.4 0.1 0.2 0.2 0.2 0.4 0 0.2-0.1 0.3-0.2 0.2-0.4 0.2c-2.8 0.3-10-2.9-16.4-5.7-3.5-1.5-7.1-3.1-7.9-3.1-1.6 0-10.6 7.2-15.9 11.8q0 0-0.1 0 0 0 0 0.1-0.1 0-0.1 0 0 0 0 0c-3.5 0.8-9.3 2.4-10 3-0.8 0.6-1.6 4.2-2 6.6q0 0.1-0.1 0.2 0 0.1-0.1 0.1-0.1 0.1-0.2 0.1-0.1 0.1-0.1 0.1z"/>
		<path id="Layer" class="s2" d="m222.9 316.7q-0.5 0-1-0.1-0.5 0-0.9-0.2-0.5-0.2-0.9-0.4-0.4-0.3-0.7-0.6-0.9-1-0.5-1.8c0.4-0.9 2-1 2.3-1q0.1 0 0.2 0 0.1 0.1 0.2 0.1 0 0.1 0.1 0.2 0 0.1 0 0.2 0 0.1 0 0.2-0.1 0.1-0.1 0.1-0.1 0.1-0.2 0.2-0.1 0-0.2 0c-0.6 0-1.3 0.2-1.4 0.4 0 0.1 0 0.3 0.4 0.7 1.5 1.7 5 0.7 6.4 0.3q0.1 0 0.2 0 0.1 0 0.1 0 0.1 0.1 0.2 0.2 0 0.1 0.1 0.1 0 0.1 0 0.2 0 0.1-0.1 0.2 0 0.1-0.1 0.2-0.1 0-0.2 0.1-0.4 0.1-0.9 0.2-0.5 0.2-1 0.2-0.5 0.1-1 0.2-0.5 0-1 0.1z"/>
		<path id="Layer" class="s2" d="m202.6 326q-0.1 0-0.3-0.1-0.1-0.1-0.2-0.3 0-0.1 0.1-0.3 0-0.1 0.2-0.2c0.3-0.2 8.9-5.1 16-1q0 0.1 0.1 0.1 0.1 0.1 0.1 0.2 0 0.1 0 0.2 0 0.1-0.1 0.2 0 0.1-0.1 0.1-0.1 0.1-0.2 0.1-0.1 0.1-0.2 0-0.1 0-0.1 0c-6.6-3.9-15 0.9-15 0.9q-0.1 0-0.1 0.1 0 0-0.1 0 0 0 0 0 0 0-0.1 0z"/>
		<path id="Layer" class="s2" d="m213.6 334.8q-0.1 0-0.2 0-0.1 0-0.1-0.1-0.1 0-0.2-0.1 0-0.1 0-0.2l-0.2-1.4q-0.3-0.7-0.5-1.3-0.2-0.7-0.5-1.3-0.2-0.7-0.5-1.3-0.3-0.6-0.6-1.2-0.1-0.1-0.1-0.1 0-0.1 0-0.1 0-0.1 0-0.1 0-0.1 0.1-0.1 0-0.1 0-0.1 0-0.1 0.1-0.1 0 0 0-0.1 0.1 0 0.1 0l4.8-1.7q0.2-0.1 0.4 0 0.2 0.1 0.3 0.3 0.1 0.2 0 0.4-0.1 0.2-0.4 0.2l-4.2 1.5q0.3 0.6 0.6 1.2 0.3 0.6 0.5 1.2 0.2 0.6 0.5 1.3 0.2 0.6 0.4 1.2l0.2 1.4q0 0.1 0 0.2 0 0.1-0.1 0.2-0.1 0.1-0.1 0.1-0.1 0.1-0.2 0.1z"/>
		<path id="Layer" class="s2" d="m183.5 344.8q0 0 0 0 0 0.1-0.1 0.1 0 0 0-0.1 0 0-0.1 0-0.1 0-0.1-0.1-0.1 0-0.1-0.1-0.1-0.1-0.1-0.2 0-0.1 0.1-0.2l4.3-9.6q0-0.1 0.1-0.1 0.1-0.1 0.2-0.1 0.1-0.1 0.1-0.1 0.1 0 0.2 0.1 0.1 0 0.2 0.1 0.1 0.1 0.1 0.2 0 0.1 0 0.2 0 0.1 0 0.2l-4.3 9.4q0 0.1-0.1 0.2 0 0-0.1 0.1 0 0-0.1 0-0.1 0-0.2 0z"/>
		<path id="Layer" class="s0" d="m74.6 371.8c0 0 15-9.8 20.5-13.9 5.5-4 8.3-3.3 11.2-4.3 2.8-0.9 17.2 3.4 26.7 15.3 9.6 11.9 8.6 20.7 7.4 23.1-1.2 2.4-31.2 20.5-31.2 20.5 0 0-4.3-17.1-17-27.4-12.6-10.3-17.6-13.3-17.6-13.3z"/>
		<path id="Layer" fill-rule="evenodd" class="s2" d="m109.2 413q-0.1 0-0.1 0 0 0 0 0-0.1 0-0.1 0 0 0 0 0-0.1 0-0.1-0.1-0.1 0-0.1 0-0.1-0.1-0.1-0.1 0-0.1 0-0.1c0-0.2-4.4-17.2-16.8-27.2-12.4-10-17.5-13.3-17.6-13.3q0 0-0.1-0.1 0 0-0.1-0.1 0 0 0-0.1 0-0.1 0-0.1 0-0.1 0-0.2 0 0 0-0.1 0.1 0 0.1-0.1 0 0 0.1-0.1c0.2-0.1 15.1-9.8 20.5-13.8q1-0.7 2-1.4 1.1-0.6 2.2-1.1 1.2-0.5 2.4-0.8 1.2-0.3 2.4-0.5 0.3-0.1 0.6-0.1 0.3-0.1 0.6-0.1 0.3-0.1 0.6-0.2 0.3 0 0.6-0.1c3.4-1.2 17.9 3.7 27.2 15.4 9.7 12.2 8.7 21.2 7.5 23.7-1.3 2.4-28.4 18.8-31.5 20.7q0 0-0.1 0 0 0 0 0-0.1 0-0.1 0 0 0 0 0zm-33.7-41.2c1.7 1.1 7 4.8 17 13 11.2 9.1 16 23.8 16.9 27 11.6-7 29.7-18.4 30.5-20 1.1-2.3 2.1-10.9-7.3-22.6-9.6-12-23.8-15.9-26.2-15.1q-0.3 0.1-0.6 0.1-0.3 0.1-0.6 0.2-0.4 0.1-0.7 0.1-0.3 0.1-0.6 0.1-1.2 0.2-2.3 0.5-1.2 0.3-2.2 0.8-1.1 0.4-2.1 1-1 0.6-2 1.4c-4.7 3.6-16.9 11.6-19.8 13.5z"/>
		<path id="Layer" class="s0" d="m14.5 400.3c0 0 27.8-17 32.5-19.8 4.6-2.8 9.9-6.6 9.9-6.6 0 0 1.5-7.4 8.6-7.6 7.1-0.3 13.9 2.5 23.2 7.6 9.3 5.1 20.7 23.6 22 31 1.2 7.4 3.6 9.6 1.7 14.4-2 4.9-9.3 5.1-10.7 5.1-1.5 0-4.9 3.1-4.9 3.1l-52.3 34"/>
		<path id="Layer" class="s2" d="m44.5 462q-0.1 0-0.1 0-0.1 0-0.1-0.1-0.1 0-0.1 0-0.1-0.1-0.1-0.1-0.1-0.1-0.1-0.2 0-0.1 0-0.2 0-0.1 0.1-0.2 0.1-0.1 0.1-0.1l52.3-34c0.5-0.5 3.5-3.2 5.1-3.2 1.4 0 8.5-0.2 10.3-4.7 1.2-3 0.7-4.9-0.3-8q-0.2-0.8-0.4-1.5-0.2-0.8-0.4-1.6-0.2-0.7-0.3-1.5-0.2-0.8-0.3-1.6c-1.3-7.4-12.7-25.6-21.8-30.6-8.8-4.9-15.8-7.8-22.9-7.6-6.6 0.3-8 7.2-8.1 7.3q0 0 0 0.1 0 0 0 0 0 0.1-0.1 0.1 0 0-0.1 0.1c0 0-5.4 3.8-10 6.6-4.5 2.8-32.2 19.5-32.5 19.7q0 0.1-0.1 0.1-0.1 0-0.2 0-0.1-0.1-0.2-0.1-0.1-0.1-0.1-0.2-0.1 0-0.1-0.1 0-0.1 0-0.2 0-0.1 0.1-0.2 0-0.1 0.1-0.1c0.3-0.2 27.9-17 32.5-19.8 4.1-2.5 8.9-5.9 9.8-6.5 0.3-1.2 2.3-7.6 9-7.8 7.4-0.3 14.4 2.7 23.5 7.6 9.3 5.1 21 23.8 22.2 31.4q0.1 0.7 0.3 1.5 0.1 0.8 0.3 1.5 0.2 0.8 0.4 1.5 0.2 0.8 0.4 1.5c1 3.1 1.6 5.4 0.3 8.7-2.1 5.1-9.7 5.4-11.2 5.4-1 0-3.3 1.8-4.6 2.9l-52.3 34.1q0 0 0 0-0.1 0-0.1 0.1-0.1 0-0.1 0 0 0-0.1 0z"/>
		<path id="Layer" class="s2" d="m98.7 420.4q-0.1 0-0.1 0-0.1 0-0.1 0 0 0-0.1 0 0-0.1 0-0.1-0.1 0-0.2-0.1 0-0.1 0-0.2-0.1-0.1 0-0.2 0-0.1 0-0.2c4-6.1 2.3-7.7 2.3-7.7q-0.1-0.1-0.1-0.2 0-0.1-0.1-0.2 0-0.1 0.1-0.2 0-0.1 0.1-0.1 0-0.1 0.1-0.2 0.1 0 0.2 0 0.1 0 0.2 0 0.1 0 0.1 0.1c0.3 0.2 2.5 2.1-2 9.1q-0.1 0-0.1 0.1-0.1 0-0.1 0-0.1 0.1-0.1 0.1-0.1 0-0.1 0z"/>
		<path id="Layer" class="s2" d="m90.8 428.8q0 0 0 0-0.1 0-0.1 0-0.1 0-0.1 0-0.1-0.1-0.1-0.1-0.1-0.1-0.1-0.2-0.1-0.1-0.1-0.2 0-0.1 0.1-0.1 0-0.1 0.1-0.2 1.4-1.3 2.5-2.8 1.1-1.6 2-3.3 0.9-1.7 1.4-3.5 0.6-1.8 0.8-3.7 0-0.2 0.1-0.4 0.2-0.1 0.4-0.1 0.2 0 0.4 0.1 0.1 0.2 0.1 0.4c0 0.3-0.4 7.4-7 14q0 0-0.1 0.1 0 0-0.1 0 0 0-0.1 0 0 0-0.1 0z"/>
	</g>
</svg>